<?xml version="1.0" standalone="no"?>
<!DOCTYPE svg PUBLIC "-//W3C//DTD SVG 20010904//EN"
 "http://www.w3.org/TR/2001/REC-SVG-20010904/DTD/svg10.dtd">
<svg version="1.0" xmlns="http://www.w3.org/2000/svg"
 width="1000.000000pt" height="1000.000000pt" viewBox="0 0 1000.000000 1000.000000"
 preserveAspectRatio="xMidYMid meet">
<metadata>
Created by potrace 1.11, written by Peter Selinger 2001-2013
</metadata>
<g transform="translate(0.000000,1000.000000) scale(0.100000,-0.100000)"
fill="#000000" stroke="none">
<path d="M4645 9744 c-344 -35 -533 -65 -793 -129 -891 -220 -1716 -708 -2340
-1385 -694 -753 -1119 -1678 -1238 -2695 -33 -292 -33 -778 0 -1070 138 -1184
698 -2254 1592 -3041 646 -569 1471 -964 2314 -1108 310 -54 408 -61 820 -61
411 0 500 7 820 61 676 114 1362 401 1935 809 926 659 1590 1633 1860 2727 50
203 85 399 112 618 26 210 26 852 0 1060 -74 596 -218 1080 -473 1589 -182
364 -364 642 -623 951 -101 120 -388 420 -402 420 -4 0 -10 -991 -12 -2202 -3
-1568 -7 -2238 -16 -2323 -70 -724 -236 -1222 -554 -1655 -93 -127 -334 -365
-479 -473 -501 -374 -1076 -572 -1828 -628 -196 -15 -676 -6 -860 15 -686 81
-1204 272 -1659 614 -132 99 -364 320 -458 437 -274 339 -445 753 -494 1195
-18 166 -16 393 4 467 46 174 145 272 317 314 76 19 277 16 364 -5 224 -54
306 -170 306 -431 0 -247 64 -521 172 -736 273 -541 818 -877 1578 -971 140
-17 640 -17 780 0 551 68 983 265 1288 586 313 330 484 777 532 1390 6 81 10
1050 10 2628 l0 2499 -142 68 c-498 237 -977 376 -1538 447 -100 12 -229 17
-495 19 -198 2 -378 1 -400 -1z m-1242 -1853 l627 -322 807 415 c444 229 809
414 811 411 2 -2 -64 -395 -147 -872 -83 -477 -151 -873 -151 -879 0 -8 925
-897 1234 -1185 39 -37 68 -70 64 -74 -4 -4 -410 -65 -902 -134 -493 -70 -898
-129 -900 -132 -2 -2 -185 -364 -406 -803 -366 -725 -404 -797 -417 -780 -8
10 -190 369 -406 798 -270 536 -398 781 -412 787 -11 4 -411 63 -890 129 -478
67 -878 124 -888 128 -15 6 110 130 635 631 386 369 652 631 651 640 -1 9 -70
399 -152 867 -83 468 -151 859 -151 868 0 14 40 -3 183 -77 100 -52 464 -239
810 -416z"/>
</g>
</svg>
