<svg 
	 version="1.1" 
	 xmlns="http://www.w3.org/2000/svg" 
	 xmlns:xlink="http://www.w3.org/1999/xlink"  
	 viewBox="0 0 700 400" 
	 enable-background="new 0 0 700 400" 
	 xml:space="preserve" 
	 preserveAspectRatio="xMidYMid meet" 
	 aria-labelledby="title desc" 
	 role="img">

	<title id="title">It's a Jungle out there.</title>
	<desc id="desc">Customers are everywhere bombarded by visual advertising messages.</desc>
	
<g id="back">
<!-- 	<rect id="blue" fill="#009BDF" width="700" height="400"/> -->
	<rect id="black" y="0" fill="#161616" width="700" height="400"/>
</g>
	<g id="jungleOut">
		<polygon fill="#95C93D" points="46.1,152.8 126.1,149.4 143.6,400 58.1,400 		"/>
		<polygon fill="#95C93D" points="38.7,92.5 38.7,142.4 130.8,142.4 134.7,92.5 		"/>
		<polygon fill="#00C0F3" points="106.9,116.5 196.2,116.5 211.4,399.2 127.5,399.2 		"/>
		<polygon fill="#25408F" points="151.6,123 203.1,123 203.1,191.7 154.1,187.6 		"/>
		<polygon fill="#EC008C" points="85.9,261.7 193.6,261.7 187.9,400 82.5,400 		"/>
		<polygon fill="#640C66" points="545.5,97.7 658.7,103.2 628.8,400 573.8,400 		"/>
		<g enable-background="new    ">
			<path fill="#FFFFFF" d="M45.9,102.8h3.6c1.5,0,2.6,0.3,3.2,0.9s1,1.5,1,2.7c0,0.8-0.2,1.5-0.5,2.1s-0.8,0.9-1.5,1v0.1
				c0.8,0.2,1.4,0.6,1.7,1.1s0.5,1.3,0.5,2.2c0,1.3-0.3,2.3-1,3s-1.6,1.1-2.8,1.1h-4.3V102.8z M48.4,108.6h1.2c0.6,0,1-0.1,1.2-0.4
				s0.3-0.7,0.3-1.3s-0.1-1-0.4-1.3s-0.7-0.4-1.2-0.4h-1.1V108.6z M48.4,110.8v4h1.3c0.6,0,1-0.2,1.2-0.5s0.4-0.9,0.4-1.6
				c0-1.3-0.6-1.9-1.7-1.9H48.4z"/>
		</g>
		<g enable-background="new    ">
			<path fill="#FFFFFF" d="M54.8,117.1v-14.3h2.7v12h3.7v2.3H54.8z"/>
		</g>
		<g enable-background="new    ">
			<path fill="#FFFFFF" d="M71.5,110c0,2.4-0.4,4.2-1.3,5.4s-2.2,1.9-3.8,1.9c-1.7,0-2.9-0.6-3.8-1.9s-1.3-3.1-1.3-5.5
				c0-2.4,0.4-4.2,1.3-5.4s2.2-1.9,3.8-1.9c1.6,0,2.9,0.6,3.8,1.9S71.5,107.6,71.5,110z M63.9,110c0,1.6,0.2,2.9,0.6,3.7
				s1,1.3,1.8,1.3c1.6,0,2.4-1.7,2.4-5s-0.8-5-2.4-5c-0.8,0-1.4,0.4-1.8,1.3S63.9,108.3,63.9,110z"/>
			<path fill="#FFFFFF" d="M84.4,117.1h-3.3l-1.4-7.5c-0.2-1-0.4-2.2-0.5-3.6l-0.1,0.7l-0.4,2.9l-1.4,7.4h-3.3l-2.6-14.3h2.6
				l1.3,8.1c0.1,0.8,0.3,2.1,0.5,3.8c0.2-1.7,0.3-3,0.5-3.7l1.5-8.1h2.8l1.5,8.1c0.2,1.2,0.4,2.5,0.5,3.8c0.2-1.9,0.4-3.2,0.5-3.8
				l1.2-8.1H87L84.4,117.1z"/>
		</g>
		<g enable-background="new    ">
			<path fill="#FFFFFF" d="M91.2,117.1v-14.3h2.5v14.3H91.2z"/>
		</g>
		<g enable-background="new    ">
			<path fill="#FFFFFF" d="M100,117.1h-2.6v-11.9h-2.7v-2.3h8.1v2.3H100V117.1z"/>
		</g>
		<g>
			<g enable-background="new    ">
				<path fill="#FFFFFF" d="M165.7,137.8c0,2.4-0.5,4.2-1.4,5.4s-2.3,1.9-4.1,1.9h-3.5v-14.3h3.8c1.7,0,3,0.6,3.9,1.8
					S165.7,135.6,165.7,137.8z M163,137.9c0-3.2-0.9-4.8-2.6-4.8h-1.1v9.7h0.9c1,0,1.7-0.4,2.1-1.2S163,139.5,163,137.9z"/>
			</g>
			<g enable-background="new    ">
				<path fill="#FFFFFF" d="M167.1,145.1v-14.3h2.5v14.3H167.1z"/>
			</g>
			<g enable-background="new    ">
				<path fill="#FFFFFF" d="M178.2,145.1l-0.8-3.6h-3.7l-0.8,3.6h-2.7l3.5-14.3h3.6l3.5,14.3H178.2z M176.8,139.2l-0.8-3.3
					c0-0.2-0.1-0.7-0.3-1.5s-0.3-1.4-0.3-1.6c-0.1,0.6-0.2,1.2-0.3,1.9s-0.5,2.2-1,4.6H176.8z"/>
			</g>
			<g enable-background="new    ">
				<path fill="#FFFFFF" d="M180.9,145.1v-14.3h2.7v12h3.7v2.3H180.9z"/>
			</g>
			<g enable-background="new    ">
				<path fill="#FFFFFF" d="M159.9,154.2h4.4v7.3c-1.2,0.5-2.6,0.8-3.9,0.8c-1.7,0-2.9-0.6-3.8-1.9s-1.3-3.1-1.3-5.5
					c0-2.3,0.5-4.1,1.5-5.4s2.5-1.9,4.3-1.9c1.1,0,2.2,0.3,3.3,0.9l-0.8,2.2c-0.8-0.5-1.6-0.7-2.3-0.7c-1,0-1.8,0.5-2.4,1.4
					s-0.9,2.1-0.9,3.7c0,1.6,0.2,2.8,0.6,3.7s1,1.3,1.9,1.3c0.4,0,0.9-0.1,1.3-0.2v-3.3h-1.8V154.2z"/>
			</g>
			<g enable-background="new    ">
				<path fill="#FFFFFF" d="M175.1,155c0,2.4-0.4,4.2-1.3,5.4s-2.2,1.9-3.8,1.9c-1.7,0-2.9-0.6-3.8-1.9s-1.3-3.1-1.3-5.5
					c0-2.4,0.4-4.2,1.3-5.4s2.2-1.9,3.8-1.9c1.6,0,2.9,0.6,3.8,1.9S175.1,152.6,175.1,155z M167.5,155c0,1.6,0.2,2.9,0.6,3.7
					s1,1.3,1.8,1.3c1.6,0,2.4-1.7,2.4-5s-0.8-5-2.4-5c-0.8,0-1.4,0.4-1.8,1.3S167.5,153.3,167.5,155z"/>
			</g>
			<g enable-background="new    ">
				<path fill="#FFFFFF" d="M185,154.8c0,2.4-0.5,4.2-1.4,5.4s-2.3,1.9-4.1,1.9H176v-14.3h3.8c1.7,0,3,0.6,3.9,1.8
					S185,152.6,185,154.8z M182.3,154.9c0-3.2-0.9-4.8-2.6-4.8h-1.1v9.7h0.9c1,0,1.7-0.4,2.1-1.2S182.3,156.5,182.3,154.9z"/>
			</g>
			<g enable-background="new    ">
				<path fill="#FFFFFF" d="M167.8,171.1c0,5.5-1.8,8.3-5.5,8.3c-0.6,0-1.1-0.1-1.5-0.2v-2.2c0.4,0.1,0.9,0.2,1.2,0.2
					c1.1,0,1.9-0.4,2.5-1.1s0.9-1.9,0.9-3.6h-0.1c-0.2,0.5-0.5,0.9-0.9,1.2s-0.8,0.4-1.4,0.4c-1,0-1.7-0.4-2.3-1.2s-0.8-1.9-0.8-3.3
					c0-1.5,0.4-2.7,1-3.6s1.6-1.3,2.8-1.3c1.3,0,2.3,0.5,2.9,1.7S167.8,169,167.8,171.1z M163.8,166.9c-0.4,0-0.7,0.2-0.9,0.6
					s-0.3,1.1-0.3,2c0,0.7,0.1,1.3,0.3,1.8s0.5,0.6,0.9,0.6c0.4,0,0.7-0.2,1-0.6s0.4-0.9,0.4-1.5c0-0.8-0.1-1.5-0.4-2.1
					S164.2,166.9,163.8,166.9z"/>
				<path fill="#FFFFFF" d="M174.7,179.1h-2.6v-8.4c0-0.9,0-2,0.1-3.1c0,0.1-0.2,0.3-0.5,0.6s-0.9,0.9-1.7,1.8l-1.5-1.6l3.8-3.5h2.4
					V179.1z"/>
			</g>
			<g enable-background="new    ">
				<path fill="#FFFFFF" d="M182.5,179.1h-2.6v-8.4c0-0.9,0-2,0.1-3.1c0,0.1-0.2,0.3-0.5,0.6s-0.9,0.9-1.7,1.8l-1.5-1.6l3.8-3.5h2.4
					V179.1z"/>
			</g>
		</g>
		<polygon fill="#FFF200" points="213.2,73.5 336.5,73.5 336.5,399.2 219.2,399.2 		"/>
		<polygon fill="#FFF200" points="230.6,33.6 232.3,66.8 349.8,65.5 351.2,31.2 		"/>
		<g enable-background="new    ">
			<path fill="#009BDF" d="M255.3,53.1c0,1.3-0.3,2.4-1,3.1s-1.6,1.1-2.9,1.1c-1.2,0-2.3-0.2-3.2-0.7v-2.6c1.1,0.7,2,1,2.9,1
				c0.5,0,0.9-0.1,1.1-0.4s0.4-0.7,0.4-1.1c0-0.5-0.2-0.9-0.5-1.3s-0.8-0.8-1.5-1.3c-0.6-0.4-1.1-0.8-1.4-1.2s-0.6-0.8-0.7-1.3
				s-0.3-1-0.3-1.7c0-1.2,0.3-2.2,1-2.9s1.6-1.1,2.7-1.1c1.1,0,2.1,0.3,3.2,0.9l-0.9,2.1c-0.3-0.2-0.6-0.3-1-0.5s-0.7-0.2-1.1-0.2
				c-0.4,0-0.8,0.1-1,0.4s-0.3,0.7-0.3,1.2c0,0.5,0.1,0.9,0.4,1.3s0.8,0.8,1.5,1.2c0.9,0.6,1.6,1.3,1.9,1.9S255.3,52.3,255.3,53.1z"
				/>
			<path fill="#009BDF" d="M263.8,47.2c0,1.5-0.4,2.7-1.1,3.5s-1.9,1.2-3.3,1.2h-0.7V57H256V42.8h3.6
				C262.4,42.8,263.8,44.2,263.8,47.2z M258.7,49.6h0.5c0.7,0,1.1-0.2,1.5-0.5s0.5-0.9,0.5-1.8c0-0.7-0.1-1.3-0.4-1.7
				s-0.7-0.5-1.4-0.5h-0.6V49.6z"/>
		</g>
		<g enable-background="new    ">
			<path fill="#009BDF" d="M270.6,57h-6.4V42.8h6.4v2.3h-3.8v3.4h3.5v2.3h-3.5v4h3.8V57z"/>
			<path fill="#009BDF" d="M281.7,57h-3.2l-4.4-10.3h-0.1c0.2,0.8,0.2,1.6,0.2,2.5V57h-2.5V42.8h3.3l4.4,10.2h0.1
				c-0.1-0.7-0.2-1.5-0.2-2.4v-7.8h2.4V57z"/>
			<path fill="#009BDF" d="M292.3,49.8c0,2.4-0.5,4.2-1.4,5.4s-2.3,1.9-4.1,1.9h-3.5V42.8h3.8c1.7,0,3,0.6,3.9,1.8
				S292.3,47.6,292.3,49.8z M289.6,49.8c0-3.2-0.9-4.8-2.6-4.8h-1.1v9.7h0.9c1,0,1.7-0.4,2.1-1.2S289.6,51.5,289.6,49.8z"/>
		</g>
		<g enable-background="new    ">
			<path fill="#009BDF" d="M301.7,57L299,44.9h-0.1c0.1,0.9,0.2,1.8,0.2,2.6V57h-2.5V42.8h4.1l2.4,11.2h0.1l2.4-11.2h4.1V57h-2.5
				v-9.7c0-0.8,0-1.6,0.1-2.5h-0.1L304.6,57H301.7z"/>
			<path fill="#009BDF" d="M321.1,49.9c0,2.4-0.4,4.2-1.3,5.4s-2.2,1.9-3.8,1.9c-1.7,0-2.9-0.6-3.8-1.9s-1.3-3.1-1.3-5.5
				c0-2.4,0.4-4.2,1.3-5.4s2.2-1.9,3.8-1.9c1.6,0,2.9,0.6,3.8,1.9S321.1,47.5,321.1,49.9z M313.6,49.9c0,1.6,0.2,2.9,0.6,3.7
				s1,1.3,1.8,1.3c1.6,0,2.4-1.7,2.4-5s-0.8-5-2.4-5c-0.8,0-1.4,0.4-1.8,1.3S313.6,48.3,313.6,49.9z"/>
		</g>
		<g enable-background="new    ">
			<path fill="#009BDF" d="M324.5,51.5V57h-2.7V42.8h3.5c1.5,0,2.6,0.3,3.3,1s1,1.8,1,3.2c0,1.8-0.6,3.1-1.8,3.8l2.7,6.3h-2.8
				l-2.3-5.6H324.5z M324.5,49.2h0.7c0.6,0,1.1-0.2,1.3-0.5s0.4-0.9,0.4-1.6c0-0.7-0.1-1.2-0.4-1.6s-0.7-0.5-1.3-0.5h-0.7V49.2z"/>
		</g>
		<g enable-background="new    ">
			<path fill="#009BDF" d="M337.1,57h-6.4V42.8h6.4v2.3h-3.8v3.4h3.5v2.3h-3.5v4h3.8V57z"/>
		</g>
		<g enable-background="new    ">
			<path fill="#009BDF" d="M337.8,55.7c0-0.5,0.1-0.9,0.4-1.2s0.7-0.4,1.2-0.4s0.9,0.1,1.2,0.4s0.4,0.7,0.4,1.2
				c0,0.5-0.1,0.9-0.4,1.2s-0.7,0.4-1.2,0.4c-0.5,0-0.9-0.1-1.2-0.4S337.8,56.2,337.8,55.7z M340.5,52.4h-2.1l-0.5-9.7h3.1
				L340.5,52.4z"/>
		</g>
		<g enable-background="new    ">
			<path fill="#FFFFFF" d="M98.3,269.9c0,1.5-0.4,2.7-1.1,3.5s-1.9,1.2-3.3,1.2h-0.7v5.2h-2.7v-14.3h3.6
				C96.9,265.5,98.3,267,98.3,269.9z M93.1,272.3h0.5c0.7,0,1.1-0.2,1.5-0.5s0.5-0.9,0.5-1.8c0-0.7-0.1-1.3-0.4-1.7
				s-0.7-0.5-1.4-0.5h-0.6V272.3z"/>
		</g>
		<g enable-background="new    ">
			<path fill="#FFFFFF" d="M107.7,279.8H105v-6.3h-3.5v6.3h-2.7v-14.3h2.7v5.7h3.5v-5.7h2.7V279.8z"/>
			<path fill="#FFFFFF" d="M118,265.5v9.2c0,1.7-0.4,3-1.2,3.9s-1.9,1.3-3.3,1.3c-1.4,0-2.5-0.4-3.2-1.3s-1.1-2.2-1.1-3.9v-9.2h2.6
				v9.4c0,1.8,0.6,2.7,1.8,2.7c0.6,0,1-0.2,1.3-0.7s0.5-1.1,0.5-2v-9.5H118z"/>
			<path fill="#FFFFFF" d="M124.2,267.6c-0.8,0-1.4,0.4-1.8,1.3s-0.7,2.1-0.7,3.7c0,3.3,0.9,5,2.6,5c0.8,0,1.5-0.2,2.4-0.7v2.4
				c-0.7,0.5-1.6,0.7-2.7,0.7c-1.6,0-2.8-0.6-3.7-1.9s-1.3-3.1-1.3-5.4s0.4-4.1,1.3-5.4s2.1-1.9,3.7-1.9c0.5,0,1,0.1,1.5,0.2
				s1,0.4,1.5,0.8l-0.9,2.2c-0.3-0.2-0.6-0.4-0.9-0.6S124.6,267.6,124.2,267.6z"/>
			<path fill="#FFFFFF" d="M136.6,279.8h-2.8l-2.3-6.1l-1.1,1.1v5h-2.7v-14.3h2.7v7.1l0.9-2.1l2.4-4.9h2.8l-3.3,6.2L136.6,279.8z"/>
		</g>
		<g enable-background="new    ">
			<path fill="#FFFFFF" d="M136.1,279.8v-14.3h2.7v12h3.7v2.3H136.1z"/>
		</g>
		<g enable-background="new    ">
			<path fill="#FFFFFF" d="M100.3,289.6c0,2.4-0.4,4.2-1.3,5.4s-2.2,1.9-3.8,1.9c-1.7,0-2.9-0.6-3.8-1.9S90,292,90,289.6
				c0-2.4,0.4-4.2,1.3-5.4s2.2-1.9,3.8-1.9c1.6,0,2.9,0.6,3.8,1.9S100.3,287.3,100.3,289.6z M92.7,289.6c0,1.6,0.2,2.9,0.6,3.7
				s1,1.3,1.8,1.3c1.6,0,2.4-1.7,2.4-5s-0.8-5-2.4-5c-0.8,0-1.4,0.4-1.8,1.3S92.7,288,92.7,289.6z"/>
		</g>
		<g enable-background="new    ">
			<path fill="#FFFFFF" d="M111.2,296.8h-3.2l-4.4-10.3h-0.1c0.2,0.8,0.2,1.6,0.2,2.5v7.8h-2.5v-14.3h3.3l4.4,10.2h0.1
				c-0.1-0.7-0.2-1.5-0.2-2.4v-7.8h2.4V296.8z"/>
			<path fill="#FFFFFF" d="M117,288.9h4.4v7.3c-1.2,0.5-2.6,0.8-3.9,0.8c-1.7,0-2.9-0.6-3.8-1.9s-1.3-3.1-1.3-5.5
				c0-2.3,0.5-4.1,1.5-5.4s2.5-1.9,4.3-1.9c1.1,0,2.2,0.3,3.3,0.9l-0.8,2.2c-0.8-0.5-1.6-0.7-2.3-0.7c-1,0-1.8,0.5-2.4,1.4
				s-0.9,2.1-0.9,3.7c0,1.6,0.2,2.8,0.6,3.7s1,1.3,1.9,1.3c0.4,0,0.9-0.1,1.3-0.2v-3.3H117V288.9z"/>
			<path fill="#FFFFFF" d="M129,296.8h-6.4v-14.3h6.4v2.3h-3.8v3.4h3.5v2.3h-3.5v4h3.8V296.8z"/>
		</g>
		<g enable-background="new    ">
			<path fill="#FFFFFF" d="M132.2,291.2v5.6h-2.7v-14.3h3.5c1.5,0,2.6,0.3,3.3,1s1,1.8,1,3.2c0,1.8-0.6,3.1-1.8,3.8l2.7,6.3h-2.8
				l-2.3-5.6H132.2z M132.2,288.9h0.7c0.6,0,1.1-0.2,1.3-0.5s0.4-0.9,0.4-1.6c0-0.7-0.1-1.2-0.4-1.6s-0.7-0.5-1.3-0.5h-0.7V288.9z"
				/>
		</g>
		<g enable-background="new    ">
			<path fill="#FFFFFF" d="M589.9,131.4c0,1.5-0.4,2.7-1.1,3.5s-1.9,1.2-3.3,1.2h-0.7v5.2h-2.7V127h3.6
				C588.6,127,589.9,128.5,589.9,131.4z M584.8,133.8h0.5c0.7,0,1.1-0.2,1.5-0.5s0.5-0.9,0.5-1.8c0-0.7-0.1-1.3-0.4-1.7
				s-0.7-0.5-1.4-0.5h-0.6V133.8z"/>
		</g>
		<g enable-background="new    ">
			<path fill="#FFFFFF" d="M595.8,141.3l-0.8-3.6h-3.7l-0.8,3.6h-2.7l3.5-14.3h3.6l3.5,14.3H595.8z M594.5,135.3l-0.8-3.3
				c0-0.2-0.1-0.7-0.3-1.5s-0.3-1.4-0.3-1.6c-0.1,0.6-0.2,1.2-0.3,1.9s-0.5,2.2-1,4.6H594.5z"/>
			<path fill="#FFFFFF" d="M601.4,135.7v5.6h-2.7V127h3.5c1.5,0,2.6,0.3,3.3,1s1,1.8,1,3.2c0,1.8-0.6,3.1-1.8,3.8l2.7,6.3h-2.8
				l-2.3-5.6H601.4z M601.4,133.4h0.7c0.6,0,1.1-0.2,1.3-0.5s0.4-0.9,0.4-1.6c0-0.7-0.1-1.2-0.4-1.6s-0.7-0.5-1.3-0.5h-0.7V133.4z"
				/>
			<path fill="#FFFFFF" d="M614.5,141.3l-0.8-3.6H610l-0.8,3.6h-2.7L610,127h3.6l3.5,14.3H614.5z M613.2,135.3l-0.8-3.3
				c0-0.2-0.1-0.7-0.3-1.5s-0.3-1.4-0.3-1.6c-0.1,0.6-0.2,1.2-0.3,1.9s-0.5,2.2-1,4.6H613.2z"/>
		</g>
		<g enable-background="new    ">
			<path fill="#FFFFFF" d="M625.9,134c0,2.4-0.5,4.2-1.4,5.4c-1,1.2-2.3,1.9-4.1,1.9h-3.5V127h3.8c1.7,0,3,0.6,3.9,1.8
				C625.5,130.1,625.9,131.8,625.9,134z M623.2,134.1c0-3.2-0.9-4.8-2.6-4.8h-1.1v9.7h0.9c1,0,1.7-0.4,2.1-1.2
				C623,136.9,623.2,135.7,623.2,134.1z"/>
			<path fill="#FFFFFF" d="M627.5,141.3V127h2.5v14.3H627.5z"/>
		</g>
		<g enable-background="new    ">
			<path fill="#FFFFFF" d="M638.1,137.4c0,1.3-0.3,2.4-1,3.1s-1.6,1.1-2.9,1.1c-1.2,0-2.3-0.2-3.2-0.7v-2.6c1.1,0.7,2,1,2.9,1
				c0.5,0,0.9-0.1,1.1-0.4c0.3-0.3,0.4-0.7,0.4-1.1c0-0.5-0.2-0.9-0.5-1.3c-0.3-0.4-0.8-0.8-1.5-1.3c-0.6-0.4-1.1-0.8-1.4-1.2
				c-0.3-0.4-0.6-0.8-0.7-1.3c-0.2-0.5-0.3-1-0.3-1.7c0-1.2,0.3-2.2,1-2.9c0.7-0.7,1.6-1.1,2.7-1.1c1.1,0,2.1,0.3,3.2,0.9l-0.9,2.1
				c-0.3-0.2-0.6-0.3-1-0.5s-0.7-0.2-1.1-0.2c-0.4,0-0.8,0.1-1,0.4c-0.2,0.3-0.3,0.7-0.3,1.2c0,0.5,0.1,0.9,0.4,1.3
				c0.3,0.4,0.8,0.8,1.4,1.2c0.9,0.6,1.6,1.3,1.9,1.9C638,135.8,638.1,136.5,638.1,137.4z"/>
		</g>
		<g enable-background="new    ">
			<path fill="#FFFFFF" d="M645.1,141.3h-6.4V127h6.4v2.3h-3.8v3.4h3.5v2.3h-3.5v4h3.8V141.3z"/>
		</g>
		<g enable-background="new    ">
			<path fill="#FFFFFF" d="M592.2,158.3h-3.2l-4.4-10.3h-0.1c0.2,0.8,0.2,1.6,0.2,2.5v7.8h-2.5V144h3.3l4.4,10.2h0.1
				c-0.1-0.7-0.2-1.5-0.2-2.4V144h2.4V158.3z"/>
			<path fill="#FFFFFF" d="M603.5,151.1c0,2.4-0.4,4.2-1.3,5.4s-2.2,1.9-3.8,1.9c-1.7,0-2.9-0.6-3.8-1.9s-1.3-3.1-1.3-5.5
				c0-2.4,0.4-4.2,1.3-5.4s2.2-1.9,3.8-1.9c1.6,0,2.9,0.6,3.8,1.9S603.5,148.8,603.5,151.1z M595.9,151.1c0,1.6,0.2,2.9,0.6,3.7
				s1,1.3,1.8,1.3c1.6,0,2.4-1.7,2.4-5s-0.8-5-2.4-5c-0.8,0-1.4,0.4-1.8,1.3S595.9,149.5,595.9,151.1z"/>
		</g>
		<g enable-background="new    ">
			<path fill="#FFFFFF" d="M616.1,158.3h-3.3l-1.4-7.5c-0.2-1-0.4-2.2-0.5-3.6l-0.1,0.7l-0.4,2.9l-1.4,7.4h-3.3l-2.6-14.3h2.6
				l1.3,8.1c0.1,0.8,0.3,2.1,0.5,3.8c0.2-1.7,0.3-3,0.5-3.7l1.5-8.1h2.8l1.5,8.1c0.2,1.2,0.4,2.5,0.5,3.8c0.2-1.9,0.4-3.2,0.5-3.8
				l1.2-8.1h2.6L616.1,158.3z"/>
		</g>
		<g enable-background="new    ">
			<path fill="#FFFFFF" d="M618.7,156.9c0-0.5,0.1-0.9,0.4-1.2s0.7-0.4,1.2-0.4s0.9,0.1,1.2,0.4s0.4,0.7,0.4,1.2
				c0,0.5-0.1,0.9-0.4,1.2s-0.7,0.4-1.2,0.4c-0.5,0-0.9-0.1-1.2-0.4S618.7,157.5,618.7,156.9z M621.4,153.7h-2.1l-0.5-9.7h3.1
				L621.4,153.7z"/>
		</g>
		<path opacity="0.4" fill="#FFF200" enable-background="new    " d="M96.7,316.6l60.8-10.7l-10.7-60.8l-60.8,10.7L96.7,316.6z
			 M114.7,72.8L57.5,82.9l10.2,57.9l32.4,95.7l27.1-4.8l-2.3-101L114.7,72.8z"/>
		<polygon fill="#EC008C" points="277.5,126.5 273.1,154 424.1,158.1 424.1,126.4 		"/>
		<polygon fill="#EC008C" points="294.3,158.5 436.9,158.5 444.7,399.2 314.1,399.2 		"/>
		<polygon opacity="0.8" fill="#2D7BE6" points="530.5,61 359.4,74.5 395.8,400.1 560.5,400 		"/>
		<g enable-background="new    ">
			<path fill="#FFFFFF" d="M290.7,149.1h-6.4v-14.3h6.4v2.3h-3.8v3.4h3.5v2.3h-3.5v4h3.8V149.1z"/>
		</g>
		<g enable-background="new    ">
			<path fill="#FFFFFF" d="M299.8,149.1h-2.8l-2-5.1l-1.9,5.1h-2.8l3.3-7.4l-3-6.9h2.7l1.9,4.7l1.6-4.7h2.8l-3,7L299.8,149.1z"/>
		</g>
		<g enable-background="new    ">
			<path fill="#FFFFFF" d="M304.6,137c-0.8,0-1.4,0.4-1.8,1.3s-0.7,2.1-0.7,3.7c0,3.3,0.9,5,2.6,5c0.8,0,1.5-0.2,2.4-0.7v2.4
				c-0.7,0.5-1.6,0.7-2.7,0.7c-1.6,0-2.8-0.6-3.7-1.9s-1.3-3.1-1.3-5.4s0.4-4.1,1.3-5.4s2.1-1.9,3.7-1.9c0.5,0,1,0.1,1.5,0.2
				s1,0.4,1.5,0.8l-0.9,2.2c-0.3-0.2-0.6-0.4-0.9-0.6S305,137,304.6,137z"/>
		</g>
		<g enable-background="new    ">
			<path fill="#FFFFFF" d="M308,149.1v-14.3h2.7v12h3.7v2.3H308z"/>
		</g>
		<g enable-background="new    ">
			<path fill="#FFFFFF" d="M323.6,134.9v9.2c0,1.7-0.4,3-1.2,3.9s-1.9,1.3-3.3,1.3c-1.4,0-2.5-0.4-3.2-1.3s-1.1-2.2-1.1-3.9v-9.2
				h2.6v9.4c0,1.8,0.6,2.7,1.8,2.7c0.6,0,1-0.2,1.3-0.7s0.5-1.1,0.5-2v-9.5H323.6z"/>
		</g>
		<g enable-background="new    ">
			<path fill="#FFFFFF" d="M331.4,145.2c0,1.3-0.3,2.4-1,3.1c-0.7,0.7-1.6,1.1-2.9,1.1c-1.2,0-2.3-0.2-3.2-0.7V146
				c1.1,0.7,2,1,2.9,1c0.5,0,0.9-0.1,1.1-0.4s0.4-0.7,0.4-1.1c0-0.5-0.2-0.9-0.5-1.3s-0.8-0.8-1.5-1.3c-0.6-0.4-1.1-0.8-1.4-1.2
				s-0.6-0.8-0.7-1.3s-0.3-1-0.3-1.7c0-1.2,0.3-2.2,1-2.9s1.6-1.1,2.7-1.1c1.1,0,2.1,0.3,3.2,0.9l-0.9,2.1c-0.3-0.2-0.6-0.3-1-0.5
				s-0.7-0.2-1.1-0.2c-0.4,0-0.8,0.1-1,0.4s-0.3,0.7-0.3,1.2c0,0.5,0.1,0.9,0.4,1.3s0.8,0.8,1.5,1.2c0.9,0.6,1.6,1.3,1.9,1.9
				C331.2,143.6,331.4,144.4,331.4,145.2z"/>
		</g>
		<g enable-background="new    ">
			<path fill="#FFFFFF" d="M332.4,149.1v-14.3h2.5v14.3H332.4z"/>
			<path fill="#FFFFFF" d="M343.1,134.9h2.7l-3.4,14.3H339l-3.3-14.3h2.7l1.9,8.7c0.2,0.7,0.3,1.8,0.5,3.2c0.1-1.2,0.3-2.2,0.5-3.2
				L343.1,134.9z"/>
		</g>
		<g enable-background="new    ">
			<path fill="#FFFFFF" d="M352.1,149.1h-6.4v-14.3h6.4v2.3h-3.8v3.4h3.5v2.3h-3.5v4h3.8V149.1z"/>
		</g>
		<g enable-background="new    ">
			<path fill="#FFFFFF" d="M355.6,143.6v5.6h-2.7v-14.3h3.5c1.5,0,2.6,0.3,3.3,1c0.7,0.7,1.1,1.8,1.1,3.2c0,1.8-0.6,3.1-1.8,3.8
				l2.7,6.3h-2.8l-2.3-5.6H355.6z M355.6,141.3h0.7c0.6,0,1.1-0.2,1.3-0.5s0.4-0.9,0.4-1.6c0-0.7-0.1-1.2-0.4-1.6
				c-0.3-0.3-0.7-0.5-1.3-0.5h-0.7V141.3z"/>
		</g>
		<g enable-background="new    ">
			<path fill="#FFFFFF" d="M403,85.8c-0.8,0-1.4,0.4-1.8,1.3s-0.7,2.1-0.7,3.7c0,3.3,0.9,5,2.6,5c0.8,0,1.5-0.2,2.4-0.7v2.4
				c-0.7,0.5-1.6,0.7-2.7,0.7c-1.6,0-2.8-0.6-3.7-1.9s-1.3-3.1-1.3-5.4s0.4-4.1,1.3-5.4s2.1-1.9,3.7-1.9c0.5,0,1,0.1,1.5,0.2
				s1,0.4,1.5,0.8l-0.9,2.2c-0.3-0.2-0.6-0.4-0.9-0.6S403.4,85.8,403,85.8z"/>
		</g>
		<g enable-background="new    ">
			<path fill="#FFFFFF" d="M406.3,98V83.7h2.7v12h3.7V98H406.3z"/>
			<path fill="#FFFFFF" d="M419.8,98h-6.4V83.7h6.4V86H416v3.4h3.5v2.3H416v4h3.8V98z"/>
			<path fill="#FFFFFF" d="M427.7,98l-0.8-3.6h-3.7l-0.8,3.6h-2.7l3.5-14.3h3.6l3.5,14.3H427.7z M426.3,92l-0.8-3.3
				c0-0.2-0.1-0.7-0.3-1.5s-0.3-1.4-0.3-1.6c-0.1,0.6-0.2,1.2-0.3,1.9s-0.5,2.2-1,4.6H426.3z"/>
		</g>
		<g enable-background="new    ">
			<path fill="#FFFFFF" d="M440,98h-3.2l-4.4-10.3h-0.1c0.2,0.8,0.2,1.6,0.2,2.5V98H430V83.7h3.3l4.4,10.2h0.1
				c-0.1-0.7-0.2-1.5-0.2-2.4v-7.8h2.4V98z"/>
			<path fill="#FFFFFF" d="M447.9,98h-6.4V83.7h6.4V86h-3.8v3.4h3.5v2.3h-3.5v4h3.8V98z"/>
		</g>
		<g enable-background="new    ">
			<path fill="#FFFFFF" d="M451.3,92.4V98h-2.7V83.7h3.5c1.5,0,2.6,0.3,3.3,1c0.7,0.7,1.1,1.8,1.1,3.2c0,1.8-0.6,3.1-1.8,3.8
				l2.7,6.3h-2.8l-2.3-5.6H451.3z M451.3,90.1h0.7c0.6,0,1.1-0.2,1.3-0.5s0.4-0.9,0.4-1.6c0-0.7-0.1-1.2-0.4-1.6
				c-0.3-0.3-0.7-0.5-1.3-0.5h-0.7V90.1z"/>
		</g>
		<g enable-background="new    ">
			<path fill="#FFFFFF" d="M377.8,115h-2.6V103h-2.7v-2.3h8.1v2.3h-2.7V115z"/>
			<path fill="#FFFFFF" d="M389.9,115h-2.7v-6.3h-3.5v6.3h-2.7v-14.3h2.7v5.7h3.5v-5.7h2.7V115z"/>
		</g>
		<g enable-background="new    ">
			<path fill="#FFFFFF" d="M397.8,115l-0.8-3.6h-3.7l-0.8,3.6h-2.7l3.5-14.3h3.6l3.5,14.3H397.8z M396.5,109l-0.8-3.3
				c0-0.2-0.1-0.7-0.3-1.5s-0.3-1.4-0.3-1.6c-0.1,0.6-0.2,1.2-0.3,1.9s-0.5,2.2-1,4.6H396.5z"/>
		</g>
		<g enable-background="new    ">
			<path fill="#FFFFFF" d="M410.6,115h-3.2l-4.4-10.3h-0.1c0.2,0.8,0.2,1.6,0.2,2.5v7.8h-2.5v-14.3h3.3l4.4,10.2h0.1
				c-0.1-0.7-0.2-1.5-0.2-2.4v-7.8h2.4V115z"/>
		</g>
		<g enable-background="new    ">
			<path fill="#FFFFFF" d="M420.4,102.8c-0.8,0-1.4,0.4-1.8,1.3s-0.7,2.1-0.7,3.7c0,3.3,0.9,5,2.6,5c0.8,0,1.5-0.2,2.4-0.7v2.4
				c-0.7,0.5-1.6,0.7-2.7,0.7c-1.6,0-2.8-0.6-3.7-1.9c-0.9-1.3-1.3-3.1-1.3-5.4s0.4-4.1,1.3-5.4s2.1-1.9,3.7-1.9
				c0.5,0,1,0.1,1.5,0.2s1,0.4,1.5,0.8l-0.9,2.2c-0.3-0.2-0.6-0.4-0.9-0.6S420.8,102.8,420.4,102.8z"/>
		</g>
		<g enable-background="new    ">
			<path fill="#FFFFFF" d="M423.7,115v-14.3h2.7v12h3.7v2.3H423.7z"/>
			<path fill="#FFFFFF" d="M437.2,115h-6.4v-14.3h6.4v2.3h-3.8v3.4h3.5v2.3h-3.5v4h3.8V115z"/>
			<path fill="#FFFFFF" d="M445,115l-0.8-3.6h-3.7l-0.8,3.6H437l3.5-14.3h3.6l3.5,14.3H445z M443.7,109l-0.8-3.3
				c0-0.2-0.1-0.7-0.3-1.5c-0.2-0.8-0.3-1.4-0.3-1.6c-0.1,0.6-0.2,1.2-0.3,1.9c-0.1,0.7-0.5,2.2-1,4.6H443.7z"/>
		</g>
		<g enable-background="new    ">
			<path fill="#FFFFFF" d="M457.4,115h-3.2l-4.4-10.3h-0.1c0.2,0.8,0.2,1.6,0.2,2.5v7.8h-2.5v-14.3h3.3l4.4,10.2h0.1
				c-0.1-0.7-0.2-1.5-0.2-2.4v-7.8h2.4V115z"/>
		</g>
		<polygon opacity="0.8" fill="#5FE146" points="327.2,188.5 497.6,188.5 497.6,400 334.6,400 		"/>
		<g>
			<g enable-background="new    ">
				<path fill="#FFFFFF" d="M364.3,226.4h-2.6v-6.1h-3.4v6.1h-2.6v-13.8h2.6v5.5h3.4v-5.5h2.6V226.4z"/>
			</g>
			<g enable-background="new    ">
				<path fill="#FFFFFF" d="M371.9,226.4h-6.2v-13.8h6.2v2.2h-3.7v3.3h3.4v2.2h-3.4v3.8h3.7V226.4z"/>
				<path fill="#FFFFFF" d="M379.5,226.4l-0.8-3.5h-3.6l-0.8,3.5h-2.6l3.4-13.9h3.5l3.4,13.9H379.5z M378.2,220.6l-0.7-3.2
					c0-0.2-0.1-0.7-0.3-1.5c-0.2-0.8-0.2-1.3-0.3-1.6c-0.1,0.5-0.2,1.1-0.3,1.8c-0.1,0.7-0.5,2.1-1,4.5H378.2z"/>
			</g>
			<g enable-background="new    ">
				<path fill="#FFFFFF" d="M381.9,226.4v-13.8h2.6v11.6h3.6v2.3H381.9z"/>
			</g>
			<g enable-background="new    ">
				<path fill="#FFFFFF" d="M391,226.4h-2.6v-11.6h-2.7v-2.3h7.9v2.3H391V226.4z"/>
				<path fill="#FFFFFF" d="M402.7,226.4h-2.6v-6.1h-3.4v6.1h-2.6v-13.8h2.6v5.5h3.4v-5.5h2.6V226.4z"/>
			</g>
			<g enable-background="new    ">
				<path fill="#FFFFFF" d="M407.2,218l1.8-5.5h2.7l-3.3,8.3v5.6h-2.5v-5.4l-3.3-8.4h2.7L407.2,218z"/>
			</g>
			<g enable-background="new    ">
				<path fill="#FFFFFF" d="M364.6,235.8c0,2.3-0.5,4-1.4,5.2s-2.3,1.8-4,1.8h-3.4V229h3.7c1.6,0,2.9,0.6,3.8,1.8
					C364.1,232,364.6,233.6,364.6,235.8z M361.9,235.9c0-3.1-0.9-4.6-2.6-4.6h-1v9.4h0.8c0.9,0,1.6-0.4,2.1-1.2
					C361.7,238.6,361.9,237.4,361.9,235.9z"/>
				<path fill="#FFFFFF" d="M375.1,235.9c0,2.3-0.4,4.1-1.3,5.3c-0.9,1.2-2.1,1.8-3.7,1.8c-1.6,0-2.8-0.6-3.7-1.8
					c-0.9-1.2-1.3-3-1.3-5.3c0-2.3,0.4-4,1.3-5.3s2.1-1.8,3.7-1.8c1.6,0,2.8,0.6,3.7,1.8C374.7,231.9,375.1,233.6,375.1,235.9z
					 M367.8,235.9c0,1.6,0.2,2.8,0.6,3.6s1,1.2,1.8,1.2c1.6,0,2.3-1.6,2.3-4.8c0-3.2-0.8-4.8-2.3-4.8c-0.8,0-1.4,0.4-1.8,1.2
					C368,233.1,367.8,234.3,367.8,235.9z"/>
			</g>
			<g enable-background="new    ">
				<path fill="#FFFFFF" d="M382.2,239c0,1.3-0.3,2.3-1,3c-0.7,0.7-1.6,1-2.8,1c-1.2,0-2.2-0.2-3.1-0.7v-2.5c1,0.7,2,1,2.9,1
					c0.5,0,0.9-0.1,1.1-0.4c0.2-0.3,0.4-0.6,0.4-1.1c0-0.5-0.1-0.9-0.4-1.3c-0.3-0.4-0.8-0.8-1.5-1.3c-0.6-0.4-1-0.8-1.3-1.2
					c-0.3-0.4-0.5-0.8-0.7-1.3c-0.2-0.5-0.3-1-0.3-1.6c0-1.2,0.3-2.1,1-2.8c0.7-0.7,1.5-1,2.7-1c1.1,0,2.1,0.3,3.1,0.9l-0.9,2.1
					c-0.3-0.2-0.6-0.3-1-0.5c-0.3-0.1-0.7-0.2-1.1-0.2c-0.4,0-0.7,0.1-1,0.4c-0.2,0.3-0.3,0.6-0.3,1.1c0,0.5,0.1,0.9,0.4,1.2
					c0.3,0.3,0.7,0.7,1.4,1.2c0.9,0.6,1.5,1.2,1.9,1.9C382,237.5,382.2,238.2,382.2,239z"/>
				<path fill="#FFFFFF" d="M389.1,242.9h-6.2V229h6.2v2.2h-3.7v3.3h3.4v2.2h-3.4v3.8h3.7V242.9z"/>
			</g>
			<g enable-background="new    ">
				<path fill="#FFFFFF" d="M403,235.9c0,2.3-0.4,4.1-1.3,5.3s-2.1,1.8-3.7,1.8c-1.6,0-2.8-0.6-3.7-1.8c-0.9-1.2-1.3-3-1.3-5.3
					c0-2.3,0.4-4,1.3-5.3c0.9-1.2,2.1-1.8,3.7-1.8c1.6,0,2.8,0.6,3.7,1.8C402.6,231.9,403,233.6,403,235.9z M395.7,235.9
					c0,1.6,0.2,2.8,0.6,3.6s1,1.2,1.8,1.2c1.6,0,2.3-1.6,2.3-4.8c0-3.2-0.8-4.8-2.3-4.8c-0.8,0-1.4,0.4-1.8,1.2
					C395.9,233.1,395.7,234.3,395.7,235.9z"/>
			</g>
			<g enable-background="new    ">
				<path fill="#FFFFFF" d="M406.4,242.9h-2.6V229h6.2v2.2h-3.6v3.8h3.4v2.2h-3.4V242.9z"/>
			</g>
			<g enable-background="new    ">
				<path fill="#FFFFFF" d="M364.3,259.3h-2.6v-6.1h-3.4v6.1h-2.6v-13.8h2.6v5.5h3.4v-5.5h2.6V259.3z"/>
			</g>
			<g enable-background="new    ">
				<path fill="#FFFFFF" d="M371.9,259.3h-6.2v-13.8h6.2v2.2h-3.7v3.3h3.4v2.2h-3.4v3.8h3.7V259.3z"/>
				<path fill="#FFFFFF" d="M381.7,252.3c0,2.3-0.5,4-1.4,5.2c-0.9,1.2-2.3,1.8-4,1.8h-3.4v-13.8h3.7c1.6,0,2.9,0.6,3.8,1.8
					C381.3,248.5,381.7,250.1,381.7,252.3z M379.1,252.4c0-3.1-0.9-4.6-2.6-4.6h-1v9.4h0.8c0.9,0,1.6-0.4,2.1-1.2
					C378.8,255.1,379.1,253.9,379.1,252.4z"/>
				<path fill="#FFFFFF" d="M392.3,252.4c0,2.3-0.4,4.1-1.3,5.3c-0.9,1.2-2.1,1.8-3.7,1.8c-1.6,0-2.8-0.6-3.7-1.8
					c-0.9-1.2-1.3-3-1.3-5.3c0-2.3,0.4-4,1.3-5.3c0.9-1.2,2.1-1.8,3.7-1.8c1.6,0,2.8,0.6,3.7,1.8
					C391.8,248.3,392.3,250.1,392.3,252.4z M384.9,252.4c0,1.6,0.2,2.8,0.6,3.6c0.4,0.8,1,1.2,1.8,1.2c1.6,0,2.3-1.6,2.3-4.8
					c0-3.2-0.8-4.8-2.3-4.8c-0.8,0-1.4,0.4-1.8,1.2C385.1,249.6,384.9,250.8,384.9,252.4z"/>
			</g>
			<g enable-background="new    ">
				<path fill="#FFFFFF" d="M402.5,259.3h-3.1l-4.3-10h-0.1c0.2,0.8,0.2,1.6,0.2,2.5v7.6h-2.4v-13.8h3.2l4.2,9.9h0.1
					c-0.1-0.7-0.2-1.5-0.2-2.4v-7.6h2.4V259.3z"/>
				<path fill="#FFFFFF" d="M404.4,259.3v-13.8h2.4v13.8H404.4z"/>
			</g>
			<g enable-background="new    ">
				<path fill="#FFFFFF" d="M414.7,255.5c0,1.3-0.3,2.3-1,3s-1.6,1-2.8,1c-1.2,0-2.2-0.2-3.1-0.7v-2.5c1,0.7,2,1,2.9,1
					c0.5,0,0.9-0.1,1.1-0.4c0.2-0.3,0.4-0.6,0.4-1.1c0-0.5-0.1-0.9-0.4-1.3s-0.8-0.8-1.5-1.3c-0.6-0.4-1-0.8-1.3-1.2
					c-0.3-0.4-0.5-0.8-0.7-1.3c-0.2-0.5-0.3-1-0.3-1.6c0-1.2,0.3-2.1,1-2.8c0.7-0.7,1.5-1,2.7-1c1.1,0,2.1,0.3,3.1,0.9l-0.9,2.1
					c-0.3-0.2-0.6-0.3-1-0.5c-0.3-0.1-0.7-0.2-1.1-0.2c-0.4,0-0.7,0.1-1,0.4c-0.2,0.3-0.3,0.6-0.3,1.1c0,0.5,0.1,0.9,0.4,1.2
					c0.3,0.3,0.7,0.7,1.4,1.2c0.9,0.6,1.5,1.2,1.9,1.9C414.6,254,414.7,254.7,414.7,255.5z"/>
			</g>
			<g enable-background="new    ">
				<path fill="#FFFFFF" d="M420.2,259.3l-2.6-11.8h-0.1c0.1,0.9,0.2,1.7,0.2,2.5v9.3h-2.4v-13.8h4l2.4,10.9h0.1l2.3-10.9h4v13.8
					h-2.4V250c0-0.8,0-1.6,0.1-2.4h-0.1l-2.6,11.8H420.2z"/>
			</g>
		</g>
		<polygon opacity="0.7" fill="#640C66" enable-background="new    " points="151.7,290.3 396.5,290.3 403.2,400 175.8,400 		"/>
		<g>
			<g enable-background="new    ">
				<path fill="#FFFFFF" d="M339.8,300.8h3.5c1.4,0,2.5,0.3,3.1,0.8c0.7,0.6,1,1.4,1,2.7c0,0.8-0.2,1.5-0.5,2s-0.8,0.9-1.4,1v0.1
					c0.8,0.2,1.3,0.6,1.7,1.1c0.3,0.5,0.5,1.2,0.5,2.1c0,1.3-0.3,2.2-1,3c-0.7,0.7-1.6,1.1-2.8,1.1h-4.2V300.8z M342.2,306.4h1.2
					c0.5,0,0.9-0.1,1.1-0.4s0.3-0.7,0.3-1.3c0-0.6-0.1-1-0.4-1.2c-0.3-0.2-0.7-0.4-1.2-0.4h-1.1V306.4z M342.2,308.6v3.9h1.3
					c0.5,0,0.9-0.2,1.2-0.5c0.3-0.3,0.4-0.8,0.4-1.5c0-1.2-0.5-1.9-1.6-1.9H342.2z"/>
				<path fill="#FFFFFF" d="M357.1,300.8v9c0,1.6-0.4,2.9-1.1,3.8s-1.8,1.3-3.2,1.3c-1.4,0-2.4-0.4-3.1-1.3
					c-0.7-0.9-1.1-2.1-1.1-3.8v-8.9h2.6v9.1c0,1.8,0.6,2.6,1.8,2.6c0.5,0,1-0.2,1.3-0.7s0.4-1.1,0.4-1.9v-9.2H357.1z"/>
				<path fill="#FFFFFF" d="M358.5,300.8h3.5c1.4,0,2.5,0.3,3.1,0.8c0.7,0.6,1,1.4,1,2.7c0,0.8-0.2,1.5-0.5,2
					c-0.3,0.5-0.8,0.9-1.4,1v0.1c0.8,0.2,1.3,0.6,1.7,1.1c0.3,0.5,0.5,1.2,0.5,2.1c0,1.3-0.3,2.2-1,3c-0.7,0.7-1.6,1.1-2.8,1.1h-4.2
					V300.8z M360.9,306.4h1.2c0.5,0,0.9-0.1,1.1-0.4c0.2-0.3,0.3-0.7,0.3-1.3c0-0.6-0.1-1-0.4-1.2c-0.3-0.2-0.7-0.4-1.2-0.4h-1.1
					V306.4z M360.9,308.6v3.9h1.3c0.5,0,0.9-0.2,1.2-0.5c0.3-0.3,0.4-0.8,0.4-1.5c0-1.2-0.5-1.9-1.6-1.9H360.9z"/>
			</g>
			<g enable-background="new    ">
				<path fill="#FFFFFF" d="M366.9,300.8h3.5c1.4,0,2.5,0.3,3.1,0.8c0.7,0.6,1,1.4,1,2.7c0,0.8-0.2,1.5-0.5,2s-0.8,0.9-1.4,1v0.1
					c0.8,0.2,1.3,0.6,1.7,1.1c0.3,0.5,0.5,1.2,0.5,2.1c0,1.3-0.3,2.2-1,3c-0.7,0.7-1.6,1.1-2.8,1.1h-4.2V300.8z M369.3,306.4h1.2
					c0.5,0,0.9-0.1,1.1-0.4s0.3-0.7,0.3-1.3c0-0.6-0.1-1-0.4-1.2c-0.3-0.2-0.7-0.4-1.2-0.4h-1.1V306.4z M369.3,308.6v3.9h1.3
					c0.5,0,0.9-0.2,1.2-0.5c0.3-0.3,0.4-0.8,0.4-1.5c0-1.2-0.5-1.9-1.6-1.9H369.3z"/>
			</g>
			<g enable-background="new    ">
				<path fill="#FFFFFF" d="M382.1,314.7l-0.8-3.5h-3.6l-0.8,3.5h-2.6l3.4-13.9h3.5l3.4,13.9H382.1z M380.8,308.9l-0.7-3.2
					c0-0.2-0.1-0.7-0.3-1.5c-0.2-0.8-0.2-1.3-0.3-1.6c-0.1,0.5-0.2,1.1-0.3,1.8s-0.5,2.1-1,4.5H380.8z"/>
			</g>
			<g enable-background="new    ">
				<path fill="#FFFFFF" d="M348.1,323.5h4.2v7.1c-1.2,0.5-2.5,0.8-3.8,0.8c-1.6,0-2.8-0.6-3.7-1.8c-0.9-1.2-1.3-3-1.3-5.3
					c0-2.2,0.5-4,1.5-5.2c1-1.3,2.4-1.9,4.2-1.9c1.1,0,2.2,0.3,3.2,0.9l-0.8,2.1c-0.8-0.5-1.5-0.7-2.2-0.7c-1,0-1.8,0.4-2.3,1.3
					c-0.6,0.9-0.9,2.1-0.9,3.6c0,1.6,0.2,2.7,0.6,3.6c0.4,0.8,1,1.2,1.8,1.2c0.4,0,0.8-0.1,1.3-0.2v-3.2h-1.7V323.5z"/>
				<path fill="#FFFFFF" d="M362,317.3v9c0,1.6-0.4,2.9-1.1,3.8c-0.7,0.9-1.8,1.3-3.2,1.3c-1.4,0-2.4-0.4-3.1-1.3s-1.1-2.1-1.1-3.8
					v-8.9h2.6v9.1c0,1.8,0.6,2.6,1.8,2.6c0.5,0,1-0.2,1.3-0.7s0.4-1.1,0.4-1.9v-9.2H362z"/>
				<path fill="#FFFFFF" d="M368.3,331.2l-2.6-11.8h-0.1c0.1,0.9,0.2,1.7,0.2,2.5v9.3h-2.4v-13.8h4l2.4,10.9h0.1l2.3-10.9h4v13.8
					h-2.4v-9.4c0-0.8,0-1.6,0.1-2.4h-0.1l-2.6,11.8H368.3z"/>
			</g>
			<g enable-background="new    ">
				<path fill="#FFFFFF" d="M384.7,321.6c0,1.5-0.4,2.6-1.1,3.4s-1.8,1.2-3.2,1.2h-0.6v5h-2.6v-13.8h3.5
					C383.3,317.3,384.7,318.8,384.7,321.6z M379.7,323.9h0.5c0.6,0,1.1-0.2,1.4-0.5c0.3-0.3,0.5-0.9,0.5-1.7c0-0.7-0.1-1.3-0.4-1.6
					s-0.7-0.5-1.3-0.5h-0.6V323.9z"/>
			</g>
			<g enable-background="new    ">
				<path fill="#FFFFFF" d="M310.1,347.7v-13.8h2.4v13.8H310.1z"/>
				<path fill="#FFFFFF" d="M324.1,347.7H321l-4.3-10h-0.1c0.2,0.8,0.2,1.6,0.2,2.5v7.6h-2.4v-13.8h3.2l4.2,9.9h0.1
					c-0.1-0.7-0.2-1.5-0.2-2.4v-7.6h2.4V347.7z"/>
				<path fill="#FFFFFF" d="M331.9,343.9c0,1.3-0.3,2.3-1,3c-0.7,0.7-1.6,1-2.8,1c-1.2,0-2.2-0.2-3.1-0.7v-2.5c1,0.7,2,1,2.9,1
					c0.5,0,0.9-0.1,1.1-0.4s0.4-0.6,0.4-1.1c0-0.5-0.1-0.9-0.4-1.3c-0.3-0.4-0.8-0.8-1.5-1.3c-0.6-0.4-1-0.8-1.3-1.2
					c-0.3-0.4-0.5-0.8-0.7-1.3c-0.2-0.5-0.3-1-0.3-1.6c0-1.2,0.3-2.1,1-2.8c0.7-0.7,1.5-1,2.7-1c1.1,0,2.1,0.3,3.1,0.9l-0.9,2.1
					c-0.3-0.2-0.6-0.3-1-0.5c-0.3-0.1-0.7-0.2-1.1-0.2c-0.4,0-0.7,0.1-1,0.4s-0.3,0.6-0.3,1.1c0,0.5,0.1,0.9,0.4,1.2
					c0.3,0.3,0.7,0.7,1.4,1.2c0.9,0.6,1.5,1.2,1.9,1.9C331.7,342.3,331.9,343,331.9,343.9z"/>
				<path fill="#FFFFFF" d="M341.1,333.8v9c0,1.6-0.4,2.9-1.1,3.8s-1.8,1.3-3.2,1.3c-1.4,0-2.4-0.4-3.1-1.3
					c-0.7-0.9-1.1-2.1-1.1-3.8v-8.9h2.6v9.1c0,1.8,0.6,2.6,1.8,2.6c0.5,0,1-0.2,1.3-0.7s0.4-1.1,0.4-1.9v-9.2H341.1z"/>
			</g>
			<g enable-background="new    ">
				<path fill="#FFFFFF" d="M344.5,342.3v5.4h-2.6v-13.8h3.4c1.4,0,2.5,0.3,3.2,1s1,1.7,1,3.1c0,1.7-0.6,3-1.8,3.7l2.7,6.1h-2.8
					l-2.2-5.4H344.5z M344.5,340.1h0.7c0.6,0,1-0.2,1.3-0.5c0.3-0.3,0.4-0.9,0.4-1.5c0-0.7-0.1-1.2-0.4-1.5
					c-0.3-0.3-0.7-0.5-1.3-0.5h-0.6V340.1z"/>
				<path fill="#FFFFFF" d="M357.1,347.7l-0.8-3.5h-3.6l-0.8,3.5h-2.6l3.4-13.9h3.5l3.4,13.9H357.1z M355.9,341.9l-0.7-3.2
					c0-0.2-0.1-0.7-0.3-1.5c-0.2-0.8-0.2-1.3-0.3-1.6c-0.1,0.5-0.2,1.1-0.3,1.8s-0.5,2.1-1,4.5H355.9z"/>
			</g>
			<g enable-background="new    ">
				<path fill="#FFFFFF" d="M369.3,347.7h-3.1l-4.3-10h-0.1c0.2,0.8,0.2,1.6,0.2,2.5v7.6h-2.4v-13.8h3.2l4.2,9.9h0.1
					c-0.1-0.7-0.2-1.5-0.2-2.4v-7.6h2.4V347.7z"/>
				<path fill="#FFFFFF" d="M375.4,335.9c-0.7,0-1.3,0.4-1.7,1.3c-0.4,0.9-0.6,2.1-0.6,3.6c0,3.2,0.8,4.8,2.5,4.8
					c0.7,0,1.5-0.2,2.3-0.7v2.3c-0.7,0.4-1.5,0.7-2.6,0.7c-1.6,0-2.8-0.6-3.6-1.9c-0.8-1.2-1.3-3-1.3-5.2c0-2.2,0.4-4,1.3-5.3
					c0.9-1.3,2.1-1.9,3.6-1.9c0.5,0,1,0.1,1.5,0.2s1,0.4,1.5,0.7l-0.9,2.1c-0.3-0.2-0.6-0.4-0.9-0.5
					C376.1,336,375.7,335.9,375.4,335.9z"/>
			</g>
			<g enable-background="new    ">
				<path fill="#FFFFFF" d="M384.7,347.7h-6.2v-13.8h6.2v2.2H381v3.3h3.4v2.2H381v3.8h3.7V347.7z"/>
			</g>
		</g>
		<path opacity="0.4" fill="#EC008C" enable-background="new    " d="M477.8,325.1l85.2,6.7l7.5-76.1l-85.3-6.7L477.8,325.1z
			 M589.4,39.4l-80.2-6.3l-7.1,72.4l9,124.8l38,3l33.2-121.5L589.4,39.4z"/>
		<path opacity="0.4" fill="#FF9066" enable-background="new    " d="M262.2,365.3l64.7-2l-2-64.7l-64.7,2L262.2,365.3z
			 M317.6,114.9l-60.9,1.9l1.9,61.6l19.2,104.3l28.9-0.9l12.8-105.2L317.6,114.9z"/>
	</g>

</svg>
