<svg 
	 version="1.1" 
	 xmlns="http://www.w3.org/2000/svg" 
	 xmlns:xlink="http://www.w3.org/1999/xlink"  
	 viewBox="0 0 700 400" 
	 enable-background="new 0 0 700 400" 
	 xml:space="preserve" 
	 preserveAspectRatio="xMidYMid meet" 
	 aria-labelledby="title desc" 
	 role="img">

	<title id="title">Luck is not enough.</title>
	<desc id="desc">Rely on spiritual balance to reach business success is not enough.</desc>
	
<g id="back">
<!-- 	<rect id="blue" fill="#009BDF" width="700" height="400"/> -->
	<rect id="black" y="0" fill="#161616" width="700" height="400"/>
</g>

	<g id="luck">
		<path id="horseshoe" display="inline" fill="#FFF200" d="M571.3,245.3l20,5.5l-4.2,13.9l-15.8-2.4L571.3,245.3L571.3,245.3z
			 M570.7,270.1l18.2,5.5l-7.9,15.2l-14.2-1.8L570.7,270.1z M562.8,298l13.9,9.1l-8.5,14.5l-11.5-8.5L562.8,298z M552.8,319.2
			l10,12.5L547,346.5l-4.2-14.8L552.8,319.2z M538.2,354.3l-15.8,1.8v-14.4l15.8-5V354.3z M513.7,336.8l-2.1,19.4l-22.8-6.7
			l8.5-12.7H513.7z M493.1,330.1l-14.5,11.7l-10.9-14.7l10.9-5.5L493.1,330.1z M477.9,264.7H464l7.9-16.4h12.4L477.9,264.7z
			 M485.8,239.9h-10.3l3-14l14.5,2.4L485.8,239.9z M459.7,286.5l4.2-13.3h11.5v13.3H459.7z M459.7,298h14.4l4.4,14.5l-14.5,3.6
			L459.7,298z M594.9,242.4l-27.9-9.7c0,0-1.6,114.8-60,96.8c-58.7-18.1,4-112.7,4-112.7h-35c0,0-73.5,120.3,26.4,145.4
			C595.1,385.4,594.9,242.4,594.9,242.4"/>
		<g id="quatrefoil" display="inline">
			<path opacity="0.7" fill="#77FF00" d="M143.2,23.3c32.7-6.4,21.2,37.9,21.2,37.9s46.6-7.3,51.7,18.7c5.1,26-91,26.1-91,26.1
				S110.5,29.7,143.2,23.3"/>
			<path opacity="0.7" fill="#77FF00" d="M124.8,104.5c0,0-7-69.6-31.8-64.7c-24.8,4.9-7.5,47.3-7.5,47.3S45,101,48.6,119.5
				C52.3,138,124.8,104.5,124.8,104.5"/>
			<path opacity="0.7" fill="#77FF00" d="M125.1,106c0,0,24.9,88.2-9.5,85.8c-34.4-2.4-24.1-37.6-24.1-37.6s-36.9,14.7-47.9-7.6
				C32.6,124.2,125.1,106,125.1,106"/>
			<path opacity="0.7" fill="#77FF00" d="M213.9,116.8c3.9,21.1-34.6,20.5-34.6,20.5s36.2,29.8-1.2,37.1
				c-37.3,7.4-53.1-68.4-53.1-68.4S208.3,85.8,213.9,116.8"/>
			<polygon opacity="0.7" fill="#77FF00" points="172.3,225.4 124.1,106.8 158,231.4 			"/>
		</g>
		<g id="horn" display="inline">
			<path fill="#EC008C" d="M623.8,156.5l-55.2,22.4c0,0,28.7,24.7,35.1,48.6c6.4,23.9-11.9,45.7-11.9,73.9c0,28.2,32,57.9,32,57.9
				s-1.6-62.9,5.8-75.4c7.3-12.5,20.2-41.2,13.8-69.7C636.8,185.7,623.8,156.5,623.8,156.5"/>
			<polygon fill="#BFD730" points="544.7,164.2 565.5,192 631.6,164.2 625.8,128.6 			"/>
		</g>
		<polygon display="inline" fill="#640C66" points="236.5,89.2 231.9,126.5 295.6,126.5 244.5,258.9 283.5,258.9 342.5,89.2 		"/>
		<g id="rainbo" display="inline">
			<path fill="none" stroke="#EC008C" stroke-width="34.8723" d="M140.2,371.4c0,0-8.1-63.5,28.5-99.1
				c36.6-35.6,86.1-59.1,86.1-59.1"/>
			<path fill="none" stroke="#BFD730" stroke-width="34.8723" d="M116.8,372.3c0,0-1.5-72.6,27.9-104.2C174.1,236.4,249,207,249,207
				"/>
			<path fill="none" stroke="#640C66" stroke-width="34.8723" d="M94.8,369.2c0,0-8.3-56.8,25-97.1c33.3-40.3,119.6-73.9,119.6-73.9
				"/>
			<path fill="#00C0F3" d="M54.3,361.4l34.9,0.8l-17.4-0.4l17.4,0.4c0-0.6,2-58.9,36.2-94.4c36.6-37.9,109.4-67.2,110.1-67.5
				L222.6,168c-3.3,1.3-80.5,32.4-122.3,75.6C56.5,289.1,54.4,358.5,54.3,361.4z"/>
		</g>
		<path id="stars" display="inline" fill="#FFF200" d="M186,180.3l2.5-19.5l-10.6,12.8l-13.2-4.1l7.1,11.4l-7.2,8.6l12-3.4l7.1,13.3
			l1.5-12.7l8.8,0.4L186,180.3z M268,215.4l-8.1-6.7l2.5-19.5L251.8,202l-13.2-4.1l7.1,11.4l-7.2,8.6l12-3.4l7.1,13.3l1.5-12.7
			L268,215.4z M223.8,177.6l3.6-27.6l-15,18.1l-18.6-5.8l10.1,16.1l-10.2,12.2l17-4.8l10.1,18.8l2.1-17.9l12.4,0.5L223.8,177.6z"/>
		<g id="maneki" display="inline">
			<g>
				<path fill="#640C66" d="M265.6,305.1c0,0,31.9,6.5,59.1,4c27.2-2.5,54.4-11.3,54.4-11.3s17.5,8.1,20.8,40.9
					c3.3,32.9-30.7,43.4-61.7,43.7c-31.1,0.3-81.7-7.6-81.9-31.1C256.2,327.9,265.6,305.1,265.6,305.1"/>
				<g>
					<g>
						<g>
							<defs>
								
									<rect id="SVGID_1_" x="264.2" y="249.8" transform="matrix(0.9999 -1.000284e-02 1.000284e-02 0.9999 -2.9491 3.2796)" width="124.4" height="93.3"/>
							</defs>
							<clipPath id="SVGID_2_">
								<use xlink:href="#SVGID_1_"  overflow="visible"/>
							</clipPath>
							<path clip-path="url(#SVGID_2_)" fill="#FFF200" d="M377.5,272.3c1.5-7.3,3-14.9,3-16.5c0-1.9-9.7,1.9-17.3,5.3
								c-10.4-5.7-23.3-9-37.3-8.9c-11.1,0.1-21.4,2.4-30.3,6.3l-22.5-7l0.2,23.7c-5.2,6.7-8.1,14.4-8.1,22.6
								c0.2,24.8,27.8,44.6,61.6,44.3c33.8-0.3,60.9-20.7,60.7-45.5C387.4,287.6,383.7,279.3,377.5,272.3"/>
						</g>
					</g>
				</g>
				<path fill="#009BDF" d="M302.3,287.8c3.3,0,6-2.7,5.9-6.1c0-3.3-2.7-6-6.1-5.9s-6,2.7-5.9,6.1
					C296.3,285.2,299,287.9,302.3,287.8"/>
				<path fill="#009BDF" d="M343.7,287.4c3.3,0,6-2.7,5.9-6.1c0-3.3-2.7-6-6.1-5.9c-3.3,0-6,2.7-5.9,6.1
					C337.6,284.8,340.3,287.5,343.7,287.4"/>
				<polygon fill="#009BDF" points="288.9,300 287.3,303.6 312.2,309.8 285.4,310.1 285.5,313.4 310.2,313.1 287.4,317.6 
					288.3,320.8 318.9,313.4 318.8,310.1 				"/>
				<polygon fill="#009BDF" points="359.3,299.3 361.4,303.2 335.4,309.9 364.8,309.6 364.9,313.6 335.4,313.8 356.6,317.5 
					352.5,322.2 329.2,314.6 329.2,309 				"/>
			</g>
			<polygon fill="#FFF200" points="433.2,278.4 444.7,230.8 396.4,218.7 391.2,268.6 			"/>
			<polygon fill="#FFF200" points="390.4,276 383.4,343.7 414.4,356.6 431.5,285.5 			"/>
			<path fill="#009BDF" d="M403.8,255.8c3.8,0.6,7.6-3,8.5-8.2c0.9-5.2-1.5-9.9-5.3-10.6c-3.8-0.6-7.6,3-8.5,8.2
				S400,255.2,403.8,255.8"/>
			<path fill="#009BDF" d="M417.5,248.5c3.8,0.6,7.6-3,8.5-8.2c0.9-5.2-1.5-9.9-5.3-10.6c-3.8-0.6-7.6,3-8.5,8.2
				C411.3,243.1,413.7,247.8,417.5,248.5"/>
			<path fill="#009BDF" d="M428.4,260.5c3.8,0.6,7.6-3,8.5-8.2c0.9-5.2-1.5-9.9-5.3-10.6c-3.8-0.6-7.6,3-8.5,8.2
				C422.2,255.1,424.6,259.9,428.4,260.5"/>
		</g>
		<g id="crossfinger" display="inline">
			<path id="hand" fill="#BFD730" d="M388.9,144.3c6.8-0.4,7.1-7.4,6.8-14.9c-6.6-0.8-10.7-3.7-14.8-6.6
				C381.6,130.3,377.8,144.9,388.9,144.3 M380.9,189.5c7.2,1,16.2,0,25.1,0c8.7,0,18.1,0.8,25.5,0c11.2-1.3,20.2-9.3,21.3-18.9
				c0.7-6.8,0-14,0-20.6c0-6.8,0.8-14.1,0-20.6c-0.7-5.9-4.5-10.8-8.4-13.6c-12.6-9-38.4-4-61.9-5.3c-0.5-0.1-1.3,1-0.4,1
				c2.1,6.5,7.1,11.4,15.6,12.3c6.3,0.7,29.7-2.5,29.6,3c-0.1,5.9-18,1.7-24.7,3c-0.4,5,0.5,9.1-1.1,12.9c-3.5,8.2-17,9.9-23.9,3.6
				c-3.1,3.7-12.1,5.3-17.5,2.3C358.3,170.4,360.4,186.5,380.9,189.5 M380.9,104.5c2.7,0.2,12.3,0,14.8,0
				C400.3,89.3,376.4,89.2,380.9,104.5 M360,118.8c0,9.4-3.2,25.6,7.2,25.5c10-0.1,7.2-14,7.2-24.2c0-12.1,3.2-29-8.4-27.5
				C356.8,93.8,360,107,360,118.8 M403,104.9c1.2-0.2,6.1-0.7,9.1,0c-1.9-4.8-6.4-10.3-9.5-15.3C402.8,94.6,402.1,100.4,403,104.9
				 M403.7,53.5c-2.3-3.5-8.5-15.6-12.5-17.2c-4.9-2-10.6,0.9-10.6,5.6c0,2.3,2.5,5.7,4.2,8.3c11.8,18.6,24.2,36.9,36.1,54.4
				c6.9-0.3,13.5,0.9,18.6,1.7C428,89.8,415.6,71.1,403.7,53.5 M416.6,27.3c-1.3-5.3-11-6.4-13.7-1.3c-1.7,3.1-0.2,9-0.8,13.3
				c4.9,7,9.4,14.4,14.4,21.2C415.1,51.6,418.7,35.8,416.6,27.3 M377.5,90.6c3.5-3.5,12.6-5.5,18.2-2.3c1.4-8.7-1.9-12.5-5.7-18.2
				c-2-3-3.9-6.3-5.7-9c-4-6.2-10.4-12.4-10.6-18.9c-0.3-9.3,11.7-16,22-10.6c-2.1-8,6.7-18.6,19.4-14.3c10.9,3.7,8.4,15.9,8.4,30.5
				c0,8.5-1,17.7,0,22.6c0.5,2.2,2.9,5,4.2,7c4,6,9.2,13.9,13.3,19.9c5.9,8.5,14.6,18.1,17.5,26.5c2.2,6.6,1.1,16.9,1.1,26.2
				c0,7.4,0.6,14.9,0,20.9c-1.3,13.7-12.6,22.7-27.4,24.5c-7,0.9-16.6,0-25.5,0c-17.2,0-31,1.1-40.6-5c-5.8-3.7-10.4-9.1-12.2-15.3
				c-2.9-10.3-0.8-26.9-0.8-39.8v-20.6c0-13.9-2.3-29.4,14.8-28.5C372.2,86.5,374.1,87.9,377.5,90.6"/>
			<polygon opacity="0.7" fill="#EC008C" points="338.8,163.3 441.5,180.1 475.2,60.5 355.6,37.8 			"/>
			<path id="hand_1_" opacity="0.5" fill="#BFD730" d="M388.9,144.3c6.8-0.4,7.1-7.4,6.8-14.9c-6.6-0.8-10.7-3.7-14.8-6.6
				C381.6,130.3,377.8,144.9,388.9,144.3 M380.9,189.5c7.2,1,16.2,0,25.1,0c8.7,0,18.1,0.8,25.5,0c11.2-1.3,20.2-9.3,21.3-18.9
				c0.7-6.8,0-14,0-20.6c0-6.8,0.8-14.1,0-20.6c-0.7-5.9-4.5-10.8-8.4-13.6c-12.6-9-38.4-4-61.9-5.3c-0.5-0.1-1.3,1-0.4,1
				c2.1,6.5,7.1,11.4,15.6,12.3c6.3,0.7,29.7-2.5,29.6,3c-0.1,5.9-18,1.7-24.7,3c-0.4,5,0.5,9.1-1.1,12.9c-3.5,8.2-17,9.9-23.9,3.6
				c-3.1,3.7-12.1,5.3-17.5,2.3C358.3,170.4,360.4,186.5,380.9,189.5 M380.9,104.5c2.7,0.2,12.3,0,14.8,0
				C400.3,89.3,376.4,89.2,380.9,104.5 M360,118.8c0,9.4-3.2,25.6,7.2,25.5c10-0.1,7.2-14,7.2-24.2c0-12.1,3.2-29-8.4-27.5
				C356.8,93.8,360,107,360,118.8 M403,104.9c1.2-0.2,6.1-0.7,9.1,0c-1.9-4.8-6.4-10.3-9.5-15.3C402.8,94.6,402.1,100.4,403,104.9
				 M403.7,53.5c-2.3-3.5-8.5-15.6-12.5-17.2c-4.9-2-10.6,0.9-10.6,5.6c0,2.3,2.5,5.7,4.2,8.3c11.8,18.6,24.2,36.9,36.1,54.4
				c6.9-0.3,13.5,0.9,18.6,1.7C428,89.8,415.6,71.1,403.7,53.5 M416.6,27.3c-1.3-5.3-11-6.4-13.7-1.3c-1.7,3.1-0.2,9-0.8,13.3
				c4.9,7,9.4,14.4,14.4,21.2C415.1,51.6,418.7,35.8,416.6,27.3 M377.5,90.6c3.5-3.5,12.6-5.5,18.2-2.3c1.4-8.7-1.9-12.5-5.7-18.2
				c-2-3-3.9-6.3-5.7-9c-4-6.2-10.4-12.4-10.6-18.9c-0.3-9.3,11.7-16,22-10.6c-2.1-8,6.7-18.6,19.4-14.3c10.9,3.7,8.4,15.9,8.4,30.5
				c0,8.5-1,17.7,0,22.6c0.5,2.2,2.9,5,4.2,7c4,6,9.2,13.9,13.3,19.9c5.9,8.5,14.6,18.1,17.5,26.5c2.2,6.6,1.1,16.9,1.1,26.2
				c0,7.4,0.6,14.9,0,20.9c-1.3,13.7-12.6,22.7-27.4,24.5c-7,0.9-16.6,0-25.5,0c-17.2,0-31,1.1-40.6-5c-5.8-3.7-10.4-9.1-12.2-15.3
				c-2.9-10.3-0.8-26.9-0.8-39.8v-20.6c0-13.9-2.3-29.4,14.8-28.5C372.2,86.5,374.1,87.9,377.5,90.6"/>
		</g>
		<g id="comet" display="inline">
			<path fill="#00C0F3" d="M508.8,154.3l-17.2-27c11.5-7.3,38.8-20.4,50-25.8c37.1-17.6,40.7-18,43-18.2l3.4,31.9
				c1.5-0.2,2.4-0.5,2.5-0.5C583.2,117,524.5,144.3,508.8,154.3z"/>
			<polygon fill="#FFF200" points="484.5,143.4 462.8,152.4 484.5,159.5 484.5,178.6 496.6,161 520.4,170.7 508.5,152.5 
				520.4,143.4 502.5,143.4 484.5,115.1 			"/>
		</g>
		<path id="esclamation3" display="inline" opacity="0.25" fill="#FF0C66" enable-background="new    " d="M293.2,338.5l74.9-12.1
			L356,251.5l-74.9,12.1L293.2,338.5z M319.7,39.2l-70.5,11.4l11.5,71.3l38.1,118.3l33.4-5.4l-1-124.2L319.7,39.2z"/>
		<path id="esclamation2" display="inline" opacity="0.4" fill="#FFFF4B" enable-background="new    " d="M181.6,383.1l50.9-33.4
			L199,298.8l-50.9,33.5L181.6,383.1z M102.7,155.2l-47.9,31.5l31.8,48.4l66.7,74.1l22.7-14.9l-41.6-90.6L102.7,155.2z"/>
		<path id="esclamation1" display="inline" opacity="0.4" fill="#00009A" enable-background="new    " d="M479.2,336.2l68.6,17
			l17-68.6l-68.6-17L479.2,336.2z M611.3,89.6l-64.5-16l-16.2,65.2L520,254l30.6,7.6l44.5-106.8L611.3,89.6z"/>
		<g display="inline" enable-background="new    ">
			<path fill="#FFFFFF" d="M82.1,78.7h4.4V86c-1.2,0.5-2.6,0.8-3.9,0.8c-1.7,0-2.9-0.6-3.8-1.9c-0.9-1.3-1.3-3.1-1.3-5.5
				c0-2.3,0.5-4.1,1.5-5.4c1-1.3,2.5-1.9,4.3-1.9c1.1,0,2.2,0.3,3.3,0.9l-0.8,2.2c-0.8-0.5-1.6-0.7-2.3-0.7c-1,0-1.8,0.5-2.4,1.4
				c-0.6,0.9-0.9,2.1-0.9,3.7c0,1.6,0.2,2.8,0.6,3.7c0.4,0.9,1,1.3,1.9,1.3c0.4,0,0.9-0.1,1.3-0.2V81h-1.8V78.7z"/>
		</g>
		<g display="inline" enable-background="new    ">
			<path fill="#FFFFFF" d="M97.3,79.4c0,2.4-0.4,4.2-1.3,5.4s-2.2,1.9-3.8,1.9c-1.7,0-2.9-0.6-3.8-1.9c-0.9-1.3-1.3-3.1-1.3-5.5
				c0-2.4,0.4-4.2,1.3-5.4s2.2-1.9,3.8-1.9c1.6,0,2.9,0.6,3.8,1.9C96.8,75.2,97.3,77,97.3,79.4z M89.7,79.4c0,1.6,0.2,2.9,0.6,3.7
				c0.4,0.9,1,1.3,1.8,1.3c1.6,0,2.4-1.7,2.4-5c0-3.3-0.8-5-2.4-5c-0.8,0-1.4,0.4-1.8,1.3S89.7,77.8,89.7,79.4z"/>
		</g>
		<g display="inline" enable-background="new    ">
			<path fill="#FFFFFF" d="M108,79.4c0,2.4-0.4,4.2-1.3,5.4c-0.9,1.3-2.2,1.9-3.8,1.9c-1.7,0-2.9-0.6-3.8-1.9
				c-0.9-1.3-1.3-3.1-1.3-5.5c0-2.4,0.4-4.2,1.3-5.4c0.9-1.3,2.2-1.9,3.8-1.9c1.6,0,2.9,0.6,3.8,1.9C107.5,75.2,108,77,108,79.4z
				 M100.4,79.4c0,1.6,0.2,2.9,0.6,3.7c0.4,0.9,1,1.3,1.8,1.3c1.6,0,2.4-1.7,2.4-5c0-3.3-0.8-5-2.4-5c-0.8,0-1.4,0.4-1.8,1.3
				S100.4,77.8,100.4,79.4z"/>
		</g>
		<g display="inline" enable-background="new    ">
			<path fill="#FFFFFF" d="M118,79.3c0,2.4-0.5,4.2-1.4,5.4c-1,1.2-2.3,1.9-4.1,1.9h-3.5V72.3h3.8c1.7,0,3,0.6,3.9,1.8
				C117.5,75.4,118,77.1,118,79.3z M115.2,79.4c0-3.2-0.9-4.8-2.6-4.8h-1.1v9.7h0.9c1,0,1.7-0.4,2.1-1.2S115.2,81,115.2,79.4z"/>
		</g>
		<g display="inline" enable-background="new    ">
			<path fill="#FFFFFF" d="M122.8,86.6V72.3h2.7v12h3.7v2.3H122.8z"/>
			<path fill="#FFFFFF" d="M138.6,72.3v9.2c0,1.7-0.4,3-1.2,3.9c-0.8,0.9-1.9,1.3-3.3,1.3c-1.4,0-2.5-0.4-3.2-1.3s-1.1-2.2-1.1-3.9
				v-9.2h2.6v9.4c0,1.8,0.6,2.7,1.8,2.7c0.6,0,1-0.2,1.3-0.7c0.3-0.5,0.5-1.1,0.5-2v-9.5H138.6z"/>
			<path fill="#FFFFFF" d="M144.8,74.4c-0.8,0-1.4,0.4-1.8,1.3c-0.4,0.9-0.7,2.1-0.7,3.7c0,3.3,0.9,5,2.6,5c0.8,0,1.5-0.2,2.4-0.7
				v2.4c-0.7,0.5-1.6,0.7-2.7,0.7c-1.6,0-2.8-0.6-3.7-1.9s-1.3-3.1-1.3-5.4c0-2.3,0.4-4.1,1.3-5.4c0.9-1.3,2.1-1.9,3.7-1.9
				c0.5,0,1,0.1,1.5,0.2c0.5,0.1,1,0.4,1.5,0.8l-0.9,2.2c-0.3-0.2-0.6-0.4-0.9-0.6S145.2,74.4,144.8,74.4z"/>
		</g>
		<g display="inline" enable-background="new    ">
			<path fill="#FFFFFF" d="M156.5,86.6h-2.8l-2.3-6.1l-1.1,1.1v5h-2.7V72.3h2.7v7.1l0.9-2.1l2.4-4.9h2.8l-3.3,6.2L156.5,86.6z"/>
		</g>
		<g display="inline" enable-background="new    ">
			<path fill="#FFFFFF" d="M525.2,225.7l-2.7-12.2h-0.1c0.1,0.9,0.2,1.8,0.2,2.6v9.6h-2.5v-14.3h4.1l2.4,11.2h0.1l2.4-11.2h4.1v14.3
				h-2.5v-9.7c0-0.8,0-1.6,0.1-2.5h-0.1l-2.7,12.1H525.2z"/>
		</g>
		<g display="inline" enable-background="new    ">
			<path fill="#FFFFFF" d="M541.3,225.7l-0.8-3.6h-3.7l-0.8,3.6h-2.7l3.5-14.3h3.6l3.5,14.3H541.3z M540,219.8l-0.8-3.3
				c0-0.2-0.1-0.7-0.3-1.5s-0.3-1.4-0.3-1.6c-0.1,0.6-0.2,1.2-0.3,1.9s-0.5,2.2-1,4.6H540z"/>
		</g>
		<g display="inline" enable-background="new    ">
			<path fill="#FFFFFF" d="M553,225.7h-2.8l-2.3-6.1l-1.1,1.1v5h-2.7v-14.3h2.7v7.1l0.9-2.1l2.4-4.9h2.8l-3.3,6.2L553,225.7z"/>
			<path fill="#FFFFFF" d="M559.7,225.7h-6.4v-14.3h6.4v2.3h-3.8v3.4h3.5v2.3h-3.5v4h3.8V225.7z"/>
		</g>
		<g display="inline" enable-background="new    ">
			<path fill="#FFFFFF" d="M571.1,225.7l-0.8-3.6h-3.7l-0.8,3.6h-2.7l3.5-14.3h3.6l3.5,14.3H571.1z M569.8,219.8l-0.8-3.3
				c0-0.2-0.1-0.7-0.3-1.5s-0.3-1.4-0.3-1.6c-0.1,0.6-0.2,1.2-0.3,1.9s-0.5,2.2-1,4.6H569.8z"/>
			<path fill="#FFFFFF" d="M589.8,225.7h-3.3l-1.4-7.5c-0.2-1-0.4-2.2-0.5-3.6l-0.1,0.7l-0.4,2.9l-1.4,7.4h-3.3l-2.6-14.3h2.6
				l1.3,8.1c0.1,0.8,0.3,2.1,0.5,3.8c0.2-1.7,0.3-3,0.5-3.7l1.5-8.1h2.8l1.5,8.1c0.2,1.2,0.4,2.5,0.5,3.8c0.2-1.9,0.4-3.2,0.5-3.8
				l1.2-8.1h2.6L589.8,225.7z"/>
		</g>
		<g display="inline" enable-background="new    ">
			<path fill="#FFFFFF" d="M592.5,225.7v-14.3h2.5v14.3H592.5z"/>
		</g>
		<g display="inline" enable-background="new    ">
			<path fill="#FFFFFF" d="M603.3,221.8c0,1.3-0.3,2.4-1,3.1s-1.6,1.1-2.9,1.1c-1.2,0-2.3-0.2-3.2-0.7v-2.6c1.1,0.7,2,1,2.9,1
				c0.5,0,0.9-0.1,1.1-0.4s0.4-0.7,0.4-1.1c0-0.5-0.2-0.9-0.5-1.3s-0.8-0.8-1.5-1.3c-0.6-0.4-1.1-0.8-1.4-1.2s-0.6-0.8-0.7-1.3
				s-0.3-1-0.3-1.7c0-1.2,0.3-2.2,1-2.9s1.6-1.1,2.7-1.1c1.1,0,2.1,0.3,3.2,0.9l-0.9,2.1c-0.3-0.2-0.6-0.3-1-0.5s-0.7-0.2-1.1-0.2
				c-0.4,0-0.8,0.1-1,0.4s-0.3,0.7-0.3,1.2c0,0.5,0.1,0.9,0.4,1.3s0.8,0.8,1.5,1.2c0.9,0.6,1.6,1.3,1.9,1.9S603.3,221,603.3,221.8z"
				/>
		</g>
		<g display="inline" enable-background="new    ">
			<path fill="#FFFFFF" d="M612.7,225.7H610v-6.3h-3.5v6.3h-2.7v-14.3h2.7v5.7h3.5v-5.7h2.7V225.7z"/>
		</g>
		<g display="inline" enable-background="new    ">
			<path fill="#FFFFFF" d="M250.9,179.3h-2.7V173h-3.5v6.3h-2.7V165h2.7v5.7h3.5V165h2.7V179.3z"/>
		</g>
		<g display="inline" enable-background="new    ">
			<path fill="#FFFFFF" d="M259,179.3l-0.8-3.6h-3.7l-0.8,3.6H251l3.5-14.3h3.6l3.5,14.3H259z M257.7,173.3l-0.8-3.3
				c0-0.2-0.1-0.7-0.3-1.5s-0.3-1.4-0.3-1.6c-0.1,0.6-0.2,1.2-0.3,1.9s-0.5,2.2-1,4.6H257.7z"/>
		</g>
		<g display="inline" enable-background="new    ">
			<path fill="#FFFFFF" d="M267,165h2.7l-3.4,14.3h-3.4l-3.3-14.3h2.7l1.9,8.7c0.2,0.7,0.3,1.8,0.5,3.2c0.1-1.2,0.3-2.2,0.5-3.2
				L267,165z"/>
		</g>
		<g display="inline" enable-background="new    ">
			<path fill="#FFFFFF" d="M276.1,179.3h-6.4V165h6.4v2.3h-3.8v3.4h3.5v2.3h-3.5v4h3.8V179.3z"/>
		</g>
		<g display="inline" enable-background="new    ">
			<path fill="#FFFFFF" d="M283.4,179.3h-2.6V165h6.4v2.3h-3.8v4h3.5v2.3h-3.5V179.3z"/>
		</g>
		<g display="inline" enable-background="new    ">
			<path fill="#FFFFFF" d="M293.4,179.3l-0.8-3.6h-3.7l-0.8,3.6h-2.7l3.5-14.3h3.6l3.5,14.3H293.4z M292.1,173.3l-0.8-3.3
				c0-0.2-0.1-0.7-0.3-1.5s-0.3-1.4-0.3-1.6c-0.1,0.6-0.2,1.2-0.3,1.9s-0.5,2.2-1,4.6H292.1z"/>
		</g>
		<g display="inline" enable-background="new    ">
			<path fill="#FFFFFF" d="M296.6,179.3V165h2.5v14.3H296.6z"/>
			<path fill="#FFFFFF" d="M305.5,179.3h-2.6v-11.9h-2.7V165h8.1v2.3h-2.7V179.3z"/>
			<path fill="#FFFFFF" d="M317.6,179.3H315V173h-3.5v6.3h-2.7V165h2.7v5.7h3.5V165h2.7V179.3z"/>
		</g>
		<g display="inline" enable-background="new    ">
			<path fill="#FFFFFF" d="M318.4,177.9c0-0.5,0.1-0.9,0.4-1.2s0.7-0.4,1.2-0.4s0.9,0.1,1.2,0.4s0.4,0.7,0.4,1.2
				c0,0.5-0.1,0.9-0.4,1.2s-0.7,0.4-1.2,0.4c-0.5,0-0.9-0.1-1.2-0.4S318.4,178.4,318.4,177.9z M321.1,174.7H319l-0.5-9.7h3.1
				L321.1,174.7z"/>
		</g>
		<g display="inline" enable-background="new    ">
			<path fill="#FFFFFF" d="M316.3,367.4h-2.7v-6.3h-3.5v6.3h-2.7v-14.3h2.7v5.7h3.5v-5.7h2.7V367.4z"/>
		</g>
		<g display="inline" enable-background="new    ">
			<path fill="#FFFFFF" d="M327.5,360.2c0,2.4-0.4,4.2-1.3,5.4c-0.9,1.3-2.2,1.9-3.8,1.9c-1.7,0-2.9-0.6-3.8-1.9s-1.3-3.1-1.3-5.5
				c0-2.4,0.4-4.2,1.3-5.4s2.2-1.9,3.8-1.9c1.6,0,2.9,0.6,3.8,1.9S327.5,357.9,327.5,360.2z M319.9,360.2c0,1.6,0.2,2.9,0.6,3.7
				s1,1.3,1.8,1.3c1.6,0,2.4-1.7,2.4-5s-0.8-5-2.4-5c-0.8,0-1.4,0.4-1.8,1.3S319.9,358.6,319.9,360.2z"/>
			<path fill="#FFFFFF" d="M336.3,357.5c0,1.5-0.4,2.7-1.1,3.5c-0.8,0.8-1.9,1.2-3.3,1.2h-0.7v5.2h-2.7v-14.3h3.6
				C335,353.1,336.3,354.6,336.3,357.5z M331.2,359.9h0.5c0.7,0,1.1-0.2,1.5-0.5c0.3-0.4,0.5-0.9,0.5-1.8c0-0.7-0.1-1.3-0.4-1.7
				s-0.7-0.5-1.4-0.5h-0.6V359.9z"/>
		</g>
		<g display="inline" enable-background="new    ">
			<path fill="#FFFFFF" d="M343.2,367.4h-6.4v-14.3h6.4v2.3h-3.8v3.4h3.5v2.3h-3.5v4h3.8V367.4z"/>
		</g>
		<g display="inline" enable-background="new    ">
			<path fill="#FFFFFF" d="M350.5,367.4h-2.6v-14.3h6.4v2.3h-3.8v4h3.5v2.3h-3.5V367.4z"/>
		</g>
		<g display="inline" enable-background="new    ">
			<path fill="#FFFFFF" d="M364.6,360.2c0,2.4-0.4,4.2-1.3,5.4s-2.2,1.9-3.8,1.9c-1.7,0-2.9-0.6-3.8-1.9s-1.3-3.1-1.3-5.5
				c0-2.4,0.4-4.2,1.3-5.4s2.2-1.9,3.8-1.9c1.6,0,2.9,0.6,3.8,1.9S364.6,357.9,364.6,360.2z M357.1,360.2c0,1.6,0.2,2.9,0.6,3.7
				s1,1.3,1.8,1.3c1.6,0,2.4-1.7,2.4-5s-0.8-5-2.4-5c-0.8,0-1.4,0.4-1.8,1.3S357.1,358.6,357.1,360.2z"/>
			<path fill="#FFFFFF" d="M368.4,361.8v5.6h-2.7v-14.3h3.5c1.5,0,2.6,0.3,3.3,1s1,1.8,1,3.2c0,1.8-0.6,3.1-1.8,3.8l2.7,6.3h-2.8
				l-2.3-5.6H368.4z M368.4,359.5h0.7c0.6,0,1.1-0.2,1.3-0.5s0.4-0.9,0.4-1.6c0-0.7-0.1-1.2-0.4-1.6s-0.7-0.5-1.3-0.5h-0.7V359.5z"
				/>
		</g>
		<g display="inline" enable-background="new    ">
			<path fill="#FFFFFF" d="M382.7,367.4H380v-11.9h-2.7v-2.3h8.1v2.3h-2.7V367.4z"/>
			<path fill="#FFFFFF" d="M394.7,367.4h-2.7v-6.3h-3.5v6.3h-2.7v-14.3h2.7v5.7h3.5v-5.7h2.7V367.4z"/>
			<path fill="#FFFFFF" d="M402.7,367.4h-6.4v-14.3h6.4v2.3h-3.8v3.4h3.5v2.3h-3.5v4h3.8V367.4z"/>
		</g>
		<g display="inline" enable-background="new    ">
			<path fill="#FFFFFF" d="M407,353.1h3.6c1.5,0,2.6,0.3,3.2,0.9c0.7,0.6,1,1.5,1,2.7c0,0.8-0.2,1.5-0.5,2.1c-0.4,0.6-0.8,0.9-1.5,1
				v0.1c0.8,0.2,1.4,0.6,1.7,1.1c0.4,0.6,0.5,1.3,0.5,2.2c0,1.3-0.3,2.3-1,3s-1.6,1.1-2.8,1.1H407V353.1z M409.5,358.8h1.2
				c0.6,0,1-0.1,1.2-0.4c0.2-0.3,0.3-0.7,0.3-1.3s-0.1-1-0.4-1.3c-0.3-0.3-0.7-0.4-1.2-0.4h-1.1V358.8z M409.5,361.1v4h1.3
				c0.6,0,1-0.2,1.2-0.5c0.3-0.3,0.4-0.9,0.4-1.6c0-1.3-0.6-1.9-1.7-1.9H409.5z"/>
			<path fill="#FFFFFF" d="M422.6,367.4h-6.4v-14.3h6.4v2.3h-3.8v3.4h3.5v2.3h-3.5v4h3.8V367.4z"/>
		</g>
		<g display="inline" enable-background="new    ">
			<path fill="#FFFFFF" d="M429.5,363.4c0,1.3-0.3,2.4-1,3.1s-1.6,1.1-2.9,1.1c-1.2,0-2.3-0.2-3.2-0.7v-2.6c1.1,0.7,2,1,2.9,1
				c0.5,0,0.9-0.1,1.1-0.4c0.3-0.3,0.4-0.7,0.4-1.1c0-0.5-0.2-0.9-0.5-1.3c-0.3-0.4-0.8-0.8-1.5-1.3c-0.6-0.4-1.1-0.8-1.4-1.2
				c-0.3-0.4-0.6-0.8-0.7-1.3c-0.2-0.5-0.3-1-0.3-1.7c0-1.2,0.3-2.2,1-2.9c0.7-0.7,1.6-1.1,2.7-1.1c1.1,0,2.1,0.3,3.2,0.9l-0.9,2.1
				c-0.3-0.2-0.6-0.3-1-0.5s-0.7-0.2-1.1-0.2c-0.4,0-0.8,0.1-1,0.4c-0.2,0.3-0.3,0.7-0.3,1.2c0,0.5,0.1,0.9,0.4,1.3
				c0.3,0.4,0.8,0.8,1.4,1.2c0.9,0.6,1.6,1.3,1.9,1.9C429.4,361.9,429.5,362.6,429.5,363.4z"/>
		</g>
		<g display="inline" enable-background="new    ">
			<path fill="#FFFFFF" d="M434.5,367.4h-2.6v-11.9h-2.7v-2.3h8.1v2.3h-2.7V367.4z"/>
		</g>
		<g id="FINGER-CROSSED" display="inline">
			<g enable-background="new    ">
				<path fill="#FFFFFF" d="M321.3,61h-2.6V46.7h6.4V49h-3.8v4h3.5v2.3h-3.5V61z"/>
				<path fill="#FFFFFF" d="M326.4,61V46.7h2.5V61H326.4z"/>
				<path fill="#FFFFFF" d="M340.9,61h-3.2l-4.4-10.3h-0.1c0.2,0.8,0.2,1.6,0.2,2.5V61h-2.5V46.7h3.3l4.4,10.2h0.1
					c-0.1-0.7-0.2-1.5-0.2-2.4v-7.8h2.4V61z"/>
				<path fill="#FFFFFF" d="M346.7,53.1h4.4v7.3c-1.2,0.5-2.6,0.8-3.9,0.8c-1.7,0-2.9-0.6-3.8-1.9s-1.3-3.1-1.3-5.5
					c0-2.3,0.5-4.1,1.5-5.4s2.5-1.9,4.3-1.9c1.1,0,2.2,0.3,3.3,0.9l-0.8,2.2c-0.8-0.5-1.6-0.7-2.3-0.7c-1,0-1.8,0.5-2.4,1.4
					s-0.9,2.1-0.9,3.7c0,1.6,0.2,2.8,0.6,3.7s1,1.3,1.9,1.3c0.4,0,0.9-0.1,1.3-0.2v-3.3h-1.8V53.1z"/>
			</g>
			<g enable-background="new    ">
				<path fill="#FFFFFF" d="M358,61h-6.4V46.7h6.4V49h-3.8v3.4h3.5v2.3h-3.5v4h3.8V61z"/>
			</g>
			<g enable-background="new    ">
				<path fill="#FFFFFF" d="M361.5,55.5V61h-2.7V46.7h3.5c1.5,0,2.6,0.3,3.3,1c0.7,0.7,1,1.8,1,3.2c0,1.8-0.6,3.1-1.8,3.8l2.7,6.3
					h-2.8l-2.3-5.6H361.5z M361.5,53.2h0.7c0.6,0,1.1-0.2,1.3-0.5s0.4-0.9,0.4-1.6c0-0.7-0.1-1.2-0.4-1.6c-0.3-0.3-0.7-0.5-1.3-0.5
					h-0.7V53.2z"/>
			</g>
			<g enable-background="new    ">
				<path fill="#FFFFFF" d="M312.8,67c-0.8,0-1.4,0.4-1.8,1.3s-0.7,2.1-0.7,3.7c0,3.3,0.9,5,2.6,5c0.8,0,1.5-0.2,2.4-0.7v2.4
					c-0.7,0.5-1.6,0.7-2.7,0.7c-1.6,0-2.8-0.6-3.7-1.9s-1.3-3.1-1.3-5.4s0.4-4.1,1.3-5.4s2.1-1.9,3.7-1.9c0.5,0,1,0.1,1.5,0.2
					s1,0.4,1.5,0.8l-0.9,2.2c-0.3-0.2-0.6-0.4-0.9-0.6S313.2,67,312.8,67z"/>
			</g>
			<g enable-background="new    ">
				<path fill="#FFFFFF" d="M318.8,73.6v5.6h-2.7V64.9h3.5c1.5,0,2.6,0.3,3.3,1s1,1.8,1,3.2c0,1.8-0.6,3.1-1.8,3.8l2.7,6.3H322
					l-2.3-5.6H318.8z M318.8,71.3h0.7c0.6,0,1.1-0.2,1.3-0.5s0.4-0.9,0.4-1.6c0-0.7-0.1-1.2-0.4-1.6s-0.7-0.5-1.3-0.5h-0.7V71.3z"/>
				<path fill="#FFFFFF" d="M334.9,72c0,2.4-0.4,4.2-1.3,5.4s-2.2,1.9-3.8,1.9c-1.7,0-2.9-0.6-3.8-1.9s-1.3-3.1-1.3-5.5
					c0-2.4,0.4-4.2,1.3-5.4s2.2-1.9,3.8-1.9c1.6,0,2.9,0.6,3.8,1.9S334.9,69.7,334.9,72z M327.4,72c0,1.6,0.2,2.9,0.6,3.7
					s1,1.3,1.8,1.3c1.6,0,2.4-1.7,2.4-5s-0.8-5-2.4-5c-0.8,0-1.4,0.4-1.8,1.3S327.4,70.4,327.4,72z"/>
				<path fill="#FFFFFF" d="M342.5,75.3c0,1.3-0.3,2.4-1,3.1s-1.6,1.1-2.9,1.1c-1.2,0-2.3-0.2-3.2-0.7V76c1.1,0.7,2,1,2.9,1
					c0.5,0,0.9-0.1,1.1-0.4s0.4-0.7,0.4-1.1c0-0.5-0.2-0.9-0.5-1.3s-0.8-0.8-1.5-1.3c-0.6-0.4-1.1-0.8-1.4-1.2s-0.6-0.8-0.7-1.3
					s-0.3-1-0.3-1.7c0-1.2,0.3-2.2,1-2.9s1.6-1.1,2.7-1.1c1.1,0,2.1,0.3,3.2,0.9l-0.9,2.1c-0.3-0.2-0.6-0.3-1-0.5s-0.7-0.2-1.1-0.2
					c-0.4,0-0.8,0.1-1,0.4s-0.3,0.7-0.3,1.2c0,0.5,0.1,0.9,0.4,1.3s0.8,0.8,1.5,1.2c0.9,0.6,1.6,1.3,1.9,1.9S342.5,74.4,342.5,75.3z
					"/>
			</g>
			<g enable-background="new    ">
				<path fill="#FFFFFF" d="M349.2,75.3c0,1.3-0.3,2.4-1,3.1s-1.6,1.1-2.9,1.1c-1.2,0-2.3-0.2-3.2-0.7V76c1.1,0.7,2,1,2.9,1
					c0.5,0,0.9-0.1,1.1-0.4c0.3-0.3,0.4-0.7,0.4-1.1c0-0.5-0.2-0.9-0.5-1.3c-0.3-0.4-0.8-0.8-1.5-1.3c-0.6-0.4-1.1-0.8-1.4-1.2
					c-0.3-0.4-0.6-0.8-0.7-1.3c-0.2-0.5-0.3-1-0.3-1.7c0-1.2,0.3-2.2,1-2.9c0.7-0.7,1.6-1.1,2.7-1.1c1.1,0,2.1,0.3,3.2,0.9l-0.9,2.1
					c-0.3-0.2-0.6-0.3-1-0.5s-0.7-0.2-1.1-0.2c-0.4,0-0.8,0.1-1,0.4c-0.2,0.3-0.3,0.7-0.3,1.2c0,0.5,0.1,0.9,0.4,1.3
					c0.3,0.4,0.8,0.8,1.4,1.2c0.9,0.6,1.6,1.3,1.9,1.9C349,73.7,349.2,74.4,349.2,75.3z"/>
			</g>
			<g enable-background="new    ">
				<path fill="#FFFFFF" d="M356.2,79.2h-6.4V64.9h6.4v2.3h-3.8v3.4h3.5v2.3h-3.5v4h3.8V79.2z"/>
			</g>
			<g enable-background="new    ">
				<path fill="#FFFFFF" d="M366.2,71.9c0,2.4-0.5,4.2-1.4,5.4s-2.3,1.9-4.1,1.9h-3.5V64.9h3.8c1.7,0,3,0.6,3.9,1.8
					S366.2,69.7,366.2,71.9z M363.4,72c0-3.2-0.9-4.8-2.6-4.8h-1.1v9.7h0.9c1,0,1.7-0.4,2.1-1.2S363.4,73.6,363.4,72z"/>
			</g>
		</g>
	</g>

</svg>
