<svg 
	 version="1.1" 
	 xmlns="http://www.w3.org/2000/svg" 
	 xmlns:xlink="http://www.w3.org/1999/xlink"  
	 viewBox="0 0 700 400" 
	 enable-background="new 0 0 700 400" 
	 xml:space="preserve" 
	 preserveAspectRatio="xMidYMid meet" 
	 aria-labelledby="title desc" 
	 role="img">

	<title id="title">How customers get to know you?</title>
	<desc id="desc">Asking this question is the very start of the communication planning.</desc>
	
<g id="back">
<!-- 	<rect id="blue" fill="#009BDF" width="700" height="400"/> -->
	<rect id="black" y="0" fill="#161616" width="700" height="400"/>
</g>


	<g id="how">
		<g id="madlyNeed" display="inline">
			<polygon fill="#78C043" points="134.2,310 131.3,254.2 340.3,242 340.3,301.6 			"/>
			<g enable-background="new    ">
				<path fill="#FFFFFF" d="M165.7,277.2l1.9-5.6h2.8l-3.4,8.6v5.7h-2.6v-5.6l-3.4-8.7h2.8L165.7,277.2z"/>
				<path fill="#FFFFFF" d="M180.2,278.7c0,2.4-0.4,4.2-1.3,5.4s-2.2,1.9-3.8,1.9c-1.7,0-2.9-0.6-3.8-1.9s-1.3-3.1-1.3-5.5
					c0-2.4,0.4-4.2,1.3-5.4s2.2-1.9,3.8-1.9c1.6,0,2.9,0.6,3.8,1.9S180.2,276.3,180.2,278.7z M172.6,278.7c0,1.6,0.2,2.9,0.6,3.7
					s1,1.3,1.8,1.3c1.6,0,2.4-1.7,2.4-5s-0.8-5-2.4-5c-0.8,0-1.4,0.4-1.8,1.3S172.6,277,172.6,278.7z"/>
			</g>
			<g enable-background="new    ">
				<path fill="#FFFFFF" d="M189.9,271.6v9.2c0,1.7-0.4,3-1.2,3.9s-1.9,1.3-3.3,1.3c-1.4,0-2.5-0.4-3.2-1.3s-1.1-2.2-1.1-3.9v-9.2
					h2.6v9.4c0,1.8,0.6,2.7,1.8,2.7c0.6,0,1-0.2,1.3-0.7s0.5-1.1,0.5-2v-9.5H189.9z"/>
				<path fill="#FFFFFF" d="M200.4,285.8l-2.7-12.2h-0.1c0.1,0.9,0.2,1.8,0.2,2.6v9.6h-2.5v-14.3h4.1l2.4,11.2h0.1l2.4-11.2h4.1
					v14.3H206v-9.7c0-0.8,0-1.6,0.1-2.5H206l-2.7,12.1H200.4z"/>
			</g>
			<g enable-background="new    ">
				<path fill="#FFFFFF" d="M216.2,285.8l-0.8-3.6h-3.7l-0.8,3.6h-2.7l3.5-14.3h3.6l3.5,14.3H216.2z M214.9,279.9l-0.8-3.3
					c0-0.2-0.1-0.7-0.3-1.5s-0.3-1.4-0.3-1.6c-0.1,0.6-0.2,1.2-0.3,1.9s-0.5,2.2-1,4.6H214.9z"/>
				<path fill="#FFFFFF" d="M228.2,278.6c0,2.4-0.5,4.2-1.4,5.4s-2.3,1.9-4.1,1.9h-3.5v-14.3h3.8c1.7,0,3,0.6,3.9,1.8
					S228.2,276.3,228.2,278.6z M225.5,278.6c0-3.2-0.9-4.8-2.6-4.8h-1.1v9.7h0.9c1,0,1.7-0.4,2.1-1.2S225.5,280.3,225.5,278.6z"/>
			</g>
			<g enable-background="new    ">
				<path fill="#FFFFFF" d="M228.9,285.8v-14.3h2.7v12h3.7v2.3H228.9z"/>
			</g>
			<g enable-background="new    ">
				<path fill="#FFFFFF" d="M237,277.2l1.9-5.6h2.8l-3.4,8.6v5.7h-2.6v-5.6l-3.4-8.7h2.8L237,277.2z"/>
			</g>
			<g enable-background="new    ">
				<path fill="#FFFFFF" d="M255.7,285.8h-3.2l-4.4-10.3h-0.1c0.2,0.8,0.2,1.6,0.2,2.5v7.8h-2.5v-14.3h3.3l4.4,10.2h0.1
					c-0.1-0.7-0.2-1.5-0.2-2.4v-7.8h2.4V285.8z"/>
				<path fill="#FFFFFF" d="M263.6,285.8h-6.4v-14.3h6.4v2.3h-3.8v3.4h3.5v2.3h-3.5v4h3.8V285.8z"/>
			</g>
			<g enable-background="new    ">
				<path fill="#FFFFFF" d="M270.6,285.8h-6.4v-14.3h6.4v2.3h-3.8v3.4h3.5v2.3h-3.5v4h3.8V285.8z"/>
				<path fill="#FFFFFF" d="M280.7,278.6c0,2.4-0.5,4.2-1.4,5.4s-2.3,1.9-4.1,1.9h-3.5v-14.3h3.8c1.7,0,3,0.6,3.9,1.8
					S280.7,276.3,280.7,278.6z M278,278.6c0-3.2-0.9-4.8-2.6-4.8h-1.1v9.7h0.9c1,0,1.7-0.4,2.1-1.2S278,280.3,278,278.6z"/>
			</g>
			<g enable-background="new    ">
				<path fill="#FFFFFF" d="M294.1,271.6v9.2c0,1.7-0.4,3-1.2,3.9s-1.9,1.3-3.3,1.3c-1.4,0-2.5-0.4-3.2-1.3s-1.1-2.2-1.1-3.9v-9.2
					h2.6v9.4c0,1.8,0.6,2.7,1.8,2.7c0.6,0,1-0.2,1.3-0.7s0.5-1.1,0.5-2v-9.5H294.1z"/>
			</g>
			<g enable-background="new    ">
				<path fill="#FFFFFF" d="M301.7,281.9c0,1.3-0.3,2.4-1,3.1s-1.6,1.1-2.9,1.1c-1.2,0-2.3-0.2-3.2-0.7v-2.6c1.1,0.7,2,1,2.9,1
					c0.5,0,0.9-0.1,1.1-0.4s0.4-0.7,0.4-1.1c0-0.5-0.2-0.9-0.5-1.3s-0.8-0.8-1.5-1.3c-0.6-0.4-1.1-0.8-1.4-1.2s-0.6-0.8-0.7-1.3
					s-0.3-1-0.3-1.7c0-1.2,0.3-2.2,1-2.9s1.6-1.1,2.7-1.1c1.1,0,2.1,0.3,3.2,0.9l-0.9,2.1c-0.3-0.2-0.6-0.3-1-0.5s-0.7-0.2-1.1-0.2
					c-0.4,0-0.8,0.1-1,0.4s-0.3,0.7-0.3,1.2c0,0.5,0.1,0.9,0.4,1.3s0.8,0.8,1.5,1.2c0.9,0.6,1.6,1.3,1.9,1.9
					S301.7,281.1,301.7,281.9z"/>
			</g>
			<g enable-background="new    ">
				<path fill="#FFFFFF" d="M302.1,284.5c0-0.5,0.1-0.9,0.4-1.2s0.7-0.4,1.2-0.4s0.9,0.1,1.2,0.4s0.4,0.7,0.4,1.2
					c0,0.5-0.1,0.9-0.4,1.2s-0.7,0.4-1.2,0.4c-0.5,0-0.9-0.1-1.2-0.4S302.1,285,302.1,284.5z M304.8,281.2h-2.1l-0.5-9.7h3.1
					L304.8,281.2z"/>
			</g>
		</g>
		<g id="potential" display="inline">
			<polygon opacity="0.8" fill="#00C0F3" points="321.6,256.4 307,355.9 622.9,375.4 625.7,271.9 			"/>
			<g>
				<g enable-background="new    ">
					<path fill="#FFFFFF" d="M358.8,295c0,1.5-0.4,2.7-1.1,3.5c-0.8,0.8-1.9,1.2-3.3,1.2h-0.7v5.2H351v-14.3h3.6
						C357.4,290.6,358.8,292,358.8,295z M353.7,297.4h0.5c0.7,0,1.1-0.2,1.5-0.5c0.3-0.4,0.5-0.9,0.5-1.8c0-0.7-0.1-1.3-0.4-1.7
						s-0.7-0.5-1.4-0.5h-0.6V297.4z"/>
				</g>
				<g enable-background="new    ">
					<path fill="#FFFFFF" d="M369.2,297.7c0,2.4-0.4,4.2-1.3,5.4s-2.2,1.9-3.8,1.9c-1.7,0-2.9-0.6-3.8-1.9s-1.3-3.1-1.3-5.5
						c0-2.4,0.4-4.2,1.3-5.4s2.2-1.9,3.8-1.9c1.6,0,2.9,0.6,3.8,1.9S369.2,295.3,369.2,297.7z M361.7,297.7c0,1.6,0.2,2.9,0.6,3.7
						s1,1.3,1.8,1.3c1.6,0,2.4-1.7,2.4-5s-0.8-5-2.4-5c-0.8,0-1.4,0.4-1.8,1.3S361.7,296.1,361.7,297.7z"/>
				</g>
				<g enable-background="new    ">
					<path fill="#FFFFFF" d="M374.5,304.9h-2.6v-11.9h-2.7v-2.3h8.1v2.3h-2.7V304.9z"/>
				</g>
				<g enable-background="new    ">
					<path fill="#FFFFFF" d="M384,304.9h-6.4v-14.3h6.4v2.3h-3.8v3.4h3.5v2.3h-3.5v4h3.8V304.9z"/>
				</g>
				<g enable-background="new    ">
					<path fill="#FFFFFF" d="M394.9,304.9h-3.2l-4.4-10.3h-0.1c0.2,0.8,0.2,1.6,0.2,2.5v7.8h-2.5v-14.3h3.3l4.4,10.2h0.1
						c-0.1-0.7-0.2-1.5-0.2-2.4v-7.8h2.4V304.9z"/>
					<path fill="#FFFFFF" d="M401.1,292.7c-0.8,0-1.4,0.4-1.8,1.3s-0.7,2.1-0.7,3.7c0,3.3,0.9,5,2.6,5c0.8,0,1.5-0.2,2.4-0.7v2.4
						c-0.7,0.5-1.6,0.7-2.7,0.7c-1.6,0-2.8-0.6-3.7-1.9c-0.9-1.3-1.3-3.1-1.3-5.4s0.4-4.1,1.3-5.4s2.1-1.9,3.7-1.9
						c0.5,0,1,0.1,1.5,0.2s1,0.4,1.5,0.8l-0.9,2.2c-0.3-0.2-0.6-0.4-0.9-0.6S401.5,292.7,401.1,292.7z"/>
					<path fill="#FFFFFF" d="M405.1,304.9v-14.3h2.5v14.3H405.1z"/>
					<path fill="#FFFFFF" d="M416.4,304.9l-0.8-3.6h-3.7l-0.8,3.6h-2.7l3.5-14.3h3.6l3.5,14.3H416.4z M415.1,298.9l-0.8-3.3
						c0-0.2-0.1-0.7-0.3-1.5c-0.2-0.8-0.3-1.4-0.3-1.6c-0.1,0.6-0.2,1.2-0.3,1.9c-0.1,0.7-0.5,2.2-1,4.6H415.1z"/>
				</g>
				<g enable-background="new    ">
					<path fill="#FFFFFF" d="M418.6,304.9v-14.3h2.7v12h3.7v2.3H418.6z"/>
				</g>
				<g enable-background="new    ">
					<path fill="#FFFFFF" d="M432,304.9h-2.6v-14.3h6.4v2.3H432v4h3.5v2.3H432V304.9z"/>
					<path fill="#FFFFFF" d="M437.1,304.9v-14.3h2.5v14.3H437.1z"/>
					<path fill="#FFFFFF" d="M451.6,304.9h-3.2l-4.4-10.3h-0.1c0.2,0.8,0.2,1.6,0.2,2.5v7.8h-2.5v-14.3h3.3l4.4,10.2h0.1
						c-0.1-0.7-0.2-1.5-0.2-2.4v-7.8h2.4V304.9z"/>
					<path fill="#FFFFFF" d="M459.9,304.9l-0.8-3.6h-3.7l-0.8,3.6h-2.7l3.5-14.3h3.6l3.5,14.3H459.9z M458.5,298.9l-0.8-3.3
						c0-0.2-0.1-0.7-0.3-1.5c-0.2-0.8-0.3-1.4-0.3-1.6c-0.1,0.6-0.2,1.2-0.3,1.9c-0.1,0.7-0.5,2.2-1,4.6H458.5z"/>
					<path fill="#FFFFFF" d="M472.8,304.9h-3.2l-4.4-10.3H465c0.2,0.8,0.2,1.6,0.2,2.5v7.8h-2.5v-14.3h3.3l4.4,10.2h0.1
						c-0.1-0.7-0.2-1.5-0.2-2.4v-7.8h2.4V304.9z"/>
					<path fill="#FFFFFF" d="M479,292.7c-0.8,0-1.4,0.4-1.8,1.3s-0.7,2.1-0.7,3.7c0,3.3,0.9,5,2.6,5c0.8,0,1.5-0.2,2.4-0.7v2.4
						c-0.7,0.5-1.6,0.7-2.7,0.7c-1.6,0-2.8-0.6-3.7-1.9c-0.9-1.3-1.3-3.1-1.3-5.4s0.4-4.1,1.3-5.4s2.1-1.9,3.7-1.9
						c0.5,0,1,0.1,1.5,0.2s1,0.4,1.5,0.8l-0.9,2.2c-0.3-0.2-0.6-0.4-0.9-0.6S479.4,292.7,479,292.7z"/>
					<path fill="#FFFFFF" d="M483,304.9v-14.3h2.5v14.3H483z"/>
				</g>
				<g enable-background="new    ">
					<path fill="#FFFFFF" d="M492.9,304.9l-0.8-3.6h-3.7l-0.8,3.6h-2.7l3.5-14.3h3.6l3.5,14.3H492.9z M491.6,298.9l-0.8-3.3
						c0-0.2-0.1-0.7-0.3-1.5s-0.3-1.4-0.3-1.6c-0.1,0.6-0.2,1.2-0.3,1.9s-0.5,2.2-1,4.6H491.6z"/>
					<path fill="#FFFFFF" d="M495.8,304.9v-14.3h2.7v12h3.7v2.3H495.8z"/>
				</g>
				<g enable-background="new    ">
					<path fill="#FFFFFF" d="M506.2,290.6h3.6c1.5,0,2.6,0.3,3.2,0.9s1,1.5,1,2.7c0,0.8-0.2,1.5-0.5,2.1s-0.8,0.9-1.5,1v0.1
						c0.8,0.2,1.4,0.6,1.7,1.1s0.5,1.3,0.5,2.2c0,1.3-0.3,2.3-1,3s-1.6,1.1-2.8,1.1h-4.3V290.6z M508.7,296.3h1.2
						c0.6,0,1-0.1,1.2-0.4s0.3-0.7,0.3-1.3s-0.1-1-0.4-1.3s-0.7-0.4-1.2-0.4h-1.1V296.3z M508.7,298.5v4h1.3c0.6,0,1-0.2,1.2-0.5
						s0.4-0.9,0.4-1.6c0-1.3-0.6-1.9-1.7-1.9H508.7z"/>
					<path fill="#FFFFFF" d="M521.8,304.9h-6.4v-14.3h6.4v2.3H518v3.4h3.5v2.3H518v4h3.8V304.9z"/>
				</g>
				<g enable-background="new    ">
					<path fill="#FFFFFF" d="M532.5,304.9h-3.2l-4.4-10.3h-0.1c0.2,0.8,0.2,1.6,0.2,2.5v7.8h-2.5v-14.3h3.3l4.4,10.2h0.1
						c-0.1-0.7-0.2-1.5-0.2-2.4v-7.8h2.4V304.9z"/>
				</g>
				<g enable-background="new    ">
					<path fill="#FFFFFF" d="M540.2,304.9h-6.4v-14.3h6.4v2.3h-3.8v3.4h3.5v2.3h-3.5v4h3.8V304.9z"/>
				</g>
				<g enable-background="new    ">
					<path fill="#FFFFFF" d="M543.8,304.9h-2.6v-14.3h6.4v2.3h-3.8v4h3.5v2.3h-3.5V304.9z"/>
					<path fill="#FFFFFF" d="M548.8,304.9v-14.3h2.5v14.3H548.8z"/>
					<path fill="#FFFFFF" d="M558,292.7c-0.8,0-1.4,0.4-1.8,1.3s-0.7,2.1-0.7,3.7c0,3.3,0.9,5,2.6,5c0.8,0,1.5-0.2,2.4-0.7v2.4
						c-0.7,0.5-1.6,0.7-2.7,0.7c-1.6,0-2.8-0.6-3.7-1.9s-1.3-3.1-1.3-5.4s0.4-4.1,1.3-5.4s2.1-1.9,3.7-1.9c0.5,0,1,0.1,1.5,0.2
						s1,0.4,1.5,0.8l-0.9,2.2c-0.3-0.2-0.6-0.4-0.9-0.6S558.4,292.7,558,292.7z"/>
					<path fill="#FFFFFF" d="M562,304.9v-14.3h2.5v14.3H562z"/>
				</g>
				<g enable-background="new    ">
					<path fill="#FFFFFF" d="M572.6,304.9l-0.8-3.6H568l-0.8,3.6h-2.7l3.5-14.3h3.6l3.5,14.3H572.6z M571.3,298.9l-0.8-3.3
						c0-0.2-0.1-0.7-0.3-1.5s-0.3-1.4-0.3-1.6c-0.1,0.6-0.2,1.2-0.3,1.9s-0.5,2.2-1,4.6H571.3z"/>
				</g>
				<g enable-background="new    ">
					<path fill="#FFFFFF" d="M575.3,304.9v-14.3h2.7v12h3.7v2.3H575.3z"/>
				</g>
				<g enable-background="new    ">
					<path fill="#FFFFFF" d="M378.1,309.7c-0.8,0-1.4,0.4-1.8,1.3s-0.7,2.1-0.7,3.7c0,3.3,0.9,5,2.6,5c0.8,0,1.5-0.2,2.4-0.7v2.4
						c-0.7,0.5-1.6,0.7-2.7,0.7c-1.6,0-2.8-0.6-3.7-1.9s-1.3-3.1-1.3-5.4s0.4-4.1,1.3-5.4s2.1-1.9,3.7-1.9c0.5,0,1,0.1,1.5,0.2
						s1,0.4,1.5,0.8l-0.9,2.2c-0.3-0.2-0.6-0.4-0.9-0.6S378.5,309.7,378.1,309.7z"/>
				</g>
				<g enable-background="new    ">
					<path fill="#FFFFFF" d="M391.2,314.7c0,2.4-0.4,4.2-1.3,5.4s-2.2,1.9-3.8,1.9c-1.7,0-2.9-0.6-3.8-1.9s-1.3-3.1-1.3-5.5
						c0-2.4,0.4-4.2,1.3-5.4s2.2-1.9,3.8-1.9c1.6,0,2.9,0.6,3.8,1.9S391.2,312.3,391.2,314.7z M383.7,314.7c0,1.6,0.2,2.9,0.6,3.7
						s1,1.3,1.8,1.3c1.6,0,2.4-1.7,2.4-5s-0.8-5-2.4-5c-0.8,0-1.4,0.4-1.8,1.3S383.7,313.1,383.7,314.7z"/>
				</g>
				<g enable-background="new    ">
					<path fill="#FFFFFF" d="M402.1,321.9h-3.2l-4.4-10.3h-0.1c0.2,0.8,0.2,1.6,0.2,2.5v7.8h-2.5v-14.3h3.3l4.4,10.2h0.1
						c-0.1-0.7-0.2-1.5-0.2-2.4v-7.8h2.4V321.9z"/>
					<path fill="#FFFFFF" d="M413.6,321.9h-3.2l-4.4-10.3h-0.1c0.2,0.8,0.2,1.6,0.2,2.5v7.8h-2.5v-14.3h3.3l4.4,10.2h0.1
						c-0.1-0.7-0.2-1.5-0.2-2.4v-7.8h2.4V321.9z"/>
					<path fill="#FFFFFF" d="M421.6,321.9h-6.4v-14.3h6.4v2.3h-3.8v3.4h3.5v2.3h-3.5v4h3.8V321.9z"/>
					<path fill="#FFFFFF" d="M427.4,309.7c-0.8,0-1.4,0.4-1.8,1.3s-0.7,2.1-0.7,3.7c0,3.3,0.9,5,2.6,5c0.8,0,1.5-0.2,2.4-0.7v2.4
						c-0.7,0.5-1.6,0.7-2.7,0.7c-1.6,0-2.8-0.6-3.7-1.9s-1.3-3.1-1.3-5.4s0.4-4.1,1.3-5.4s2.1-1.9,3.7-1.9c0.5,0,1,0.1,1.5,0.2
						s1,0.4,1.5,0.8l-0.9,2.2c-0.3-0.2-0.6-0.4-0.9-0.6S427.8,309.7,427.4,309.7z"/>
					<path fill="#FFFFFF" d="M435.3,321.9h-2.6v-11.9h-2.7v-2.3h8.1v2.3h-2.7V321.9z"/>
				</g>
				<g enable-background="new    ">
					<path fill="#FFFFFF" d="M446.1,309.7c-0.8,0-1.4,0.4-1.8,1.3s-0.7,2.1-0.7,3.7c0,3.3,0.9,5,2.6,5c0.8,0,1.5-0.2,2.4-0.7v2.4
						c-0.7,0.5-1.6,0.7-2.7,0.7c-1.6,0-2.8-0.6-3.7-1.9s-1.3-3.1-1.3-5.4s0.4-4.1,1.3-5.4s2.1-1.9,3.7-1.9c0.5,0,1,0.1,1.5,0.2
						s1,0.4,1.5,0.8l-0.9,2.2c-0.3-0.2-0.6-0.4-0.9-0.6S446.5,309.7,446.1,309.7z"/>
				</g>
				<g enable-background="new    ">
					<path fill="#FFFFFF" d="M459.3,314.7c0,2.4-0.4,4.2-1.3,5.4s-2.2,1.9-3.8,1.9c-1.7,0-2.9-0.6-3.8-1.9s-1.3-3.1-1.3-5.5
						c0-2.4,0.4-4.2,1.3-5.4s2.2-1.9,3.8-1.9c1.6,0,2.9,0.6,3.8,1.9S459.3,312.3,459.3,314.7z M451.8,314.7c0,1.6,0.2,2.9,0.6,3.7
						s1,1.3,1.8,1.3c1.6,0,2.4-1.7,2.4-5s-0.8-5-2.4-5c-0.8,0-1.4,0.4-1.8,1.3S451.8,313.1,451.8,314.7z"/>
					<path fill="#FFFFFF" d="M460.4,321.9v-14.3h2.7v12h3.7v2.3H460.4z"/>
					<path fill="#FFFFFF" d="M467.4,321.9v-14.3h2.7v12h3.7v2.3H467.4z"/>
				</g>
				<g enable-background="new    ">
					<path fill="#FFFFFF" d="M480.3,321.9h-6.4v-14.3h6.4v2.3h-3.8v3.4h3.5v2.3h-3.5v4h3.8V321.9z"/>
					<path fill="#FFFFFF" d="M486.1,309.7c-0.8,0-1.4,0.4-1.8,1.3s-0.7,2.1-0.7,3.7c0,3.3,0.9,5,2.6,5c0.8,0,1.5-0.2,2.4-0.7v2.4
						c-0.7,0.5-1.6,0.7-2.7,0.7c-1.6,0-2.8-0.6-3.7-1.9s-1.3-3.1-1.3-5.4s0.4-4.1,1.3-5.4s2.1-1.9,3.7-1.9c0.5,0,1,0.1,1.5,0.2
						s1,0.4,1.5,0.8l-0.9,2.2c-0.3-0.2-0.6-0.4-0.9-0.6S486.5,309.7,486.1,309.7z"/>
					<path fill="#FFFFFF" d="M494,321.9h-2.6v-11.9h-2.7v-2.3h8.1v2.3H494V321.9z"/>
					<path fill="#FFFFFF" d="M503.9,321.9h-2.6v-14.3h6.4v2.3h-3.8v4h3.5v2.3h-3.5V321.9z"/>
					<path fill="#FFFFFF" d="M518.2,314.7c0,2.4-0.4,4.2-1.3,5.4s-2.2,1.9-3.8,1.9c-1.7,0-2.9-0.6-3.8-1.9s-1.3-3.1-1.3-5.5
						c0-2.4,0.4-4.2,1.3-5.4s2.2-1.9,3.8-1.9c1.6,0,2.9,0.6,3.8,1.9S518.2,312.3,518.2,314.7z M510.7,314.7c0,1.6,0.2,2.9,0.6,3.7
						s1,1.3,1.8,1.3c1.6,0,2.4-1.7,2.4-5s-0.8-5-2.4-5c-0.8,0-1.4,0.4-1.8,1.3S510.7,313.1,510.7,314.7z"/>
				</g>
				<g enable-background="new    ">
					<path fill="#FFFFFF" d="M520.9,316.3v5.6h-2.7v-14.3h3.5c1.5,0,2.6,0.3,3.3,1c0.7,0.7,1,1.8,1,3.2c0,1.8-0.6,3.1-1.8,3.8
						l2.7,6.3h-2.8l-2.3-5.6H520.9z M520.9,314h0.7c0.6,0,1.1-0.2,1.3-0.5s0.4-0.9,0.4-1.6c0-0.7-0.1-1.2-0.4-1.6
						c-0.3-0.3-0.7-0.5-1.3-0.5h-0.7V314z"/>
				</g>
				<g enable-background="new    ">
					<path fill="#FFFFFF" d="M531.3,313.9h4.4v7.3c-1.2,0.5-2.6,0.8-3.9,0.8c-1.7,0-2.9-0.6-3.8-1.9s-1.3-3.1-1.3-5.5
						c0-2.3,0.5-4.1,1.5-5.4s2.5-1.9,4.3-1.9c1.1,0,2.2,0.3,3.3,0.9l-0.8,2.2c-0.8-0.5-1.6-0.7-2.3-0.7c-1,0-1.8,0.5-2.4,1.4
						s-0.9,2.1-0.9,3.7c0,1.6,0.2,2.8,0.6,3.7s1,1.3,1.9,1.3c0.4,0,0.9-0.1,1.3-0.2v-3.3h-1.8V313.9z"/>
					<path fill="#FFFFFF" d="M543.3,321.9h-6.4v-14.3h6.4v2.3h-3.8v3.4h3.5v2.3h-3.5v4h3.8V321.9z"/>
				</g>
				<g enable-background="new    ">
					<path fill="#FFFFFF" d="M548.4,321.9h-2.6v-11.9H543v-2.3h8.1v2.3h-2.7V321.9z"/>
				</g>
				<g enable-background="new    ">
					<path fill="#FFFFFF" d="M386.5,333.3v5.6h-2.7v-14.3h3.5c1.5,0,2.6,0.3,3.3,1s1,1.8,1,3.2c0,1.8-0.6,3.1-1.8,3.8l2.7,6.3h-2.8
						l-2.3-5.6H386.5z M386.5,331h0.7c0.6,0,1.1-0.2,1.3-0.5s0.4-0.9,0.4-1.6c0-0.7-0.1-1.2-0.4-1.6s-0.7-0.5-1.3-0.5h-0.7V331z"/>
					<path fill="#FFFFFF" d="M393.3,338.9v-14.3h2.5v14.3H393.3z"/>
					<path fill="#FFFFFF" d="M402.2,330.9h4.4v7.3c-1.2,0.5-2.6,0.8-3.9,0.8c-1.7,0-2.9-0.6-3.8-1.9s-1.3-3.1-1.3-5.5
						c0-2.3,0.5-4.1,1.5-5.4s2.5-1.9,4.3-1.9c1.1,0,2.2,0.3,3.3,0.9l-0.8,2.2c-0.8-0.5-1.6-0.7-2.3-0.7c-1,0-1.8,0.5-2.4,1.4
						s-0.9,2.1-0.9,3.7c0,1.6,0.2,2.8,0.6,3.7s1,1.3,1.9,1.3c0.4,0,0.9-0.1,1.3-0.2v-3.3h-1.8V330.9z"/>
					<path fill="#FFFFFF" d="M416.5,338.9h-2.7v-6.3h-3.5v6.3h-2.7v-14.3h2.7v5.7h3.5v-5.7h2.7V338.9z"/>
					<path fill="#FFFFFF" d="M422.4,338.9h-2.6v-11.9h-2.7v-2.3h8.1v2.3h-2.7V338.9z"/>
					<path fill="#FFFFFF" d="M425.5,337.5c0-0.5,0.1-0.9,0.4-1.2s0.7-0.4,1.2-0.4s0.9,0.1,1.2,0.4s0.4,0.7,0.4,1.2
						c0,0.5-0.1,0.9-0.4,1.2s-0.7,0.4-1.2,0.4c-0.5,0-0.9-0.1-1.2-0.4S425.5,338,425.5,337.5z M428.2,334.3h-2.1l-0.5-9.7h3.1
						L428.2,334.3z"/>
					<path fill="#FFFFFF" d="M431,334.3v-0.7c0-0.6,0.1-1.2,0.3-1.6s0.5-1,1-1.5c0.5-0.5,0.8-0.9,0.9-1.2s0.2-0.7,0.2-1.1
						c0-0.4-0.1-0.8-0.3-1s-0.5-0.4-0.9-0.4c-0.7,0-1.4,0.3-2.2,0.8l-0.9-2c1-0.7,2.2-1,3.4-1c1.1,0,1.9,0.3,2.5,0.9
						s0.9,1.4,0.9,2.5c0,0.7-0.1,1.4-0.3,1.9s-0.7,1.1-1.3,1.9c-0.4,0.5-0.7,0.8-0.8,1.1s-0.2,0.6-0.2,1v0.6H431z M430.5,337.5
						c0-0.5,0.1-0.9,0.4-1.2s0.7-0.4,1.2-0.4c0.5,0,0.9,0.1,1.2,0.4s0.4,0.7,0.4,1.2c0,0.5-0.1,0.9-0.4,1.2s-0.7,0.4-1.2,0.4
						c-0.5,0-0.9-0.1-1.2-0.4S430.5,338,430.5,337.5z"/>
				</g>
				<g enable-background="new    ">
					<path fill="#FFFFFF" d="M449.1,331.7c0,2.4-0.4,4.2-1.3,5.4c-0.9,1.3-2.2,1.9-3.8,1.9c-1.7,0-2.9-0.6-3.8-1.9
						c-0.9-1.3-1.3-3.1-1.3-5.5c0-2.4,0.4-4.2,1.3-5.4c0.9-1.3,2.2-1.9,3.8-1.9c1.6,0,2.9,0.6,3.8,1.9S449.1,329.3,449.1,331.7z
						 M441.5,331.7c0,1.6,0.2,2.9,0.6,3.7s1,1.3,1.8,1.3c1.6,0,2.4-1.7,2.4-5s-0.8-5-2.4-5c-0.8,0-1.4,0.4-1.8,1.3
						S441.5,330.1,441.5,331.7z"/>
				</g>
				<g enable-background="new    ">
					<path fill="#FFFFFF" d="M458.9,338.9H456l-2.3-6.1l-1.1,1.1v5H450v-14.3h2.7v7.1l0.9-2.1l2.4-4.9h2.8l-3.3,6.2L458.9,338.9z"/>
				</g>
				<g enable-background="new    ">
					<path fill="#FFFFFF" d="M461.9,336.8c-0.3,1.3-0.9,2.9-1.7,4.7h-2c0.4-1.7,0.8-3.4,1-4.9h2.6L461.9,336.8z"/>
				</g>
				<g enable-background="new    ">
					<path fill="#FFFFFF" d="M466.9,338.9v-14.3h2.7v12h3.7v2.3H466.9z"/>
				</g>
				<g enable-background="new    ">
					<path fill="#FFFFFF" d="M480.2,338.9h-6.4v-14.3h6.4v2.3h-3.8v3.4h3.5v2.3h-3.5v4h3.8V338.9z"/>
				</g>
				<g enable-background="new    ">
					<path fill="#FFFFFF" d="M485.4,338.9h-2.6v-11.9h-2.7v-2.3h8.1v2.3h-2.7V338.9z"/>
				</g>
				<g enable-background="new    ">
					<path fill="#FFFFFF" d="M491,324.6l0.1,0.2c-0.3,1.3-0.9,2.8-1.7,4.7h-2c0.4-1.7,0.7-3.3,1-4.9H491z"/>
					<path fill="#FFFFFF" d="M498.1,334.9c0,1.3-0.3,2.4-1,3.1s-1.6,1.1-2.9,1.1c-1.2,0-2.3-0.2-3.2-0.7v-2.6c1.1,0.7,2,1,2.9,1
						c0.5,0,0.9-0.1,1.1-0.4c0.3-0.3,0.4-0.7,0.4-1.1c0-0.5-0.2-0.9-0.5-1.3c-0.3-0.4-0.8-0.8-1.5-1.3c-0.6-0.4-1.1-0.8-1.4-1.2
						c-0.3-0.4-0.6-0.8-0.7-1.3c-0.2-0.5-0.3-1-0.3-1.7c0-1.2,0.3-2.2,1-2.9c0.7-0.7,1.6-1.1,2.7-1.1c1.1,0,2.1,0.3,3.2,0.9
						l-0.9,2.1c-0.3-0.2-0.6-0.3-1-0.5s-0.7-0.2-1.1-0.2c-0.4,0-0.8,0.1-1,0.4c-0.2,0.3-0.3,0.7-0.3,1.2c0,0.5,0.1,0.9,0.4,1.3
						c0.3,0.4,0.8,0.8,1.5,1.2c0.9,0.6,1.6,1.3,1.9,1.9C497.9,333.3,498.1,334.1,498.1,334.9z"/>
				</g>
				<g enable-background="new    ">
					<path fill="#FFFFFF" d="M504.9,333.3v5.6h-2.7v-14.3h3.5c1.5,0,2.6,0.3,3.3,1s1,1.8,1,3.2c0,1.8-0.6,3.1-1.8,3.8l2.7,6.3h-2.8
						l-2.3-5.6H504.9z M504.9,331h0.7c0.6,0,1.1-0.2,1.3-0.5s0.4-0.9,0.4-1.6c0-0.7-0.1-1.2-0.4-1.6s-0.7-0.5-1.3-0.5h-0.7V331z"/>
				</g>
				<g enable-background="new    ">
					<path fill="#FFFFFF" d="M519.8,324.6v9.2c0,1.7-0.4,3-1.2,3.9c-0.8,0.9-1.9,1.3-3.3,1.3c-1.4,0-2.5-0.4-3.2-1.3
						s-1.1-2.2-1.1-3.9v-9.2h2.6v9.4c0,1.8,0.6,2.7,1.8,2.7c0.6,0,1-0.2,1.3-0.7c0.3-0.5,0.5-1.1,0.5-2v-9.5H519.8z"/>
					<path fill="#FFFFFF" d="M531.3,338.9H528l-4.4-10.3h-0.1c0.2,0.8,0.2,1.6,0.2,2.5v7.8h-2.5v-14.3h3.3l4.4,10.2h0.1
						c-0.1-0.7-0.2-1.5-0.2-2.4v-7.8h2.4V338.9z"/>
				</g>
				<g enable-background="new    ">
					<path fill="#FFFFFF" d="M536.7,338.9v-14.3h2.5v14.3H536.7z"/>
				</g>
				<g enable-background="new    ">
					<path fill="#FFFFFF" d="M545.4,338.9h-2.6v-11.9H540v-2.3h8.1v2.3h-2.7V338.9z"/>
				</g>
				<g enable-background="new    ">
					<path fill="#FFFFFF" d="M546.1,337.5c0-0.5,0.1-0.9,0.4-1.2s0.7-0.4,1.2-0.4s0.9,0.1,1.2,0.4s0.4,0.7,0.4,1.2
						c0,0.5-0.1,0.9-0.4,1.2s-0.7,0.4-1.2,0.4c-0.5,0-0.9-0.1-1.2-0.4S546.1,338,546.1,337.5z"/>
					<path fill="#FFFFFF" d="M550.5,337.5c0-0.5,0.1-0.9,0.4-1.2s0.7-0.4,1.2-0.4s0.9,0.1,1.2,0.4s0.4,0.7,0.4,1.2
						c0,0.5-0.1,0.9-0.4,1.2s-0.7,0.4-1.2,0.4c-0.5,0-0.9-0.1-1.2-0.4S550.5,338,550.5,337.5z"/>
				</g>
				<g enable-background="new    ">
					<path fill="#FFFFFF" d="M554.5,337.5c0-0.5,0.1-0.9,0.4-1.2c0.3-0.3,0.7-0.4,1.2-0.4c0.5,0,0.9,0.1,1.2,0.4s0.4,0.7,0.4,1.2
						c0,0.5-0.1,0.9-0.4,1.2s-0.7,0.4-1.2,0.4c-0.5,0-0.9-0.1-1.2-0.4S554.5,338,554.5,337.5z"/>
				</g>
			</g>
		</g>
		<g id="awe" display="inline">
			<polygon id="speechbaloon" opacity="0.9" fill="#FFFF00" points="85.1,88.6 221.1,88.6 221.1,233.5 200.7,233.5 173.3,262 
				173.3,233.5 85.1,233.5 			"/>
			<g>
				<g enable-background="new    ">
					<path fill="#009BDF" d="M111.4,126.7l-0.8-3.6h-3.7l-0.8,3.6h-2.7l3.5-14.3h3.6l3.5,14.3H111.4z M110.1,120.8l-0.8-3.3
						c0-0.2-0.1-0.7-0.3-1.5s-0.3-1.4-0.3-1.6c-0.1,0.6-0.2,1.2-0.3,1.9s-0.5,2.2-1,4.6H110.1z"/>
				</g>
				<g enable-background="new    ">
					<path fill="#009BDF" d="M125.5,126.7h-3.3l-1.4-7.5c-0.2-1-0.4-2.2-0.5-3.6l-0.1,0.7l-0.4,2.9l-1.4,7.4h-3.3l-2.6-14.3h2.6
						l1.3,8.1c0.1,0.8,0.3,2.1,0.5,3.8c0.2-1.7,0.3-3,0.5-3.7l1.5-8.1h2.8l1.5,8.1c0.2,1.2,0.4,2.5,0.5,3.8c0.2-1.9,0.4-3.2,0.5-3.8
						l1.2-8.1h2.6L125.5,126.7z"/>
				</g>
				<g enable-background="new    ">
					<path fill="#009BDF" d="M134.8,126.7h-6.4v-14.3h6.4v2.3H131v3.4h3.5v2.3H131v4h3.8V126.7z"/>
				</g>
				<g enable-background="new    ">
					<path fill="#009BDF" d="M142.2,122.8c0,1.3-0.3,2.4-1,3.1s-1.6,1.1-2.9,1.1c-1.2,0-2.3-0.2-3.2-0.7v-2.6c1.1,0.7,2,1,2.9,1
						c0.5,0,0.9-0.1,1.1-0.4s0.4-0.7,0.4-1.1c0-0.5-0.2-0.9-0.5-1.3s-0.8-0.8-1.5-1.3c-0.6-0.4-1.1-0.8-1.4-1.2s-0.6-0.8-0.7-1.3
						s-0.3-1-0.3-1.7c0-1.2,0.3-2.2,1-2.9s1.6-1.1,2.7-1.1c1.1,0,2.1,0.3,3.2,0.9l-0.9,2.1c-0.3-0.2-0.6-0.3-1-0.5s-0.7-0.2-1.1-0.2
						c-0.4,0-0.8,0.1-1,0.4s-0.3,0.7-0.3,1.2c0,0.5,0.1,0.9,0.4,1.3s0.8,0.8,1.5,1.2c0.9,0.6,1.6,1.3,1.9,1.9S142.2,122,142.2,122.8
						z"/>
				</g>
				<g enable-background="new    ">
					<path fill="#009BDF" d="M152.6,119.6c0,2.4-0.4,4.2-1.3,5.4s-2.2,1.9-3.8,1.9c-1.7,0-2.9-0.6-3.8-1.9s-1.3-3.1-1.3-5.5
						c0-2.4,0.4-4.2,1.3-5.4s2.2-1.9,3.8-1.9c1.6,0,2.9,0.6,3.8,1.9S152.6,117.2,152.6,119.6z M145,119.6c0,1.6,0.2,2.9,0.6,3.7
						s1,1.3,1.8,1.3c1.6,0,2.4-1.7,2.4-5s-0.8-5-2.4-5c-0.8,0-1.4,0.4-1.8,1.3S145,117.9,145,119.6z"/>
				</g>
				<g enable-background="new    ">
					<path fill="#009BDF" d="M158.5,126.7l-2.7-12.2h-0.1c0.1,0.9,0.2,1.8,0.2,2.6v9.6h-2.5v-14.3h4.1l2.4,11.2h0.1l2.4-11.2h4.1
						v14.3h-2.5v-9.7c0-0.8,0-1.6,0.1-2.5h-0.1l-2.7,12.1H158.5z"/>
				</g>
				<g enable-background="new    ">
					<path fill="#009BDF" d="M174.4,126.7h-6.4v-14.3h6.4v2.3h-3.8v3.4h3.5v2.3h-3.5v4h3.8V126.7z"/>
				</g>
				<g enable-background="new    ">
					<path fill="#009BDF" d="M175.1,125.4c0-0.5,0.1-0.9,0.4-1.2s0.7-0.4,1.2-0.4s0.9,0.1,1.2,0.4s0.4,0.7,0.4,1.2
						c0,0.5-0.1,0.9-0.4,1.2s-0.7,0.4-1.2,0.4c-0.5,0-0.9-0.1-1.2-0.4S175.1,125.9,175.1,125.4z M177.8,122.1h-2.1l-0.5-9.7h3.1
						L177.8,122.1z"/>
				</g>
				<g enable-background="new    ">
					<path fill="#009BDF" d="M104.7,131.2h3.6c1.5,0,2.6,0.3,3.2,0.9s1,1.5,1,2.7c0,0.8-0.2,1.5-0.5,2.1s-0.8,0.9-1.5,1v0.1
						c0.8,0.2,1.4,0.6,1.7,1.1s0.5,1.3,0.5,2.2c0,1.3-0.3,2.3-1,3s-1.6,1.1-2.8,1.1h-4.3V131.2z M107.2,137h1.2c0.6,0,1-0.1,1.2-0.4
						s0.3-0.7,0.3-1.3s-0.1-1-0.4-1.3s-0.7-0.4-1.2-0.4h-1.1V137z M107.2,139.2v4h1.3c0.6,0,1-0.2,1.2-0.5s0.4-0.9,0.4-1.6
						c0-1.3-0.6-1.9-1.7-1.9H107.2z"/>
				</g>
				<g enable-background="new    ">
					<path fill="#009BDF" d="M122.4,131.2v9.2c0,1.7-0.4,3-1.2,3.9s-1.9,1.3-3.3,1.3c-1.4,0-2.5-0.4-3.2-1.3s-1.1-2.2-1.1-3.9v-9.2
						h2.6v9.4c0,1.8,0.6,2.7,1.8,2.7c0.6,0,1-0.2,1.3-0.7s0.5-1.1,0.5-2v-9.5H122.4z"/>
				</g>
				<g enable-background="new    ">
					<path fill="#009BDF" d="M127.1,136.9l1.9-5.6h2.8l-3.4,8.6v5.7h-2.6v-5.6l-3.4-8.7h2.8L127.1,136.9z"/>
				</g>
				<g enable-background="new    ">
					<path fill="#009BDF" d="M141.5,145.5h-2.6v-8.4c0-0.9,0-2,0.1-3.1c0,0.1-0.2,0.3-0.5,0.6s-0.9,0.9-1.7,1.8l-1.5-1.6l3.8-3.5
						h2.4V145.5z"/>
				</g>
				<g enable-background="new    ">
					<path fill="#009BDF" d="M109,156.4h4.4v7.3c-1.2,0.5-2.6,0.8-3.9,0.8c-1.7,0-2.9-0.6-3.8-1.9s-1.3-3.1-1.3-5.5
						c0-2.3,0.5-4.1,1.5-5.4s2.5-1.9,4.3-1.9c1.1,0,2.2,0.3,3.3,0.9l-0.8,2.2c-0.8-0.5-1.6-0.7-2.3-0.7c-1,0-1.8,0.5-2.4,1.4
						s-0.9,2.1-0.9,3.7c0,1.6,0.2,2.8,0.6,3.7s1,1.3,1.9,1.3c0.4,0,0.9-0.1,1.3-0.2v-3.3H109V156.4z"/>
				</g>
				<g enable-background="new    ">
					<path fill="#009BDF" d="M120.8,164.3h-6.4V150h6.4v2.3H117v3.4h3.5v2.3H117v4h3.8V164.3z"/>
				</g>
				<g enable-background="new    ">
					<path fill="#009BDF" d="M126.1,164.3h-2.6v-11.9h-2.7V150h8.1v2.3h-2.7V164.3z"/>
				</g>
				<g enable-background="new    ">
					<path fill="#009BDF" d="M136.5,155.3c1.1,0,1.9,0.4,2.6,1.1s1,1.8,1,3.1c0,1.6-0.4,2.8-1.2,3.6s-1.9,1.3-3.3,1.3
						c-1.2,0-2.3-0.2-3-0.7v-2.5c0.3,0.2,0.8,0.5,1.3,0.6s1,0.3,1.5,0.3c1.4,0,2.1-0.8,2.1-2.4c0-1.5-0.7-2.3-2-2.3
						c-0.5,0-1.1,0.1-1.7,0.3l-0.9-0.6l0.4-7.2h6.1v2.4h-3.8l-0.2,3.1C135.6,155.4,136,155.3,136.5,155.3z"/>
				</g>
				<g enable-background="new    ">
					<path fill="#009BDF" d="M108.1,174.4l1.9-5.6h2.8l-3.4,8.6v5.7h-2.6v-5.6l-3.4-8.7h2.8L108.1,174.4z"/>
					<path fill="#009BDF" d="M119.5,183h-6.4v-14.3h6.4v2.3h-3.8v3.4h3.5v2.3h-3.5v4h3.8V183z"/>
					<path fill="#009BDF" d="M127.1,179.1c0,1.3-0.3,2.4-1,3.1s-1.6,1.1-2.9,1.1c-1.2,0-2.3-0.2-3.2-0.7v-2.6c1.1,0.7,2,1,2.9,1
						c0.5,0,0.9-0.1,1.1-0.4s0.4-0.7,0.4-1.1c0-0.5-0.2-0.9-0.5-1.3s-0.8-0.8-1.5-1.3c-0.6-0.4-1.1-0.8-1.4-1.2s-0.6-0.8-0.7-1.3
						s-0.3-1-0.3-1.7c0-1.2,0.3-2.2,1-2.9s1.6-1.1,2.7-1.1c1.1,0,2.1,0.3,3.2,0.9l-0.9,2.1c-0.3-0.2-0.6-0.3-1-0.5s-0.7-0.2-1.1-0.2
						c-0.4,0-0.8,0.1-1,0.4s-0.3,0.7-0.3,1.2c0,0.5,0.1,0.9,0.4,1.3s0.8,0.8,1.5,1.2c0.9,0.6,1.6,1.3,1.9,1.9
						S127.1,178.3,127.1,179.1z"/>
					<path fill="#009BDF" d="M130.8,180.9c-0.3,1.3-0.9,2.9-1.7,4.7h-2c0.4-1.7,0.8-3.4,1-4.9h2.6L130.8,180.9z"/>
				</g>
				<g enable-background="new    ">
					<path fill="#009BDF" d="M147,183h-3.3l-1.4-7.5c-0.2-1-0.4-2.2-0.5-3.6l-0.1,0.7l-0.4,2.9L140,183h-3.3l-2.6-14.3h2.6l1.3,8.1
						c0.1,0.8,0.3,2.1,0.5,3.8c0.2-1.7,0.3-3,0.5-3.7l1.5-8.1h2.8l1.5,8.1c0.2,1.2,0.4,2.5,0.5,3.8c0.2-1.9,0.4-3.2,0.5-3.8l1.2-8.1
						h2.6L147,183z"/>
					<path fill="#009BDF" d="M156.5,183H150v-14.3h6.4v2.3h-3.8v3.4h3.5v2.3h-3.5v4h3.8V183z"/>
					<path fill="#009BDF" d="M160.1,168.8l0.1,0.2c-0.3,1.3-0.9,2.8-1.7,4.7h-2c0.4-1.7,0.7-3.3,1-4.9H160.1z"/>
					<path fill="#009BDF" d="M163.3,177.5v5.6h-2.7v-14.3h3.5c1.5,0,2.6,0.3,3.3,1s1,1.8,1,3.2c0,1.8-0.6,3.1-1.8,3.8l2.7,6.3h-2.8
						l-2.3-5.6H163.3z M163.3,175.2h0.7c0.6,0,1.1-0.2,1.3-0.5s0.4-0.9,0.4-1.6c0-0.7-0.1-1.2-0.4-1.6s-0.7-0.5-1.3-0.5h-0.7V175.2z
						"/>
				</g>
				<g enable-background="new    ">
					<path fill="#009BDF" d="M175.3,183h-6.4v-14.3h6.4v2.3h-3.8v3.4h3.5v2.3h-3.5v4h3.8V183z"/>
				</g>
				<g enable-background="new    ">
					<path fill="#009BDF" d="M109,193.9h4.4v7.3c-1.2,0.5-2.6,0.8-3.9,0.8c-1.7,0-2.9-0.6-3.8-1.9s-1.3-3.1-1.3-5.5
						c0-2.3,0.5-4.1,1.5-5.4s2.5-1.9,4.3-1.9c1.1,0,2.2,0.3,3.3,0.9l-0.8,2.2c-0.8-0.5-1.6-0.7-2.3-0.7c-1,0-1.8,0.5-2.4,1.4
						s-0.9,2.1-0.9,3.7c0,1.6,0.2,2.8,0.6,3.7s1,1.3,1.9,1.3c0.4,0,0.9-0.1,1.3-0.2v-3.3H109V193.9z"/>
				</g>
				<g enable-background="new    ">
					<path fill="#009BDF" d="M124.2,194.7c0,2.4-0.4,4.2-1.3,5.4s-2.2,1.9-3.8,1.9c-1.7,0-2.9-0.6-3.8-1.9s-1.3-3.1-1.3-5.5
						c0-2.4,0.4-4.2,1.3-5.4s2.2-1.9,3.8-1.9c1.6,0,2.9,0.6,3.8,1.9S124.2,192.3,124.2,194.7z M116.6,194.7c0,1.6,0.2,2.9,0.6,3.7
						s1,1.3,1.8,1.3c1.6,0,2.4-1.7,2.4-5s-0.8-5-2.4-5c-0.8,0-1.4,0.4-1.8,1.3S116.6,193,116.6,194.7z"/>
					<path fill="#009BDF" d="M125.7,201.8v-14.3h2.5v14.3H125.7z"/>
					<path fill="#009BDF" d="M140.3,201.8H137l-4.4-10.3h-0.1c0.2,0.8,0.2,1.6,0.2,2.5v7.8h-2.5v-14.3h3.3l4.4,10.2h0.1
						c-0.1-0.7-0.2-1.5-0.2-2.4v-7.8h2.4V201.8z"/>
				</g>
				<g enable-background="new    ">
					<path fill="#009BDF" d="M145.5,193.9h4.4v7.3c-1.2,0.5-2.6,0.8-3.9,0.8c-1.7,0-2.9-0.6-3.8-1.9s-1.3-3.1-1.3-5.5
						c0-2.3,0.5-4.1,1.5-5.4s2.5-1.9,4.3-1.9c1.1,0,2.2,0.3,3.3,0.9l-0.8,2.2c-0.8-0.5-1.6-0.7-2.3-0.7c-1,0-1.8,0.5-2.4,1.4
						s-0.9,2.1-0.9,3.7c0,1.6,0.2,2.8,0.6,3.7s1,1.3,1.9,1.3c0.4,0,0.9-0.1,1.3-0.2v-3.3h-1.8V193.9z"/>
				</g>
				<g enable-background="new    ">
					<path fill="#009BDF" d="M159.7,201.8l-2.7-12.2h-0.1c0.1,0.9,0.2,1.8,0.2,2.6v9.6h-2.5v-14.3h4.1l2.4,11.2h0.1l2.4-11.2h4.1
						v14.3h-2.5v-9.7c0-0.8,0-1.6,0.1-2.5h-0.1l-2.7,12.1H159.7z"/>
					<path fill="#009BDF" d="M176,201.8l-0.8-3.6h-3.7l-0.8,3.6H168l3.5-14.3h3.6l3.5,14.3H176z M174.7,195.9l-0.8-3.3
						c0-0.2-0.1-0.7-0.3-1.5s-0.3-1.4-0.3-1.6c-0.1,0.6-0.2,1.2-0.3,1.9s-0.5,2.2-1,4.6H174.7z"/>
				</g>
				<g enable-background="new    ">
					<path fill="#009BDF" d="M187.7,194.5c0,2.4-0.5,4.2-1.4,5.4s-2.3,1.9-4.1,1.9h-3.5v-14.3h3.8c1.7,0,3,0.6,3.9,1.8
						S187.7,192.3,187.7,194.5z M185,194.6c0-3.2-0.9-4.8-2.6-4.8h-1.1v9.7h0.9c1,0,1.7-0.4,2.1-1.2S185,196.2,185,194.6z"/>
				</g>
				<g enable-background="new    ">
					<path fill="#009BDF" d="M188.4,200.5c0-0.5,0.1-0.9,0.4-1.2s0.7-0.4,1.2-0.4s0.9,0.1,1.2,0.4s0.4,0.7,0.4,1.2
						c0,0.5-0.1,0.9-0.4,1.2s-0.7,0.4-1.2,0.4c-0.5,0-0.9-0.1-1.2-0.4S188.4,201,188.4,200.5z M191.1,197.2h-2.1l-0.5-9.7h3.1
						L191.1,197.2z"/>
				</g>
			</g>
		</g>
		<g id="consider" display="inline">
			<polygon fill="#640C66" points="417,77.8 403.8,178.7 513.7,186.7 505.3,247.2 566.8,186.6 619.9,192.5 642.5,77.6 			"/>
			<g>
				<g enable-background="new    ">
					<path fill="#FFFFFF" d="M440,104.6c-0.8,0-1.4,0.4-1.8,1.3s-0.7,2.1-0.7,3.7c0,3.3,0.9,5,2.6,5c0.8,0,1.5-0.2,2.4-0.7v2.4
						c-0.7,0.5-1.6,0.7-2.7,0.7c-1.6,0-2.8-0.6-3.7-1.9s-1.3-3.1-1.3-5.4s0.4-4.1,1.3-5.4s2.1-1.9,3.7-1.9c0.5,0,1,0.1,1.5,0.2
						s1,0.4,1.5,0.8l-0.9,2.2c-0.3-0.2-0.6-0.4-0.9-0.6S440.4,104.6,440,104.6z"/>
				</g>
				<g enable-background="new    ">
					<path fill="#FFFFFF" d="M453.2,109.6c0,2.4-0.4,4.2-1.3,5.4s-2.2,1.9-3.8,1.9c-1.7,0-2.9-0.6-3.8-1.9s-1.3-3.1-1.3-5.5
						c0-2.4,0.4-4.2,1.3-5.4s2.2-1.9,3.8-1.9c1.6,0,2.9,0.6,3.8,1.9S453.2,107.2,453.2,109.6z M445.6,109.6c0,1.6,0.2,2.9,0.6,3.7
						s1,1.3,1.8,1.3c1.6,0,2.4-1.7,2.4-5s-0.8-5-2.4-5c-0.8,0-1.4,0.4-1.8,1.3S445.6,107.9,445.6,109.6z"/>
				</g>
				<g enable-background="new    ">
					<path fill="#FFFFFF" d="M464,116.7h-3.2l-4.4-10.3h-0.1c0.2,0.8,0.2,1.6,0.2,2.5v7.8H454v-14.3h3.3l4.4,10.2h0.1
						c-0.1-0.7-0.2-1.5-0.2-2.4v-7.8h2.4V116.7z"/>
				</g>
				<g enable-background="new    ">
					<path fill="#FFFFFF" d="M471.9,112.8c0,1.3-0.3,2.4-1,3.1s-1.6,1.1-2.9,1.1c-1.2,0-2.3-0.2-3.2-0.7v-2.6c1.1,0.7,2,1,2.9,1
						c0.5,0,0.9-0.1,1.1-0.4s0.4-0.7,0.4-1.1c0-0.5-0.2-0.9-0.5-1.3s-0.8-0.8-1.5-1.3c-0.6-0.4-1.1-0.8-1.4-1.2s-0.6-0.8-0.7-1.3
						s-0.3-1-0.3-1.7c0-1.2,0.3-2.2,1-2.9s1.6-1.1,2.7-1.1c1.1,0,2.1,0.3,3.2,0.9l-0.9,2.1c-0.3-0.2-0.6-0.3-1-0.5s-0.7-0.2-1.1-0.2
						c-0.4,0-0.8,0.1-1,0.4s-0.3,0.7-0.3,1.2c0,0.5,0.1,0.9,0.4,1.3s0.8,0.8,1.5,1.2c0.9,0.6,1.6,1.3,1.9,1.9S471.9,112,471.9,112.8
						z"/>
				</g>
				<g enable-background="new    ">
					<path fill="#FFFFFF" d="M472.9,116.7v-14.3h2.5v14.3H472.9z"/>
				</g>
				<g enable-background="new    ">
					<path fill="#FFFFFF" d="M486.3,109.5c0,2.4-0.5,4.2-1.4,5.4s-2.3,1.9-4.1,1.9h-3.5v-14.3h3.8c1.7,0,3,0.6,3.9,1.8
						S486.3,107.2,486.3,109.5z M483.6,109.5c0-3.2-0.9-4.8-2.6-4.8h-1.1v9.7h0.9c1,0,1.7-0.4,2.1-1.2S483.6,111.2,483.6,109.5z"/>
				</g>
				<g enable-background="new    ">
					<path fill="#FFFFFF" d="M493.7,116.7h-6.4v-14.3h6.4v2.3h-3.8v3.4h3.5v2.3h-3.5v4h3.8V116.7z"/>
					<path fill="#FFFFFF" d="M497.4,111.2v5.6h-2.7v-14.3h3.5c1.5,0,2.6,0.3,3.3,1s1,1.8,1,3.2c0,1.8-0.6,3.1-1.8,3.8l2.7,6.3h-2.8
						l-2.3-5.6H497.4z M497.4,108.9h0.7c0.6,0,1.1-0.2,1.3-0.5s0.4-0.9,0.4-1.6c0-0.7-0.1-1.2-0.4-1.6s-0.7-0.5-1.3-0.5h-0.7V108.9z
						"/>
				</g>
				<g enable-background="new    ">
					<path fill="#FFFFFF" d="M507.3,102.5h3.6c1.5,0,2.6,0.3,3.2,0.9s1,1.5,1,2.7c0,0.8-0.2,1.5-0.5,2.1s-0.8,0.9-1.5,1v0.1
						c0.8,0.2,1.4,0.6,1.7,1.1s0.5,1.3,0.5,2.2c0,1.3-0.3,2.3-1,3s-1.6,1.1-2.8,1.1h-4.3V102.5z M509.8,108.2h1.2
						c0.6,0,1-0.1,1.2-0.4s0.3-0.7,0.3-1.3s-0.1-1-0.4-1.3s-0.7-0.4-1.2-0.4h-1.1V108.2z M509.8,110.4v4h1.3c0.6,0,1-0.2,1.2-0.5
						s0.4-0.9,0.4-1.6c0-1.3-0.6-1.9-1.7-1.9H509.8z"/>
				</g>
				<g enable-background="new    ">
					<path fill="#FFFFFF" d="M516,116.7v-14.3h2.7v12h3.7v2.3H516z"/>
				</g>
				<g enable-background="new    ">
					<path fill="#FFFFFF" d="M529.7,116.7l-0.8-3.6h-3.7l-0.8,3.6h-2.7l3.5-14.3h3.6l3.5,14.3H529.7z M528.3,110.8l-0.8-3.3
						c0-0.2-0.1-0.7-0.3-1.5c-0.2-0.8-0.3-1.4-0.3-1.6c-0.1,0.6-0.2,1.2-0.3,1.9c-0.1,0.7-0.5,2.2-1,4.6H528.3z"/>
				</g>
				<g enable-background="new    ">
					<path fill="#FFFFFF" d="M541.2,116.7h-2.7v-6.3H535v6.3h-2.7v-14.3h2.7v5.7h3.5v-5.7h2.7V116.7z"/>
				</g>
				<g enable-background="new    ">
					<path fill="#FFFFFF" d="M546.5,102.5h3.6c1.5,0,2.6,0.3,3.2,0.9s1,1.5,1,2.7c0,0.8-0.2,1.5-0.5,2.1s-0.8,0.9-1.5,1v0.1
						c0.8,0.2,1.4,0.6,1.7,1.1s0.5,1.3,0.5,2.2c0,1.3-0.3,2.3-1,3s-1.6,1.1-2.8,1.1h-4.3V102.5z M549,108.2h1.2c0.6,0,1-0.1,1.2-0.4
						s0.3-0.7,0.3-1.3s-0.1-1-0.4-1.3s-0.7-0.4-1.2-0.4H549V108.2z M549,110.4v4h1.3c0.6,0,1-0.2,1.2-0.5s0.4-0.9,0.4-1.6
						c0-1.3-0.6-1.9-1.7-1.9H549z"/>
				</g>
				<g enable-background="new    ">
					<path fill="#FFFFFF" d="M555.2,116.7v-14.3h2.7v12h3.7v2.3H555.2z"/>
				</g>
				<g enable-background="new    ">
					<path fill="#FFFFFF" d="M568.8,116.7l-0.8-3.6h-3.7l-0.8,3.6h-2.7l3.5-14.3h3.6l3.5,14.3H568.8z M567.5,110.8l-0.8-3.3
						c0-0.2-0.1-0.7-0.3-1.5s-0.3-1.4-0.3-1.6c-0.1,0.6-0.2,1.2-0.3,1.9s-0.5,2.2-1,4.6H567.5z"/>
				</g>
				<g enable-background="new    ">
					<path fill="#FFFFFF" d="M580.4,116.7h-2.7v-6.3h-3.5v6.3h-2.7v-14.3h2.7v5.7h3.5v-5.7h2.7V116.7z"/>
				</g>
				<g enable-background="new    ">
					<path fill="#FFFFFF" d="M432.1,119.5h3.6c1.5,0,2.6,0.3,3.2,0.9s1,1.5,1,2.7c0,0.8-0.2,1.5-0.5,2.1s-0.8,0.9-1.5,1v0.1
						c0.8,0.2,1.4,0.6,1.7,1.1s0.5,1.3,0.5,2.2c0,1.3-0.3,2.3-1,3s-1.6,1.1-2.8,1.1h-4.3V119.5z M434.6,125.2h1.2
						c0.6,0,1-0.1,1.2-0.4s0.3-0.7,0.3-1.3s-0.1-1-0.4-1.3s-0.7-0.4-1.2-0.4h-1.1V125.2z M434.6,127.4v4h1.3c0.6,0,1-0.2,1.2-0.5
						s0.4-0.9,0.4-1.6c0-1.3-0.6-1.9-1.7-1.9H434.6z"/>
				</g>
				<g enable-background="new    ">
					<path fill="#FFFFFF" d="M443.7,128.2v5.6h-2.7v-14.3h3.5c1.5,0,2.6,0.3,3.3,1s1,1.8,1,3.2c0,1.8-0.6,3.1-1.8,3.8l2.7,6.3h-2.8
						l-2.3-5.6H443.7z M443.7,125.9h0.7c0.6,0,1.1-0.2,1.3-0.5s0.4-0.9,0.4-1.6c0-0.7-0.1-1.2-0.4-1.6s-0.7-0.5-1.3-0.5h-0.7V125.9z
						"/>
				</g>
				<g enable-background="new    ">
					<path fill="#FFFFFF" d="M456.3,133.7h-6.4v-14.3h6.4v2.3h-3.8v3.4h3.5v2.3h-3.5v4h3.8V133.7z"/>
				</g>
				<g enable-background="new    ">
					<path fill="#FFFFFF" d="M464,133.7l-0.8-3.6h-3.7l-0.8,3.6h-2.7l3.5-14.3h3.6l3.5,14.3H464z M462.6,127.8l-0.8-3.3
						c0-0.2-0.1-0.7-0.3-1.5c-0.2-0.8-0.3-1.4-0.3-1.6c-0.1,0.6-0.2,1.2-0.3,1.9c-0.1,0.7-0.5,2.2-1,4.6H462.6z"/>
				</g>
				<g enable-background="new    ">
					<path fill="#FFFFFF" d="M475.6,133.7h-2.8l-2.3-6.1l-1.1,1.1v5h-2.7v-14.3h2.7v7.1l0.9-2.1l2.4-4.9h2.8l-3.3,6.2L475.6,133.7z"
						/>
					<path fill="#FFFFFF" d="M475.3,129.5v-2.3h4.9v2.3H475.3z"/>
					<path fill="#FFFFFF" d="M487.6,133.7h-6.4v-14.3h6.4v2.3h-3.8v3.4h3.5v2.3h-3.5v4h3.8V133.7z"/>
					<path fill="#FFFFFF" d="M494.8,119.5h2.7l-3.4,14.3h-3.4l-3.3-14.3h2.7l1.9,8.7c0.2,0.7,0.3,1.8,0.5,3.2
						c0.1-1.2,0.3-2.2,0.5-3.2L494.8,119.5z"/>
					<path fill="#FFFFFF" d="M504.2,133.7h-6.4v-14.3h6.4v2.3h-3.8v3.4h3.5v2.3h-3.5v4h3.8V133.7z"/>
					<path fill="#FFFFFF" d="M515.3,133.7H512l-4.4-10.3h-0.1c0.2,0.8,0.2,1.6,0.2,2.5v7.8h-2.5v-14.3h3.3l4.4,10.2h0.1
						c-0.1-0.7-0.2-1.5-0.2-2.4v-7.8h2.4V133.7z"/>
				</g>
				<g enable-background="new    ">
					<path fill="#FFFFFF" d="M526.1,129.8c0,1.3-0.3,2.4-1,3.1s-1.6,1.1-2.9,1.1c-1.2,0-2.3-0.2-3.2-0.7v-2.6c1.1,0.7,2,1,2.9,1
						c0.5,0,0.9-0.1,1.1-0.4c0.3-0.3,0.4-0.7,0.4-1.1c0-0.5-0.2-0.9-0.5-1.3c-0.3-0.4-0.8-0.8-1.5-1.3c-0.6-0.4-1.1-0.8-1.4-1.2
						c-0.3-0.4-0.6-0.8-0.7-1.3c-0.2-0.5-0.3-1-0.3-1.7c0-1.2,0.3-2.2,1-2.9c0.7-0.7,1.6-1.1,2.7-1.1c1.1,0,2.1,0.3,3.2,0.9
						l-0.9,2.1c-0.3-0.2-0.6-0.3-1-0.5s-0.7-0.2-1.1-0.2c-0.4,0-0.8,0.1-1,0.4c-0.2,0.3-0.3,0.7-0.3,1.2c0,0.5,0.1,0.9,0.4,1.3
						c0.3,0.4,0.8,0.8,1.4,1.2c0.9,0.6,1.6,1.3,1.9,1.9C526,128.2,526.1,129,526.1,129.8z"/>
				</g>
				<g enable-background="new    ">
					<path fill="#FFFFFF" d="M535.3,119.5v9.2c0,1.7-0.4,3-1.2,3.9c-0.8,0.9-1.9,1.3-3.3,1.3c-1.4,0-2.5-0.4-3.2-1.3
						s-1.1-2.2-1.1-3.9v-9.2h2.6v9.4c0,1.8,0.6,2.7,1.8,2.7c0.6,0,1-0.2,1.3-0.7c0.3-0.5,0.5-1.1,0.5-2v-9.5H535.3z"/>
					<path fill="#FFFFFF" d="M541.5,121.6c-0.8,0-1.4,0.4-1.8,1.3s-0.7,2.1-0.7,3.7c0,3.3,0.9,5,2.6,5c0.8,0,1.5-0.2,2.4-0.7v2.4
						c-0.7,0.5-1.6,0.7-2.7,0.7c-1.6,0-2.8-0.6-3.7-1.9c-0.9-1.3-1.3-3.1-1.3-5.4s0.4-4.1,1.3-5.4s2.1-1.9,3.7-1.9
						c0.5,0,1,0.1,1.5,0.2s1,0.4,1.5,0.8l-0.9,2.2c-0.3-0.2-0.6-0.4-0.9-0.6S541.9,121.6,541.5,121.6z"/>
					<path fill="#FFFFFF" d="M549.4,121.6c-0.8,0-1.4,0.4-1.8,1.3s-0.7,2.1-0.7,3.7c0,3.3,0.9,5,2.6,5c0.8,0,1.5-0.2,2.4-0.7v2.4
						c-0.7,0.5-1.6,0.7-2.7,0.7c-1.6,0-2.8-0.6-3.7-1.9c-0.9-1.3-1.3-3.1-1.3-5.4s0.4-4.1,1.3-5.4s2.1-1.9,3.7-1.9
						c0.5,0,1,0.1,1.5,0.2s1,0.4,1.5,0.8l-0.9,2.2c-0.3-0.2-0.6-0.4-0.9-0.6S549.8,121.6,549.4,121.6z"/>
					<path fill="#FFFFFF" d="M559.4,133.7H553v-14.3h6.4v2.3h-3.8v3.4h3.5v2.3h-3.5v4h3.8V133.7z"/>
				</g>
				<g enable-background="new    ">
					<path fill="#FFFFFF" d="M566.6,129.8c0,1.3-0.3,2.4-1,3.1s-1.6,1.1-2.9,1.1c-1.2,0-2.3-0.2-3.2-0.7v-2.6c1.1,0.7,2,1,2.9,1
						c0.5,0,0.9-0.1,1.1-0.4s0.4-0.7,0.4-1.1c0-0.5-0.2-0.9-0.5-1.3s-0.8-0.8-1.5-1.3c-0.6-0.4-1.1-0.8-1.4-1.2s-0.6-0.8-0.7-1.3
						s-0.3-1-0.3-1.7c0-1.2,0.3-2.2,1-2.9s1.6-1.1,2.7-1.1c1.1,0,2.1,0.3,3.2,0.9l-0.9,2.1c-0.3-0.2-0.6-0.3-1-0.5s-0.7-0.2-1.1-0.2
						c-0.4,0-0.8,0.1-1,0.4s-0.3,0.7-0.3,1.2c0,0.5,0.1,0.9,0.4,1.3s0.8,0.8,1.5,1.2c0.9,0.6,1.6,1.3,1.9,1.9S566.6,129,566.6,129.8
						z"/>
				</g>
				<g enable-background="new    ">
					<path fill="#FFFFFF" d="M573.6,129.8c0,1.3-0.3,2.4-1,3.1s-1.6,1.1-2.9,1.1c-1.2,0-2.3-0.2-3.2-0.7v-2.6c1.1,0.7,2,1,2.9,1
						c0.5,0,0.9-0.1,1.1-0.4c0.3-0.3,0.4-0.7,0.4-1.1c0-0.5-0.2-0.9-0.5-1.3c-0.3-0.4-0.8-0.8-1.5-1.3c-0.6-0.4-1.1-0.8-1.4-1.2
						c-0.3-0.4-0.6-0.8-0.7-1.3c-0.2-0.5-0.3-1-0.3-1.7c0-1.2,0.3-2.2,1-2.9c0.7-0.7,1.6-1.1,2.7-1.1c1.1,0,2.1,0.3,3.2,0.9
						l-0.9,2.1c-0.3-0.2-0.6-0.3-1-0.5s-0.7-0.2-1.1-0.2c-0.4,0-0.8,0.1-1,0.4c-0.2,0.3-0.3,0.7-0.3,1.2c0,0.5,0.1,0.9,0.4,1.3
						c0.3,0.4,0.8,0.8,1.4,1.2c0.9,0.6,1.6,1.3,1.9,1.9C573.4,128.2,573.6,129,573.6,129.8z"/>
				</g>
				<g enable-background="new    ">
					<path fill="#FFFFFF" d="M454.5,150.7h-2.6v-11.9h-2.7v-2.3h8.1v2.3h-2.7V150.7z"/>
					<path fill="#FFFFFF" d="M466.5,136.5v9.2c0,1.7-0.4,3-1.2,3.9s-1.9,1.3-3.3,1.3c-1.4,0-2.5-0.4-3.2-1.3s-1.1-2.2-1.1-3.9v-9.2
						h2.6v9.4c0,1.8,0.6,2.7,1.8,2.7c0.6,0,1-0.2,1.3-0.7s0.5-1.1,0.5-2v-9.5H466.5z"/>
					<path fill="#FFFFFF" d="M470.6,145.2v5.6H468v-14.3h3.5c1.5,0,2.6,0.3,3.3,1s1,1.8,1,3.2c0,1.8-0.6,3.1-1.8,3.8l2.7,6.3h-2.8
						l-2.3-5.6H470.6z M470.6,142.9h0.7c0.6,0,1.1-0.2,1.3-0.5s0.4-0.9,0.4-1.6c0-0.7-0.1-1.2-0.4-1.6s-0.7-0.5-1.3-0.5h-0.7V142.9z
						"/>
					<path fill="#FFFFFF" d="M487,150.7h-3.2l-4.4-10.3h-0.1c0.2,0.8,0.2,1.6,0.2,2.5v7.8H477v-14.3h3.3l4.4,10.2h0.1
						c-0.1-0.7-0.2-1.5-0.2-2.4v-7.8h2.4V150.7z"/>
				</g>
				<g enable-background="new    ">
					<path fill="#FFFFFF" d="M501.3,143.6c0,2.4-0.4,4.2-1.3,5.4c-0.9,1.3-2.2,1.9-3.8,1.9c-1.7,0-2.9-0.6-3.8-1.9
						c-0.9-1.3-1.3-3.1-1.3-5.5c0-2.4,0.4-4.2,1.3-5.4c0.9-1.3,2.2-1.9,3.8-1.9c1.6,0,2.9,0.6,3.8,1.9S501.3,141.2,501.3,143.6z
						 M493.8,143.6c0,1.6,0.2,2.9,0.6,3.7s1,1.3,1.8,1.3c1.6,0,2.4-1.7,2.4-5s-0.8-5-2.4-5c-0.8,0-1.4,0.4-1.8,1.3
						S493.8,141.9,493.8,143.6z"/>
				</g>
				<g enable-background="new    ">
					<path fill="#FFFFFF" d="M508.4,136.5h2.7l-3.4,14.3h-3.4l-3.3-14.3h2.7l1.9,8.7c0.2,0.7,0.3,1.8,0.5,3.2
						c0.1-1.2,0.3-2.2,0.5-3.2L508.4,136.5z"/>
				</g>
				<g enable-background="new    ">
					<path fill="#FFFFFF" d="M517.6,150.7h-6.4v-14.3h6.4v2.3h-3.8v3.4h3.5v2.3h-3.5v4h3.8V150.7z"/>
					<path fill="#FFFFFF" d="M521.3,145.2v5.6h-2.7v-14.3h3.5c1.5,0,2.6,0.3,3.3,1s1,1.8,1,3.2c0,1.8-0.6,3.1-1.8,3.8l2.7,6.3h-2.8
						l-2.3-5.6H521.3z M521.3,142.9h0.7c0.6,0,1.1-0.2,1.3-0.5s0.4-0.9,0.4-1.6c0-0.7-0.1-1.2-0.4-1.6s-0.7-0.5-1.3-0.5h-0.7V142.9z
						"/>
				</g>
				<g enable-background="new    ">
					<path fill="#FFFFFF" d="M531.2,136.5h3.6c1.5,0,2.6,0.3,3.2,0.9s1,1.5,1,2.7c0,0.8-0.2,1.5-0.5,2.1s-0.8,0.9-1.5,1v0.1
						c0.8,0.2,1.4,0.6,1.7,1.1s0.5,1.3,0.5,2.2c0,1.3-0.3,2.3-1,3s-1.6,1.1-2.8,1.1h-4.3V136.5z M533.7,142.2h1.2
						c0.6,0,1-0.1,1.2-0.4s0.3-0.7,0.3-1.3s-0.1-1-0.4-1.3s-0.7-0.4-1.2-0.4h-1.1V142.2z M533.7,144.4v4h1.3c0.6,0,1-0.2,1.2-0.5
						s0.4-0.9,0.4-1.6c0-1.3-0.6-1.9-1.7-1.9H533.7z"/>
				</g>
				<g enable-background="new    ">
					<path fill="#FFFFFF" d="M549.8,143.6c0,2.4-0.4,4.2-1.3,5.4s-2.2,1.9-3.8,1.9c-1.7,0-2.9-0.6-3.8-1.9s-1.3-3.1-1.3-5.5
						c0-2.4,0.4-4.2,1.3-5.4s2.2-1.9,3.8-1.9c1.6,0,2.9,0.6,3.8,1.9S549.8,141.2,549.8,143.6z M542.2,143.6c0,1.6,0.2,2.9,0.6,3.7
						s1,1.3,1.8,1.3c1.6,0,2.4-1.7,2.4-5s-0.8-5-2.4-5c-0.8,0-1.4,0.4-1.8,1.3S542.2,141.9,542.2,143.6z"/>
					<path fill="#FFFFFF" d="M560.7,143.6c0,2.4-0.4,4.2-1.3,5.4s-2.2,1.9-3.8,1.9c-1.7,0-2.9-0.6-3.8-1.9s-1.3-3.1-1.3-5.5
						c0-2.4,0.4-4.2,1.3-5.4s2.2-1.9,3.8-1.9c1.6,0,2.9,0.6,3.8,1.9S560.7,141.2,560.7,143.6z M553.1,143.6c0,1.6,0.2,2.9,0.6,3.7
						s1,1.3,1.8,1.3c1.6,0,2.4-1.7,2.4-5s-0.8-5-2.4-5c-0.8,0-1.4,0.4-1.8,1.3S553.1,141.9,553.1,143.6z"/>
				</g>
				<g enable-background="new    ">
					<path fill="#FFFFFF" d="M566.5,150.7l-2.7-12.2h-0.1c0.1,0.9,0.2,1.8,0.2,2.6v9.6h-2.5v-14.3h4.1l2.4,11.2h0.1l2.4-11.2h4.1
						v14.3H572v-9.7c0-0.8,0-1.6,0.1-2.5h-0.1l-2.7,12.1H566.5z"/>
				</g>
			</g>
		</g>
		<g id="newYou" display="inline">
			<polygon id="star" opacity="0.9" fill="#FFFF00" points="422.9,139.5 445.9,186 497.2,193.4 460.1,229.6 468.8,280.7 
				422.9,256.6 377,280.7 385.8,229.6 348.7,193.4 400,186 			"/>
			<g enable-background="new    ">
				<path fill="#009BDF" d="M404.5,217.8l-0.8-3.6h-3.7l-0.8,3.6h-2.7l3.5-14.3h3.6l3.5,14.3H404.5z M403.1,211.8l-0.8-3.3
					c0-0.2-0.1-0.7-0.3-1.5s-0.3-1.4-0.3-1.6c-0.1,0.6-0.2,1.2-0.3,1.9s-0.5,2.2-1,4.6H403.1z"/>
			</g>
			<g enable-background="new    ">
				<path fill="#009BDF" d="M421.1,217.8h-3.2l-4.4-10.3h-0.1c0.2,0.8,0.2,1.6,0.2,2.5v7.8h-2.5v-14.3h3.3l4.4,10.2h0.1
					c-0.1-0.7-0.2-1.5-0.2-2.4v-7.8h2.4V217.8z"/>
				<path fill="#009BDF" d="M429.1,217.8h-6.4v-14.3h6.4v2.3h-3.8v3.4h3.5v2.3h-3.5v4h3.8V217.8z"/>
			</g>
			<g enable-background="new    ">
				<path fill="#009BDF" d="M441.4,217.8h-3.3l-1.4-7.5c-0.2-1-0.4-2.2-0.5-3.6l-0.1,0.7l-0.4,2.9l-1.4,7.4h-3.3l-2.6-14.3h2.6
					l1.3,8.1c0.1,0.8,0.3,2.1,0.5,3.8c0.2-1.7,0.3-3,0.5-3.7l1.5-8.1h2.8l1.5,8.1c0.2,1.2,0.4,2.5,0.5,3.8c0.2-1.9,0.4-3.2,0.5-3.8
					l1.2-8.1h2.6L441.4,217.8z"/>
			</g>
			<g enable-background="new    ">
				<path fill="#009BDF" d="M407.8,226.2l1.9-5.6h2.8l-3.4,8.6v5.7h-2.6v-5.6l-3.4-8.7h2.8L407.8,226.2z"/>
			</g>
			<g enable-background="new    ">
				<path fill="#009BDF" d="M422.3,227.6c0,2.4-0.4,4.2-1.3,5.4s-2.2,1.9-3.8,1.9c-1.7,0-2.9-0.6-3.8-1.9s-1.3-3.1-1.3-5.5
					c0-2.4,0.4-4.2,1.3-5.4s2.2-1.9,3.8-1.9c1.6,0,2.9,0.6,3.8,1.9S422.3,225.3,422.3,227.6z M414.8,227.6c0,1.6,0.2,2.9,0.6,3.7
					s1,1.3,1.8,1.3c1.6,0,2.4-1.7,2.4-5s-0.8-5-2.4-5c-0.8,0-1.4,0.4-1.8,1.3S414.8,226,414.8,227.6z"/>
			</g>
			<g enable-background="new    ">
				<path fill="#009BDF" d="M432,220.5v9.2c0,1.7-0.4,3-1.2,3.9s-1.9,1.3-3.3,1.3c-1.4,0-2.5-0.4-3.2-1.3s-1.1-2.2-1.1-3.9v-9.2h2.6
					v9.4c0,1.8,0.6,2.7,1.8,2.7c0.6,0,1-0.2,1.3-0.7s0.5-1.1,0.5-2v-9.5H432z"/>
			</g>
			<g enable-background="new    ">
				<path fill="#009BDF" d="M433.1,233.5c0-0.5,0.1-0.9,0.4-1.2s0.7-0.4,1.2-0.4s0.9,0.1,1.2,0.4s0.4,0.7,0.4,1.2
					c0,0.5-0.1,0.9-0.4,1.2s-0.7,0.4-1.2,0.4c-0.5,0-0.9-0.1-1.2-0.4S433.1,234,433.1,233.5z M435.8,230.2h-2.1l-0.5-9.7h3.1
					L435.8,230.2z"/>
			</g>
		</g>
		<g id="wetry" display="inline">
			<polygon opacity="0.85" fill="#FF008C" points="418.2,127.2 392.9,138.2 414.5,155.4 387.2,159.5 403.6,181.7 376.2,178.6 
				386.3,204.3 360.6,194.2 363.7,221.6 341.5,205.2 337.4,232.5 320.2,210.9 309.2,236.2 298.2,210.9 281,232.5 276.9,205.2 
				254.7,221.6 257.8,194.2 232.2,204.2 242.2,178.6 214.8,181.7 231.2,159.5 203.9,155.4 225.5,138.2 200.2,127.2 225.5,116.2 
				203.9,99 231.2,94.9 214.8,72.7 242.2,75.8 232.2,50.1 257.8,60.2 254.7,32.8 276.9,49.2 281,21.9 298.2,43.5 309.2,18.2 
				320.2,43.5 337.4,21.9 341.5,49.2 363.7,32.8 360.6,60.2 386.3,50.1 376.2,75.8 403.6,72.7 387.2,94.9 414.5,99 392.9,116.2 			
				"/>
			<g>
				<g enable-background="new    ">
					<path fill="#FFFFFF" d="M269.2,108.7h-3.3l-1.4-7.5c-0.2-1-0.4-2.2-0.5-3.6l-0.1,0.7l-0.4,2.9l-1.4,7.4h-3.3l-2.6-14.3h2.6
						l1.3,8.1c0.1,0.8,0.3,2.1,0.5,3.8c0.2-1.7,0.3-3,0.5-3.7l1.5-8.1h2.8l1.5,8.1c0.2,1.2,0.4,2.5,0.5,3.8c0.2-1.9,0.4-3.2,0.5-3.8
						l1.2-8.1h2.6L269.2,108.7z"/>
					<path fill="#FFFFFF" d="M278.6,108.7h-6.4V94.4h6.4v2.3h-3.8v3.4h3.5v2.3h-3.5v4h3.8V108.7z"/>
				</g>
				<g enable-background="new    ">
					<path fill="#FFFFFF" d="M287.4,108.7h-2.6V96.8h-2.7v-2.3h8.1v2.3h-2.7V108.7z"/>
				</g>
				<g enable-background="new    ">
					<path fill="#FFFFFF" d="M293.2,103.2v5.6h-2.7V94.4h3.5c1.5,0,2.6,0.3,3.3,1s1,1.8,1,3.2c0,1.8-0.6,3.1-1.8,3.8l2.7,6.3h-2.8
						l-2.3-5.6H293.2z M293.2,100.9h0.7c0.6,0,1.1-0.2,1.3-0.5s0.4-0.9,0.4-1.6c0-0.7-0.1-1.2-0.4-1.6s-0.7-0.5-1.3-0.5h-0.7V100.9z
						"/>
				</g>
				<g enable-background="new    ">
					<path fill="#FFFFFF" d="M302,100.1l1.9-5.6h2.8l-3.4,8.6v5.7h-2.6v-5.6l-3.4-8.7h2.8L302,100.1z"/>
				</g>
				<g enable-background="new    ">
					<path fill="#FFFFFF" d="M319.5,108.7h-2.7v-6.3h-3.5v6.3h-2.7V94.4h2.7v5.7h3.5v-5.7h2.7V108.7z"/>
				</g>
				<g enable-background="new    ">
					<path fill="#FFFFFF" d="M327.4,108.7l-0.8-3.6h-3.7l-0.8,3.6h-2.7l3.5-14.3h3.6l3.5,14.3H327.4z M326.1,102.8l-0.8-3.3
						c0-0.2-0.1-0.7-0.3-1.5s-0.3-1.4-0.3-1.6c-0.1,0.6-0.2,1.2-0.3,1.9s-0.5,2.2-1,4.6H326.1z"/>
				</g>
				<g enable-background="new    ">
					<path fill="#FFFFFF" d="M332.8,103.2v5.6h-2.7V94.4h3.5c1.5,0,2.6,0.3,3.3,1s1,1.8,1,3.2c0,1.8-0.6,3.1-1.8,3.8l2.7,6.3H336
						l-2.3-5.6H332.8z M332.8,100.9h0.7c0.6,0,1.1-0.2,1.3-0.5s0.4-0.9,0.4-1.6c0-0.7-0.1-1.2-0.4-1.6s-0.7-0.5-1.3-0.5h-0.7V100.9z
						"/>
					<path fill="#FFFFFF" d="M348.3,101.4c0,2.4-0.5,4.2-1.4,5.4s-2.3,1.9-4.1,1.9h-3.5V94.4h3.8c1.7,0,3,0.6,3.9,1.8
						S348.3,99.2,348.3,101.4z M345.5,101.5c0-3.2-0.9-4.8-2.6-4.8h-1.1v9.7h0.9c1,0,1.7-0.4,2.1-1.2S345.5,103.2,345.5,101.5z"/>
				</g>
				<g enable-background="new    ">
					<path fill="#FFFFFF" d="M355.4,108.7H349V94.4h6.4v2.3h-3.8v3.4h3.5v2.3h-3.5v4h3.8V108.7z"/>
				</g>
				<g enable-background="new    ">
					<path fill="#FFFFFF" d="M358.9,103.2v5.6h-2.7V94.4h3.5c1.5,0,2.6,0.3,3.3,1s1,1.8,1,3.2c0,1.8-0.6,3.1-1.8,3.8l2.7,6.3h-2.8
						l-2.3-5.6H358.9z M358.9,100.9h0.7c0.6,0,1.1-0.2,1.3-0.5s0.4-0.9,0.4-1.6c0-0.7-0.1-1.2-0.4-1.6s-0.7-0.5-1.3-0.5h-0.7V100.9z
						"/>
				</g>
				<g enable-background="new    ">
					<path fill="#FFFFFF" d="M249,125.7h-2.6v-8.4c0-0.9,0-2,0.1-3.1c0,0.1-0.2,0.3-0.5,0.6s-0.9,0.9-1.7,1.8l-1.5-1.6l3.8-3.5h2.4
						V125.7z"/>
					<path fill="#FFFFFF" d="M258.7,118.6c0,2.6-0.3,4.5-0.9,5.6s-1.6,1.7-3,1.7s-2.4-0.6-3-1.7s-0.9-3-0.9-5.6
						c0-2.6,0.3-4.5,0.9-5.6s1.6-1.7,3-1.7c1.4,0,2.4,0.6,3,1.7S258.7,116,258.7,118.6z M253.5,118.6c0,2,0.1,3.3,0.3,4s0.5,1,1,1
						c0.3,0,0.6-0.1,0.8-0.4s0.3-0.8,0.4-1.5s0.1-1.7,0.1-3.1c0-2-0.1-3.3-0.3-4s-0.5-1.1-1-1.1c-0.5,0-0.8,0.4-1,1.1
						S253.5,116.6,253.5,118.6z"/>
					<path fill="#FFFFFF" d="M266.9,118.6c0,2.6-0.3,4.5-0.9,5.6s-1.6,1.7-3,1.7s-2.4-0.6-3-1.7s-0.9-3-0.9-5.6
						c0-2.6,0.3-4.5,0.9-5.6s1.6-1.7,3-1.7c1.4,0,2.4,0.6,3,1.7S266.9,116,266.9,118.6z M261.8,118.6c0,2,0.1,3.3,0.3,4s0.5,1,1,1
						c0.3,0,0.6-0.1,0.8-0.4s0.3-0.8,0.4-1.5s0.1-1.7,0.1-3.1c0-2-0.1-3.3-0.3-4s-0.5-1.1-1-1.1c-0.5,0-0.8,0.4-1,1.1
						S261.8,116.6,261.8,118.6z"/>
				</g>
				<g enable-background="new    ">
					<path fill="#FFFFFF" d="M272.4,115.7c0,1.5-0.2,2.6-0.7,3.4s-1.2,1.1-2.1,1.1c-1,0-1.7-0.4-2.1-1.1s-0.7-1.9-0.7-3.3
						c0-3,0.9-4.5,2.8-4.5C271.4,111.2,272.4,112.7,272.4,115.7z M268.7,115.7c0,0.9,0.1,1.6,0.2,2s0.3,0.6,0.6,0.6s0.5-0.2,0.6-0.6
						s0.2-1.1,0.2-2s-0.1-1.6-0.2-2s-0.3-0.6-0.6-0.6c-0.3,0-0.5,0.2-0.6,0.6S268.7,114.8,268.7,115.7z M277.6,111.4l-5.9,14.3h-2
						l5.9-14.3H277.6z M280.6,121.4c0,1.5-0.2,2.6-0.7,3.3s-1.2,1.1-2.1,1.1c-1,0-1.7-0.4-2.1-1.1s-0.7-1.9-0.7-3.3
						c0-1.5,0.2-2.6,0.7-3.3s1.2-1.2,2.1-1.2C279.6,116.9,280.6,118.4,280.6,121.4z M277,121.4c0,0.9,0.1,1.6,0.2,2s0.3,0.6,0.6,0.6
						s0.5-0.2,0.6-0.6s0.2-1.1,0.2-2s-0.1-1.6-0.2-2s-0.3-0.6-0.6-0.6s-0.5,0.2-0.6,0.6S277,120.5,277,121.4z"/>
				</g>
				<g enable-background="new    ">
					<path fill="#FFFFFF" d="M291.6,121.8c0,1.3-0.3,2.4-1,3.1s-1.6,1.1-2.9,1.1c-1.2,0-2.3-0.2-3.2-0.7v-2.6c1.1,0.7,2,1,2.9,1
						c0.5,0,0.9-0.1,1.1-0.4s0.4-0.7,0.4-1.1c0-0.5-0.2-0.9-0.5-1.3s-0.8-0.8-1.5-1.3c-0.6-0.4-1.1-0.8-1.4-1.2s-0.6-0.8-0.7-1.3
						s-0.3-1-0.3-1.7c0-1.2,0.3-2.2,1-2.9s1.6-1.1,2.7-1.1c1.1,0,2.1,0.3,3.2,0.9l-0.9,2.1c-0.3-0.2-0.6-0.3-1-0.5s-0.7-0.2-1.1-0.2
						c-0.4,0-0.8,0.1-1,0.4s-0.3,0.7-0.3,1.2c0,0.5,0.1,0.9,0.4,1.3s0.8,0.8,1.5,1.2c0.9,0.6,1.6,1.3,1.9,1.9S291.6,121,291.6,121.8
						z"/>
				</g>
				<g enable-background="new    ">
					<path fill="#FFFFFF" d="M298.9,125.7l-0.8-3.6h-3.7l-0.8,3.6h-2.7l3.5-14.3h3.6l3.5,14.3H298.9z M297.6,119.8l-0.8-3.3
						c0-0.2-0.1-0.7-0.3-1.5s-0.3-1.4-0.3-1.6c-0.1,0.6-0.2,1.2-0.3,1.9s-0.5,2.2-1,4.6H297.6z"/>
				</g>
				<g enable-background="new    ">
					<path fill="#FFFFFF" d="M304.2,125.7h-2.6v-11.9h-2.7v-2.3h8.1v2.3h-2.7V125.7z"/>
					<path fill="#FFFFFF" d="M307.9,125.7v-14.3h2.5v14.3H307.9z"/>
				</g>
				<g enable-background="new    ">
					<path fill="#FFFFFF" d="M318.6,121.8c0,1.3-0.3,2.4-1,3.1s-1.6,1.1-2.9,1.1c-1.2,0-2.3-0.2-3.2-0.7v-2.6c1.1,0.7,2,1,2.9,1
						c0.5,0,0.9-0.1,1.1-0.4s0.4-0.7,0.4-1.1c0-0.5-0.2-0.9-0.5-1.3s-0.8-0.8-1.5-1.3c-0.6-0.4-1.1-0.8-1.4-1.2s-0.6-0.8-0.7-1.3
						s-0.3-1-0.3-1.7c0-1.2,0.3-2.2,1-2.9s1.6-1.1,2.7-1.1c1.1,0,2.1,0.3,3.2,0.9l-0.9,2.1c-0.3-0.2-0.6-0.3-1-0.5s-0.7-0.2-1.1-0.2
						c-0.4,0-0.8,0.1-1,0.4s-0.3,0.7-0.3,1.2c0,0.5,0.1,0.9,0.4,1.3s0.8,0.8,1.5,1.2c0.9,0.6,1.6,1.3,1.9,1.9S318.6,121,318.6,121.8
						z"/>
				</g>
				<g enable-background="new    ">
					<path fill="#FFFFFF" d="M321.8,125.7h-2.6v-14.3h6.4v2.3h-3.8v4h3.5v2.3h-3.5V125.7z"/>
				</g>
				<g enable-background="new    ">
					<path fill="#FFFFFF" d="M331.8,125.7l-0.8-3.6h-3.7l-0.8,3.6h-2.7l3.5-14.3h3.6l3.5,14.3H331.8z M330.5,119.8l-0.8-3.3
						c0-0.2-0.1-0.7-0.3-1.5s-0.3-1.4-0.3-1.6c-0.1,0.6-0.2,1.2-0.3,1.9s-0.5,2.2-1,4.6H330.5z"/>
				</g>
				<g enable-background="new    ">
					<path fill="#FFFFFF" d="M339.3,113.6c-0.8,0-1.4,0.4-1.8,1.3s-0.7,2.1-0.7,3.7c0,3.3,0.9,5,2.6,5c0.8,0,1.5-0.2,2.4-0.7v2.4
						c-0.7,0.5-1.6,0.7-2.7,0.7c-1.6,0-2.8-0.6-3.7-1.9s-1.3-3.1-1.3-5.4s0.4-4.1,1.3-5.4s2.1-1.9,3.7-1.9c0.5,0,1,0.1,1.5,0.2
						s1,0.4,1.5,0.8l-0.9,2.2c-0.3-0.2-0.6-0.4-0.9-0.6S339.6,113.6,339.3,113.6z"/>
					<path fill="#FFFFFF" d="M347.2,125.7h-2.6v-11.9h-2.7v-2.3h8.1v2.3h-2.7V125.7z"/>
					<path fill="#FFFFFF" d="M350.9,125.7v-14.3h2.5v14.3H350.9z"/>
					<path fill="#FFFFFF" d="M365.2,118.6c0,2.4-0.4,4.2-1.3,5.4c-0.9,1.3-2.2,1.9-3.8,1.9c-1.7,0-2.9-0.6-3.8-1.9
						c-0.9-1.3-1.3-3.1-1.3-5.5c0-2.4,0.4-4.2,1.3-5.4c0.9-1.3,2.2-1.9,3.8-1.9c1.6,0,2.9,0.6,3.8,1.9S365.2,116.2,365.2,118.6z
						 M357.7,118.6c0,1.6,0.2,2.9,0.6,3.7s1,1.3,1.8,1.3c1.6,0,2.4-1.7,2.4-5s-0.8-5-2.4-5c-0.8,0-1.4,0.4-1.8,1.3
						S357.7,116.9,357.7,118.6z"/>
				</g>
				<g enable-background="new    ">
					<path fill="#FFFFFF" d="M375.6,125.7h-3.2l-4.4-10.3h-0.1c0.2,0.8,0.2,1.6,0.2,2.5v7.8h-2.5v-14.3h3.3l4.4,10.2h0.1
						c-0.1-0.7-0.2-1.5-0.2-2.4v-7.8h2.4V125.7z"/>
				</g>
				<g enable-background="new    ">
					<path fill="#FFFFFF" d="M272,134.8h4.4v7.3c-1.2,0.5-2.6,0.8-3.9,0.8c-1.7,0-2.9-0.6-3.8-1.9s-1.3-3.1-1.3-5.5
						c0-2.3,0.5-4.1,1.5-5.4s2.5-1.9,4.3-1.9c1.1,0,2.2,0.3,3.3,0.9l-0.8,2.2c-0.8-0.5-1.6-0.7-2.3-0.7c-1,0-1.8,0.5-2.4,1.4
						s-0.9,2.1-0.9,3.7c0,1.6,0.2,2.8,0.6,3.7s1,1.3,1.9,1.3c0.4,0,0.9-0.1,1.3-0.2v-3.3H272V134.8z"/>
					<path fill="#FFFFFF" d="M286.4,128.4v9.2c0,1.7-0.4,3-1.2,3.9s-1.9,1.3-3.3,1.3c-1.4,0-2.5-0.4-3.2-1.3s-1.1-2.2-1.1-3.9v-9.2
						h2.6v9.4c0,1.8,0.6,2.7,1.8,2.7c0.6,0,1-0.2,1.3-0.7s0.5-1.1,0.5-2v-9.5H286.4z"/>
					<path fill="#FFFFFF" d="M294.6,142.7l-0.8-3.6H290l-0.8,3.6h-2.7l3.5-14.3h3.6l3.5,14.3H294.6z M293.3,136.8l-0.8-3.3
						c0-0.2-0.1-0.7-0.3-1.5s-0.3-1.4-0.3-1.6c-0.1,0.6-0.2,1.2-0.3,1.9s-0.5,2.2-1,4.6H293.3z"/>
				</g>
				<g enable-background="new    ">
					<path fill="#FFFFFF" d="M299.6,137.2v5.6H297v-14.3h3.5c1.5,0,2.6,0.3,3.3,1s1,1.8,1,3.2c0,1.8-0.6,3.1-1.8,3.8l2.7,6.3h-2.8
						l-2.3-5.6H299.6z M299.6,134.9h0.7c0.6,0,1.1-0.2,1.3-0.5s0.4-0.9,0.4-1.6c0-0.7-0.1-1.2-0.4-1.6s-0.7-0.5-1.3-0.5h-0.7V134.9z
						"/>
				</g>
				<g enable-background="new    ">
					<path fill="#FFFFFF" d="M312.5,142.7l-0.8-3.6H308l-0.8,3.6h-2.7l3.5-14.3h3.6l3.5,14.3H312.5z M311.2,136.8l-0.8-3.3
						c0-0.2-0.1-0.7-0.3-1.5s-0.3-1.4-0.3-1.6c-0.1,0.6-0.2,1.2-0.3,1.9s-0.5,2.2-1,4.6H311.2z"/>
					<path fill="#FFFFFF" d="M325.4,142.7h-3.2l-4.4-10.3h-0.1c0.2,0.8,0.2,1.6,0.2,2.5v7.8h-2.5v-14.3h3.3l4.4,10.2h0.1
						c-0.1-0.7-0.2-1.5-0.2-2.4v-7.8h2.4V142.7z"/>
					<path fill="#FFFFFF" d="M331.3,142.7h-2.6v-11.9H326v-2.3h8.1v2.3h-2.7V142.7z"/>
					<path fill="#FFFFFF" d="M341,142.7h-6.4v-14.3h6.4v2.3h-3.8v3.4h3.5v2.3h-3.5v4h3.8V142.7z"/>
				</g>
				<g enable-background="new    ">
					<path fill="#FFFFFF" d="M347.8,142.7h-6.4v-14.3h6.4v2.3h-3.8v3.4h3.5v2.3h-3.5v4h3.8V142.7z"/>
				</g>
				<g enable-background="new    ">
					<path fill="#FFFFFF" d="M357.8,135.4c0,2.4-0.5,4.2-1.4,5.4c-1,1.2-2.3,1.9-4.1,1.9h-3.5v-14.3h3.8c1.7,0,3,0.6,3.9,1.8
						C357.3,131.5,357.8,133.2,357.8,135.4z M355.1,135.5c0-3.2-0.9-4.8-2.6-4.8h-1.1v9.7h0.9c1,0,1.7-0.4,2.1-1.2
						C354.8,138.4,355.1,137.2,355.1,135.5z"/>
				</g>
				<g enable-background="new    ">
					<path fill="#FFFFFF" d="M284.4,155.8c0,1.3-0.3,2.4-1,3.1s-1.6,1.1-2.9,1.1c-1.2,0-2.3-0.2-3.2-0.7v-2.6c1.1,0.7,2,1,2.9,1
						c0.5,0,0.9-0.1,1.1-0.4s0.4-0.7,0.4-1.1c0-0.5-0.2-0.9-0.5-1.3s-0.8-0.8-1.5-1.3c-0.6-0.4-1.1-0.8-1.4-1.2s-0.6-0.8-0.7-1.3
						s-0.3-1-0.3-1.7c0-1.2,0.3-2.2,1-2.9s1.6-1.1,2.7-1.1c1.1,0,2.1,0.3,3.2,0.9l-0.9,2.1c-0.3-0.2-0.6-0.3-1-0.5s-0.7-0.2-1.1-0.2
						c-0.4,0-0.8,0.1-1,0.4s-0.3,0.7-0.3,1.2c0,0.5,0.1,0.9,0.4,1.3s0.8,0.8,1.5,1.2c0.9,0.6,1.6,1.3,1.9,1.9S284.4,155,284.4,155.8
						z"/>
					<path fill="#FFFFFF" d="M285.6,159.7v-14.3h2.5v14.3H285.6z"/>
					<path fill="#FFFFFF" d="M294.5,151.8h4.4v7.3c-1.2,0.5-2.6,0.8-3.9,0.8c-1.7,0-2.9-0.6-3.8-1.9s-1.3-3.1-1.3-5.5
						c0-2.3,0.5-4.1,1.5-5.4s2.5-1.9,4.3-1.9c1.1,0,2.2,0.3,3.3,0.9l-0.8,2.2c-0.8-0.5-1.6-0.7-2.3-0.7c-1,0-1.8,0.5-2.4,1.4
						s-0.9,2.1-0.9,3.7c0,1.6,0.2,2.8,0.6,3.7s1,1.3,1.9,1.3c0.4,0,0.9-0.1,1.3-0.2v-3.3h-1.8V151.8z"/>
					<path fill="#FFFFFF" d="M310,159.7h-3.2l-4.4-10.3h-0.1c0.2,0.8,0.2,1.6,0.2,2.5v7.8H300v-14.3h3.3l4.4,10.2h0.1
						c-0.1-0.7-0.2-1.5-0.2-2.4v-7.8h2.4V159.7z"/>
					<path fill="#FFFFFF" d="M324.3,159.7h-2.7v-6.3h-3.5v6.3h-2.7v-14.3h2.7v5.7h3.5v-5.7h2.7V159.7z"/>
					<path fill="#FFFFFF" d="M332.2,159.7h-6.4v-14.3h6.4v2.3h-3.8v3.4h3.5v2.3h-3.5v4h3.8V159.7z"/>
					<path fill="#FFFFFF" d="M336,154.2v5.6h-2.7v-14.3h3.5c1.5,0,2.6,0.3,3.3,1s1,1.8,1,3.2c0,1.8-0.6,3.1-1.8,3.8l2.7,6.3h-2.8
						l-2.3-5.6H336z M336,151.9h0.7c0.6,0,1.1-0.2,1.3-0.5s0.4-0.9,0.4-1.6c0-0.7-0.1-1.2-0.4-1.6s-0.7-0.5-1.3-0.5H336V151.9z"/>
				</g>
				<g enable-background="new    ">
					<path fill="#FFFFFF" d="M347.3,159.7h-6.4v-14.3h6.4v2.3h-3.8v3.4h3.5v2.3h-3.5v4h3.8V159.7z"/>
				</g>
				<g enable-background="new    ">
					<path fill="#FFFFFF" d="M348,158.4c0-0.5,0.1-0.9,0.4-1.2s0.7-0.4,1.2-0.4s0.9,0.1,1.2,0.4s0.4,0.7,0.4,1.2
						c0,0.5-0.1,0.9-0.4,1.2s-0.7,0.4-1.2,0.4c-0.5,0-0.9-0.1-1.2-0.4S348,158.9,348,158.4z M350.7,155.1h-2.1l-0.5-9.7h3.1
						L350.7,155.1z"/>
				</g>
			</g>
		</g>
		<path id="esclamation6" display="inline" opacity="0.3" fill="#213B74" enable-background="new    " d="M398.4,247.9l51.5-4.7
			l-4.7-51.5l-51.5,4.7L398.4,247.9z M430.6,45.6l-48.5,4.4l4.4,49l20.3,82.2l23-2.1l5.2-84.5L430.6,45.6z"/>
		<path id="esclamation5" display="inline" opacity="0.15" fill="#FF2300" enable-background="new    " d="M590,285.7l-75.4-25.8
			l-25.8,75.4l75.4,25.8L590,285.7z M565.2,118.3l-23,128.4l33.7,11.5l60.3-115.7l24.5-71.8l-70.9-24.2L565.2,118.3z"/>
		<path id="esclamation4" display="inline" opacity="0.3" fill="#009BDF" enable-background="new    " d="M195.9,357.8l79.2-26.1
			l-26.1-79.2l-79.2,26.1L195.9,357.8z M172.6,28.3L98.1,52.9l24.9,75.4L184.9,250l35.3-11.7l-22.7-134.6L172.6,28.3z"/>
	</g>
</svg>
