<svg xmlns="http://www.w3.org/2000/svg" viewBox="0 0 400 400">
  <path d="M325.9 60.5v163.8c0 43.8-11.3 75.9-33.9 96.5-22.6 20.6-52.4 31-89.5 31.4-37.9.4-68.4-9-91.3-28.3-23-19.3-34.4-44.1-34.4-74.5 0-13.4 6.4-20.2 19.2-20.3 13.6-.1 20.4 4.9 20.4 15.2 0 22.5 7.7 40.1 23.1 53 15.4 12.8 36 19.1 62 18.9 27.1-.3 48.1-8 62.9-23.1 14.8-15.1 22.2-37.9 22.2-68.3v-192.8c-26.1-14-55.4-21.9-86.6-21.9-102.4 0-185.7 85.2-185.7 189.9s83.3 189.9 185.7 189.9c102.4 0 185.7-85.2 185.7-189.9 0-55.1-23.1-104.8-59.8-139.5z"/>
  <path fill="#E5FF1F" d="M225.3 64.3l-12 70.4 51.2 49.9-70.7 10.3-31.6 64.1-31.6-64.1-70.7-10.2 51.1-49.9-12.2-70.4 63.3 33.2z"/>
</svg>
